{"glyphs":{"0":{"ha":793,"x_min":78,"x_max":715,"o":"m 715 499 q 697 280 715 375 q 639 119 678 185 q 540 20 600 54 q 396 -14 479 -14 q 221 44 292 -14 q 114 217 150 103 q 78 499 78 332 q 109 766 78 651 q 210 944 140 881 q 397 1007 281 1007 q 581 944 511 1007 q 683 768 651 882 q 715 499 715 654 m 157 499 q 183 251 157 350 q 261 104 208 153 q 396 56 314 56 q 534 104 482 56 q 610 251 586 153 q 635 499 635 350 q 613 735 635 638 q 540 885 592 833 q 397 938 488 938 q 255 885 307 938 q 180 734 203 832 q 157 499 157 636 z "},"1":{"ha":793,"x_min":133,"x_max":469,"o":"m 469 0 l 392 0 l 392 738 q 392 807 392 778 q 393 861 392 836 q 394 908 394 886 q 358 876 375 890 q 314 840 342 861 l 176 733 l 133 789 l 403 992 l 469 992 l 469 0 z "},"2":{"ha":793,"x_min":75,"x_max":703,"o":"m 703 0 l 75 0 l 75 67 l 360 363 q 480 494 432 436 q 553 612 528 553 q 578 742 578 671 q 524 885 578 835 q 378 936 469 936 q 253 913 311 936 q 138 844 194 889 l 94 900 q 182 957 136 933 q 277 993 228 981 q 378 1006 326 1006 q 527 974 464 1006 q 625 883 590 942 q 660 746 660 825 q 631 599 660 665 q 549 468 601 532 q 425 332 497 404 l 176 76 l 176 74 l 703 74 l 703 0 z "},"3":{"ha":793,"x_min":64,"x_max":700,"o":"m 669 763 q 643 647 669 697 q 569 565 617 597 q 461 522 522 533 l 461 518 q 639 442 578 503 q 700 276 700 381 q 660 126 700 192 q 541 23 621 60 q 339 -14 461 -14 q 190 1 260 -14 q 64 43 121 15 l 64 119 q 195 73 122 90 q 340 56 268 56 q 549 115 482 56 q 617 278 617 175 q 581 394 617 350 q 478 459 544 439 q 321 479 411 479 l 215 479 l 215 549 l 322 549 q 460 573 400 549 q 553 644 519 597 q 588 758 588 690 q 531 892 588 847 q 379 938 475 938 q 282 927 328 938 q 195 897 236 917 q 113 847 154 876 l 72 903 q 206 976 129 947 q 379 1006 283 1006 q 594 940 518 1006 q 669 763 669 874 z "},"4":{"ha":793,"x_min":32,"x_max":772,"o":"m 772 247 l 607 247 l 607 0 l 531 0 l 531 247 l 32 247 l 32 313 l 525 997 l 607 997 l 607 319 l 772 319 l 772 247 m 531 688 q 531 758 531 728 q 531 814 531 789 q 533 863 532 839 q 535 910 533 886 l 531 910 q 496 850 513 878 q 456 790 479 822 l 117 319 l 531 319 l 531 688 z "},"5":{"ha":793,"x_min":96,"x_max":708,"o":"m 382 600 q 556 566 482 600 q 669 467 629 532 q 708 310 708 403 q 665 137 708 210 q 540 25 621 64 q 349 -14 458 -14 q 206 1 271 -14 q 96 43 140 17 l 96 121 q 211 74 144 92 q 349 56 278 56 q 496 84 433 56 q 593 168 558 113 q 628 303 628 224 q 562 472 628 411 q 361 532 496 532 q 259 524 310 532 q 168 506 208 517 l 124 535 l 164 992 l 644 992 l 644 919 l 232 919 l 203 579 q 277 592 232 585 q 382 600 322 600 z "},"6":{"ha":793,"x_min":86,"x_max":721,"o":"m 86 422 q 102 619 86 529 q 151 781 118 710 q 236 903 185 853 q 358 981 288 954 q 521 1007 429 1007 q 590 1003 556 1007 q 650 992 625 1000 l 650 921 q 592 935 625 931 q 522 940 558 940 q 367 909 433 940 q 257 819 300 878 q 191 674 214 760 q 164 476 168 588 l 169 476 q 224 544 189 513 q 310 596 258 576 q 432 615 363 615 q 585 579 521 615 q 685 476 650 543 q 721 317 721 410 q 684 142 721 217 q 579 27 647 68 q 415 -14 511 -14 q 274 18 336 -14 q 171 108 213 50 q 108 247 129 167 q 86 422 86 328 m 414 56 q 581 123 521 56 q 642 317 642 190 q 587 488 642 425 q 419 550 532 550 q 287 519 343 550 q 200 443 231 489 q 169 351 169 397 q 182 256 169 307 q 223 160 194 206 q 299 85 251 114 q 414 56 346 56 z "},"7":{"ha":793,"x_min":71,"x_max":718,"o":"m 222 0 l 632 919 l 71 919 l 71 992 l 718 992 l 718 933 l 310 0 l 222 0 z "},"8":{"ha":793,"x_min":79,"x_max":713,"o":"m 394 1006 q 544 978 481 1006 q 644 900 608 951 q 679 774 679 849 q 653 669 679 714 q 579 590 626 624 q 471 528 532 556 q 597 463 542 500 q 682 375 651 425 q 713 254 713 325 q 672 111 713 171 q 559 19 631 51 q 394 -14 488 -14 q 226 19 297 -14 q 117 110 156 51 q 79 249 79 168 q 109 373 79 321 q 192 462 139 425 q 311 524 246 499 q 210 583 256 550 q 138 663 165 617 q 111 774 111 708 q 148 898 111 846 q 249 978 185 950 q 394 1006 313 1006 m 157 247 q 219 106 157 160 q 393 53 281 53 q 568 106 503 53 q 633 254 633 158 q 608 349 633 308 q 533 422 582 390 q 414 479 483 454 l 383 490 q 265 433 315 465 q 185 356 214 400 q 157 247 157 311 m 394 939 q 247 896 306 939 q 189 771 189 853 q 216 677 189 715 q 291 611 243 639 q 400 560 339 583 q 507 615 463 586 q 576 681 551 643 q 600 772 600 719 q 545 897 600 854 q 394 939 490 939 z "},"9":{"ha":793,"x_min":74,"x_max":708,"o":"m 708 571 q 692 374 708 465 q 643 212 676 283 q 558 90 610 140 q 436 12 507 39 q 274 -15 365 -15 q 200 -11 239 -15 q 136 1 161 -7 l 136 72 q 198 58 161 64 q 272 53 235 53 q 427 83 361 53 q 537 174 493 114 q 603 320 581 233 q 629 517 626 407 l 624 517 q 569 449 604 482 q 483 397 535 417 q 360 376 431 376 q 207 413 271 376 q 108 516 143 449 q 74 676 74 583 q 110 851 74 776 q 216 965 147 925 q 381 1006 285 1006 q 522 974 461 1006 q 625 884 583 942 q 688 747 667 826 q 708 571 708 667 m 381 938 q 213 870 274 938 q 153 678 153 803 q 208 505 153 568 q 374 442 263 442 q 507 473 451 442 q 594 551 563 504 q 625 643 625 597 q 613 736 625 685 q 572 833 600 788 q 496 908 543 879 q 381 938 449 938 z "},"\u0000":{"ha":0,"x_min":0,"x_max":0,"o":""},"\r":{"ha":361,"x_min":0,"x_max":0,"o":""}," ":{"ha":361,"x_min":0,"x_max":0,"o":""},"!":{"ha":342,"x_min":110,"x_max":232,"o":"m 200 261 l 143 261 l 125 992 l 219 992 l 200 261 m 110 54 q 126 105 110 88 q 169 122 142 122 q 216 105 200 122 q 232 54 232 88 q 216 2 232 19 q 169 -15 200 -15 q 126 2 142 -15 q 110 54 110 19 z "},"\"":{"ha":506,"x_min":96,"x_max":410,"o":"m 182 992 l 165 633 l 113 633 l 96 992 l 182 992 m 410 992 l 393 633 l 342 633 l 325 992 l 410 992 z "},"#":{"ha":897,"x_min":38,"x_max":860,"o":"m 658 624 l 608 367 l 810 367 l 810 303 l 596 303 l 538 0 l 471 0 l 529 303 l 292 303 l 235 0 l 168 0 l 225 303 l 38 303 l 38 367 l 238 367 l 288 624 l 90 624 l 90 686 l 299 686 l 357 992 l 425 992 l 367 686 l 604 686 l 663 992 l 728 992 l 669 686 l 860 686 l 860 624 l 658 624 m 304 367 l 542 367 l 592 624 l 354 624 l 304 367 z "},"$":{"ha":793,"x_min":88,"x_max":685,"o":"m 351 42 q 202 55 269 43 q 90 85 135 67 l 90 164 q 208 128 138 143 q 351 113 278 114 l 351 474 q 212 531 271 500 q 120 609 153 563 q 88 725 88 656 q 122 845 88 796 q 215 923 156 894 q 351 956 274 951 l 351 1054 l 413 1054 l 413 956 q 536 941 478 954 q 647 904 594 928 l 621 838 q 516 872 569 860 q 413 886 463 883 l 413 532 q 558 474 497 504 q 652 399 619 443 q 685 282 685 354 q 610 115 685 175 q 413 44 536 54 l 413 -81 l 351 -81 l 351 42 m 413 115 q 554 163 503 122 q 606 279 606 203 q 585 356 606 325 q 522 408 564 386 q 413 451 479 431 l 413 115 m 351 885 q 254 863 296 882 q 190 812 213 844 q 167 732 167 779 q 189 649 167 682 q 253 593 211 615 q 351 553 294 571 l 351 885 z "},"%":{"ha":1128,"x_min":75,"x_max":1053,"o":"m 272 1006 q 422 926 372 1006 q 471 696 471 846 q 420 464 471 544 q 271 383 369 383 q 126 465 176 383 q 75 696 75 546 q 125 926 75 847 q 272 1006 175 1006 m 272 946 q 177 883 210 946 q 144 696 144 821 q 176 508 144 572 q 271 444 208 444 q 369 508 338 444 q 401 696 401 572 q 370 882 401 818 q 272 946 339 946 m 876 992 l 326 0 l 253 0 l 803 992 l 876 992 m 854 608 q 1003 528 953 608 q 1053 299 1053 449 q 1002 67 1053 147 q 853 -14 951 -14 q 708 67 758 -14 q 657 299 657 149 q 707 529 657 450 q 854 608 757 608 m 854 547 q 759 485 792 547 q 726 299 726 424 q 758 110 726 174 q 853 47 790 47 q 951 111 919 47 q 983 299 983 175 q 952 484 983 421 q 854 547 921 547 z "},"&":{"ha":996,"x_min":81,"x_max":971,"o":"m 422 1007 q 543 982 492 1007 q 623 911 594 957 q 651 800 651 865 q 591 648 651 708 q 433 536 531 588 l 736 236 q 803 344 775 282 q 847 476 831 406 l 928 476 q 872 316 907 389 q 788 183 838 243 l 971 0 l 864 0 l 735 132 q 642 56 692 89 q 531 5 592 24 q 389 -14 469 -14 q 227 17 296 -14 q 119 108 158 49 q 81 254 81 168 q 108 380 81 328 q 189 472 136 432 q 315 550 242 511 q 246 628 276 590 q 198 706 215 665 q 181 796 181 747 q 210 908 181 861 q 294 981 240 956 q 422 1007 349 1007 m 364 499 q 256 433 300 467 q 188 358 211 400 q 164 256 164 317 q 226 110 164 163 q 390 58 289 58 q 562 93 493 58 q 683 182 631 128 l 364 499 m 421 940 q 303 901 347 940 q 258 796 258 863 q 290 692 258 739 q 382 585 322 646 q 524 681 475 632 q 572 800 572 731 q 531 902 572 864 q 421 940 490 940 z "},"'":{"ha":276,"x_min":96,"x_max":182,"o":"m 182 992 l 165 633 l 113 633 l 96 992 l 182 992 z "},"(":{"ha":386,"x_min":57,"x_max":340,"o":"m 57 381 q 80 610 57 500 q 149 816 103 719 q 260 992 194 913 l 340 992 q 188 709 239 865 q 138 382 138 553 q 160 165 138 271 q 228 -37 183 60 q 340 -219 274 -133 l 260 -219 q 149 -44 194 -139 q 80 158 103 50 q 57 381 57 265 z "},")":{"ha":386,"x_min":46,"x_max":329,"o":"m 329 386 q 306 160 329 269 q 239 -44 283 51 q 126 -219 194 -140 l 47 -219 q 160 -37 115 -135 q 226 168 204 61 q 249 386 249 275 q 226 606 249 499 q 159 810 204 713 q 46 992 114 908 l 126 992 q 239 815 194 911 q 306 612 283 719 q 329 386 329 504 z "},"*":{"ha":765,"x_min":72,"x_max":689,"o":"m 424 1054 l 406 778 l 674 864 l 689 781 l 425 731 l 594 508 l 518 464 l 379 703 l 246 464 l 168 508 l 336 731 l 72 781 l 88 864 l 354 778 l 336 1054 l 424 1054 z "},"+":{"ha":793,"x_min":74,"x_max":719,"o":"m 429 524 l 719 524 l 719 457 l 429 457 l 429 163 l 363 163 l 363 457 l 74 457 l 74 524 l 363 524 l 363 818 l 429 818 l 429 524 z "},",":{"ha":314,"x_min":56,"x_max":221,"o":"m 221 146 q 193 39 210 96 q 156 -74 176 -18 q 115 -179 136 -129 l 56 -179 q 86 -60 72 -118 q 111 55 100 -1 q 129 161 122 111 l 214 161 l 221 146 z "},"-":{"ha":447,"x_min":56,"x_max":392,"o":"m 56 339 l 56 411 l 392 411 l 392 339 l 56 339 z "},".":{"ha":339,"x_min":110,"x_max":232,"o":"m 110 54 q 126 105 110 88 q 169 122 142 122 q 216 105 200 122 q 232 54 232 88 q 216 2 232 19 q 169 -15 200 -15 q 126 2 142 -15 q 110 54 110 19 z "},"/":{"ha":482,"x_min":17,"x_max":467,"o":"m 467 992 l 96 0 l 17 0 l 388 992 l 467 992 z "},":":{"ha":339,"x_min":110,"x_max":232,"o":"m 110 54 q 126 105 110 88 q 169 122 142 122 q 216 105 200 122 q 232 54 232 88 q 216 2 232 19 q 169 -15 200 -15 q 126 2 142 -15 q 110 54 110 19 m 110 683 q 126 735 110 718 q 169 751 142 751 q 216 735 200 751 q 232 683 232 718 q 216 631 232 649 q 169 614 200 614 q 126 631 142 614 q 110 683 110 649 z "},";":{"ha":339,"x_min":49,"x_max":231,"o":"m 214 146 q 186 39 203 96 q 150 -74 169 -18 q 110 -179 131 -129 l 49 -179 q 72 -90 61 -135 q 92 -1 83 -44 q 109 83 101 42 q 122 161 117 124 l 207 161 l 214 146 m 108 683 q 124 735 108 718 q 168 751 140 751 q 215 735 199 751 q 231 683 231 718 q 215 631 231 649 q 168 614 199 614 q 124 631 140 614 q 108 683 108 649 z "},"<":{"ha":793,"x_min":74,"x_max":719,"o":"m 719 176 l 74 469 l 74 517 l 719 829 l 719 757 l 164 496 l 719 249 l 719 176 z "},"=":{"ha":793,"x_min":78,"x_max":715,"o":"m 78 597 l 78 663 l 715 663 l 715 597 l 78 597 m 78 317 l 78 383 l 715 383 l 715 317 l 78 317 z "},">":{"ha":793,"x_min":74,"x_max":719,"o":"m 74 249 l 629 496 l 74 757 l 74 829 l 719 517 l 719 469 l 74 176 l 74 249 z "},"?":{"ha":589,"x_min":35,"x_max":543,"o":"m 197 288 q 208 390 197 349 q 244 465 218 431 q 315 535 269 499 q 400 608 367 575 q 450 676 433 640 q 467 765 467 713 q 414 892 467 850 q 272 935 361 935 q 163 921 213 935 q 64 882 113 907 l 35 949 q 150 991 93 976 q 276 1006 207 1006 q 472 944 400 1006 q 543 767 543 882 q 522 653 543 700 q 461 569 500 607 q 369 492 422 532 q 306 431 329 460 q 273 368 282 403 q 264 281 264 333 l 264 261 l 197 261 l 197 288 m 174 54 q 190 105 174 88 q 235 122 206 122 q 280 105 264 122 q 296 54 296 88 q 280 2 296 19 q 235 -15 264 -15 q 190 2 206 -15 q 174 54 174 19 z "},"@":{"ha":1235,"x_min":76,"x_max":1158,"o":"m 1158 492 q 1144 363 1158 425 q 1101 253 1131 301 q 1030 178 1072 206 q 929 150 988 150 q 828 188 867 150 q 785 283 790 225 l 781 283 q 699 185 753 219 q 575 150 646 150 q 415 217 472 150 q 358 403 358 285 q 395 563 358 493 q 498 672 432 632 q 653 713 564 713 q 760 704 708 713 q 849 682 813 696 l 836 440 q 834 392 835 415 q 833 350 833 369 q 859 244 833 276 q 933 211 885 211 q 1021 248 986 211 q 1073 349 1056 285 q 1090 493 1090 413 q 1038 723 1090 626 q 889 872 986 819 q 660 924 792 924 q 447 887 542 924 q 284 781 351 850 q 181 614 217 711 q 146 394 146 517 q 198 145 146 249 q 349 -13 250 42 q 589 -68 447 -68 q 740 -51 665 -68 q 878 -10 815 -35 l 878 -76 q 746 -116 818 -101 q 589 -131 674 -131 q 315 -67 429 -131 q 138 113 200 -4 q 76 392 76 231 q 117 638 76 528 q 235 825 158 747 q 419 944 313 903 q 660 986 526 986 q 863 952 772 986 q 1021 853 954 918 q 1123 698 1088 789 q 1158 492 1158 607 m 432 401 q 471 259 432 307 q 585 211 510 211 q 716 271 672 211 q 767 443 760 331 l 776 635 q 721 647 751 643 q 654 651 690 651 q 532 618 582 651 q 457 528 482 585 q 432 401 432 472 z "},"A":{"ha":844,"x_min":0,"x_max":844,"o":"m 760 0 l 628 342 l 217 342 l 83 0 l 0 0 l 390 996 l 464 996 l 844 0 l 760 0 m 471 772 q 457 810 465 786 q 440 860 449 833 q 425 907 432 886 q 410 858 418 883 q 394 811 403 833 q 381 771 386 789 l 243 415 l 603 415 l 471 772 z "},"B":{"ha":878,"x_min":139,"x_max":801,"o":"m 414 992 q 685 935 597 992 q 772 750 772 878 q 750 646 772 693 q 685 567 728 599 q 579 525 642 536 l 579 521 q 701 480 651 510 q 776 401 751 450 q 801 282 801 353 q 758 124 801 186 q 635 31 714 61 q 453 0 557 0 l 139 0 l 139 992 l 414 992 m 432 554 q 629 601 569 554 q 689 742 689 649 q 624 879 689 838 q 414 921 558 921 l 219 921 l 219 554 l 432 554 m 219 485 l 219 71 l 446 71 q 649 126 583 71 q 715 286 715 181 q 685 399 715 356 q 592 464 654 443 q 433 485 529 485 l 219 485 z "},"C":{"ha":865,"x_min":86,"x_max":822,"o":"m 561 933 q 397 902 469 933 q 274 813 324 871 q 197 676 224 756 q 171 499 171 596 q 213 266 171 365 q 339 113 256 167 q 547 58 422 58 q 681 69 621 58 q 794 99 742 81 l 794 28 q 682 -3 743 8 q 539 -14 621 -14 q 288 50 389 -14 q 137 229 188 114 q 86 499 86 344 q 118 702 86 610 q 211 863 150 794 q 360 968 272 931 q 563 1006 449 1006 q 701 992 635 1006 q 822 951 767 978 l 790 881 q 681 920 738 907 q 561 933 624 933 z "},"D":{"ha":988,"x_min":139,"x_max":901,"o":"m 901 506 q 842 226 901 339 q 668 57 783 114 q 385 0 553 0 l 139 0 l 139 992 l 415 992 q 681 936 572 992 q 845 773 789 881 q 901 506 901 665 m 817 503 q 771 735 817 643 q 632 874 725 828 q 399 921 539 921 l 219 921 l 219 71 l 378 71 q 708 179 599 71 q 817 503 817 288 z "},"E":{"ha":768,"x_min":139,"x_max":683,"o":"m 683 0 l 139 0 l 139 992 l 683 992 l 683 919 l 219 919 l 219 557 l 657 557 l 657 485 l 219 485 l 219 72 l 683 72 l 683 0 z "},"F":{"ha":703,"x_min":139,"x_max":685,"o":"m 219 0 l 139 0 l 139 992 l 685 992 l 685 919 l 219 919 l 219 511 l 658 511 l 658 439 l 219 439 l 219 0 z "},"G":{"ha":1006,"x_min":86,"x_max":899,"o":"m 538 506 l 899 506 l 899 44 q 744 1 825 15 q 569 -14 663 -14 q 305 47 413 -14 q 142 221 197 107 q 86 494 86 335 q 147 761 86 646 q 322 942 208 876 q 594 1007 435 1007 q 748 992 675 1007 q 886 947 821 978 l 854 876 q 725 920 792 906 q 590 935 658 935 q 365 879 460 935 q 221 725 271 824 q 171 496 171 626 q 218 255 171 353 q 358 108 265 157 q 586 58 450 58 q 715 68 658 58 q 818 94 772 78 l 818 432 l 538 432 l 538 506 z "},"H":{"ha":1006,"x_min":139,"x_max":865,"o":"m 865 0 l 785 0 l 785 483 l 219 483 l 219 0 l 139 0 l 139 992 l 219 992 l 219 556 l 785 556 l 785 992 l 865 992 l 865 0 z "},"I":{"ha":432,"x_min":71,"x_max":363,"o":"m 363 0 l 71 0 l 71 50 l 176 65 l 176 925 l 71 942 l 71 992 l 363 992 l 363 942 l 257 925 l 257 65 l 363 50 l 363 0 z "},"J":{"ha":350,"x_min":-122,"x_max":218,"o":"m -15 -253 q -77 -247 -51 -253 q -122 -235 -103 -242 l -122 -162 q -74 -174 -101 -169 q -17 -179 -47 -179 q 68 -159 33 -179 q 120 -97 103 -139 q 138 7 138 -56 l 138 992 l 218 992 l 218 10 q 192 -131 218 -72 q 115 -222 167 -190 q -15 -253 63 -253 z "},"K":{"ha":818,"x_min":139,"x_max":818,"o":"m 818 0 l 721 0 l 343 514 l 219 396 l 219 0 l 139 0 l 139 992 l 219 992 l 219 476 q 279 542 249 510 q 340 607 310 575 l 707 992 l 806 992 l 403 569 l 818 0 z "},"L":{"ha":715,"x_min":139,"x_max":685,"o":"m 139 0 l 139 992 l 219 992 l 219 74 l 685 74 l 685 0 l 139 0 z "},"M":{"ha":1211,"x_min":139,"x_max":1072,"o":"m 569 0 l 214 907 l 210 907 q 213 851 211 882 q 215 785 214 819 q 215 715 215 751 l 215 0 l 139 0 l 139 992 l 261 992 l 603 124 l 607 124 l 953 992 l 1072 992 l 1072 0 l 992 0 l 992 724 q 992 786 992 754 q 995 849 993 818 q 997 906 997 879 l 993 906 l 635 0 l 569 0 z "},"N":{"ha":1013,"x_min":139,"x_max":874,"o":"m 874 0 l 788 0 l 213 867 l 208 867 q 212 792 211 831 q 214 712 213 753 q 215 626 215 671 l 215 0 l 139 0 l 139 992 l 225 992 l 799 128 l 803 128 q 800 197 801 157 q 798 281 799 238 q 797 363 797 325 l 797 992 l 874 992 l 874 0 z "},"O":{"ha":1067,"x_min":86,"x_max":979,"o":"m 979 497 q 951 290 979 383 q 867 128 924 197 q 728 23 811 60 q 533 -14 644 -14 q 337 24 421 -14 q 197 129 253 61 q 114 291 142 197 q 86 499 86 385 q 137 765 86 650 q 288 943 188 879 q 538 1007 389 1007 q 779 945 681 1007 q 928 769 878 883 q 979 497 979 656 m 171 499 q 210 267 171 367 q 330 113 249 168 q 533 58 411 58 q 738 113 658 58 q 856 266 818 167 q 894 497 894 365 q 805 819 894 704 q 538 935 715 935 q 332 881 414 935 q 210 728 250 826 q 171 499 171 629 z "},"P":{"ha":818,"x_min":139,"x_max":743,"o":"m 386 992 q 655 922 567 992 q 743 711 743 853 q 720 583 743 640 q 651 487 697 526 q 533 426 604 447 q 365 406 461 406 l 219 406 l 219 0 l 139 0 l 139 992 l 386 992 m 378 921 l 219 921 l 219 476 l 357 476 q 521 498 453 476 q 624 570 589 519 q 660 707 660 621 q 592 869 660 818 q 378 921 524 921 z "},"Q":{"ha":1067,"x_min":86,"x_max":979,"o":"m 979 497 q 944 268 979 371 q 839 97 908 165 q 664 3 769 29 l 881 -236 l 767 -236 l 576 -11 q 555 -13 565 -12 q 533 -14 544 -14 q 337 24 421 -14 q 197 129 253 61 q 114 291 142 197 q 86 499 86 385 q 137 765 86 650 q 288 943 188 879 q 538 1007 389 1007 q 779 945 681 1007 q 928 769 878 883 q 979 497 979 656 m 171 499 q 210 267 171 367 q 330 113 249 168 q 533 58 411 58 q 738 113 658 58 q 856 266 818 167 q 894 497 894 365 q 805 819 894 704 q 538 935 715 935 q 332 881 414 935 q 210 728 250 826 q 171 499 171 629 z "},"R":{"ha":833,"x_min":139,"x_max":804,"o":"m 386 992 q 585 965 506 992 q 703 878 664 938 q 743 719 743 818 q 715 590 743 643 q 640 502 688 536 q 532 450 593 468 l 804 0 l 708 0 l 456 428 l 219 428 l 219 0 l 139 0 l 139 992 l 386 992 m 379 921 l 219 921 l 219 497 l 407 497 q 594 554 528 497 q 660 717 660 611 q 629 838 660 793 q 537 901 599 882 q 379 921 475 921 z "},"S":{"ha":758,"x_min":75,"x_max":689,"o":"m 689 258 q 644 109 689 169 q 522 17 600 49 q 346 -14 444 -14 q 237 -8 286 -14 q 147 8 188 -1 q 75 31 107 18 l 75 110 q 198 74 128 89 q 350 58 268 58 q 484 80 426 58 q 574 145 542 101 q 607 253 607 189 q 580 350 607 313 q 497 416 553 388 q 353 474 440 444 q 241 519 290 496 q 157 575 192 543 q 104 651 122 607 q 86 754 86 694 q 128 892 86 836 q 241 976 169 947 q 403 1006 313 1006 q 541 992 476 1006 q 664 953 606 979 l 638 883 q 519 921 579 908 q 400 933 460 933 q 280 913 332 933 q 198 853 228 893 q 168 756 168 814 q 196 654 168 693 q 277 589 224 615 q 406 536 331 563 q 558 473 494 507 q 655 388 621 439 q 689 258 689 338 z "},"T":{"ha":738,"x_min":8,"x_max":728,"o":"m 408 0 l 328 0 l 328 919 l 8 919 l 8 992 l 728 992 l 728 919 l 408 919 l 408 0 z "},"U":{"ha":1003,"x_min":129,"x_max":874,"o":"m 874 350 q 830 156 874 238 q 702 30 786 74 q 499 -14 618 -14 q 224 83 319 -14 q 129 353 129 181 l 129 992 l 210 992 l 210 353 q 285 133 210 208 q 503 58 360 58 q 662 92 597 58 q 760 190 726 126 q 794 344 794 254 l 794 992 l 874 992 l 874 350 z "},"V":{"ha":808,"x_min":0,"x_max":808,"o":"m 808 992 l 444 0 l 364 0 l 0 992 l 85 992 l 347 278 q 370 213 360 244 q 389 151 381 181 q 404 96 397 122 q 419 151 411 122 q 439 211 428 179 q 463 279 450 243 l 722 992 l 808 992 z "},"W":{"ha":1250,"x_min":32,"x_max":1219,"o":"m 1219 992 l 950 0 l 871 0 l 663 729 q 649 777 656 754 q 638 822 643 800 q 627 860 632 843 q 619 892 622 878 q 615 861 618 878 q 606 826 611 844 q 597 786 601 807 q 585 743 592 765 l 378 0 l 299 0 l 32 992 l 115 992 l 296 311 q 310 257 303 283 q 322 206 317 231 q 333 158 328 181 q 342 111 338 135 q 351 159 346 135 q 361 208 356 183 q 374 260 367 233 q 389 315 382 288 l 581 992 l 663 992 l 860 311 q 875 255 868 282 q 888 203 882 228 q 899 154 894 178 q 908 108 904 131 q 919 172 913 140 q 933 237 925 203 q 953 311 942 271 l 1136 992 l 1219 992 z "},"X":{"ha":761,"x_min":1,"x_max":760,"o":"m 760 0 l 668 0 l 381 458 l 89 0 l 1 0 l 333 515 l 29 992 l 119 992 l 383 572 l 649 992 l 736 992 l 429 517 l 760 0 z "},"Y":{"ha":744,"x_min":0,"x_max":744,"o":"m 372 461 l 656 992 l 744 992 l 414 383 l 414 0 l 333 0 l 333 378 l 0 992 l 89 992 l 372 461 z "},"Z":{"ha":799,"x_min":51,"x_max":744,"o":"m 744 0 l 51 0 l 51 60 l 628 919 l 79 919 l 79 992 l 729 992 l 729 932 l 153 74 l 744 74 l 744 0 z "},"[":{"ha":446,"x_min":117,"x_max":411,"o":"m 411 -219 l 117 -219 l 117 992 l 411 992 l 411 925 l 194 925 l 194 -151 l 411 -151 l 411 -219 z "},"\\":{"ha":482,"x_min":17,"x_max":467,"o":"m 96 992 l 467 0 l 388 0 l 17 992 l 96 992 z "},"]":{"ha":446,"x_min":35,"x_max":329,"o":"m 35 -151 l 253 -151 l 253 925 l 35 925 l 35 992 l 329 992 l 329 -219 l 35 -219 l 35 -151 z "},"^":{"ha":793,"x_min":58,"x_max":735,"o":"m 58 379 l 369 999 l 421 999 l 735 379 l 661 379 l 394 911 l 133 379 l 58 379 z "},"_":{"ha":581,"x_min":-3,"x_max":583,"o":"m 583 -187 l -3 -187 l -3 -125 l 583 -125 l 583 -187 z "},"`":{"ha":368,"x_min":56,"x_max":313,"o":"m 150 1064 q 196 996 168 1035 q 256 919 224 957 q 313 854 288 882 l 313 842 l 257 842 q 203 891 232 864 q 146 947 174 918 q 94 1003 118 976 q 56 1053 71 1031 l 56 1064 l 150 1064 z "},"a":{"ha":744,"x_min":65,"x_max":631,"o":"m 383 751 q 569 691 508 751 q 631 497 631 631 l 631 0 l 571 0 l 557 125 l 553 125 q 492 52 526 83 q 410 3 458 21 q 294 -14 363 -14 q 172 10 224 -14 q 93 81 121 35 q 65 193 65 126 q 156 362 65 304 q 418 426 246 419 l 553 433 l 553 485 q 509 640 553 594 q 381 685 465 685 q 271 670 324 685 q 165 629 218 656 l 140 693 q 255 735 193 718 q 383 751 317 751 m 428 368 q 218 319 288 361 q 149 193 149 276 q 191 89 149 125 q 308 53 233 53 q 488 119 425 53 q 553 301 551 185 l 553 374 l 428 368 z "},"b":{"ha":832,"x_min":121,"x_max":753,"o":"m 200 764 q 199 679 200 724 q 196 606 197 635 l 200 606 q 292 711 228 669 q 451 753 356 753 q 674 656 594 753 q 753 371 753 560 q 717 168 753 254 q 613 34 682 82 q 440 -14 543 -14 q 289 25 347 -14 q 201 119 231 64 l 196 119 l 181 0 l 121 0 l 121 1056 l 200 1056 l 200 764 m 442 685 q 303 649 356 685 q 225 543 250 613 q 200 371 200 474 l 200 361 q 253 133 200 213 q 432 54 307 54 q 610 137 550 54 q 671 372 671 219 q 614 606 671 528 q 442 685 557 685 z "},"c":{"ha":661,"x_min":79,"x_max":618,"o":"m 418 -14 q 235 31 311 -14 q 119 161 158 76 q 79 365 79 246 q 124 577 79 490 q 249 708 169 664 q 435 753 328 753 q 535 743 488 753 q 618 717 582 733 l 596 649 q 515 673 558 664 q 433 682 472 682 q 285 644 346 682 q 193 535 225 606 q 161 367 161 464 q 189 205 161 275 q 273 96 217 135 q 418 57 329 57 q 522 68 474 57 q 608 96 569 79 l 608 25 q 526 -3 572 8 q 418 -14 479 -14 z "},"d":{"ha":832,"x_min":79,"x_max":711,"o":"m 388 -14 q 159 82 239 -14 q 79 363 79 178 q 163 653 79 553 q 394 753 247 753 q 503 734 457 753 q 581 683 549 715 q 632 613 614 651 l 638 613 q 634 685 636 644 q 632 757 632 725 l 632 1056 l 711 1056 l 711 0 l 647 0 l 636 129 l 632 129 q 581 58 613 90 q 501 6 549 25 q 388 -14 454 -14 m 397 54 q 580 132 526 54 q 633 357 633 210 l 633 369 q 580 603 633 522 q 403 685 526 685 q 223 601 285 685 q 161 361 161 517 q 219 133 161 211 q 397 54 278 54 z "},"e":{"ha":767,"x_min":79,"x_max":689,"o":"m 403 753 q 561 709 497 753 q 657 589 625 665 q 689 414 689 513 l 689 360 l 161 360 q 231 134 163 213 q 426 56 299 56 q 546 67 494 56 q 658 106 597 79 l 658 33 q 549 -2 604 10 q 424 -14 494 -14 q 235 32 313 -14 q 119 163 158 78 q 79 364 79 249 q 117 565 79 476 q 228 703 156 653 q 403 753 300 753 m 401 686 q 238 619 300 686 q 164 425 175 551 l 607 425 q 585 561 607 503 q 517 653 563 619 q 401 686 472 686 z "},"f":{"ha":429,"x_min":18,"x_max":504,"o":"m 410 675 l 233 675 l 233 0 l 154 0 l 154 675 l 18 675 l 18 718 l 154 742 l 154 815 q 178 953 154 899 q 252 1035 203 1008 q 375 1063 301 1063 q 447 1056 415 1063 q 504 1042 478 1050 l 486 976 q 433 990 463 985 q 376 996 404 996 q 267 953 301 996 q 233 815 233 911 l 233 739 l 410 739 l 410 675 z "},"g":{"ha":832,"x_min":79,"x_max":710,"o":"m 393 753 q 538 719 481 753 q 629 626 594 686 l 635 626 l 646 739 l 710 739 l 710 -24 q 677 -189 710 -119 q 574 -296 644 -258 q 392 -333 504 -333 q 244 -319 308 -333 q 128 -283 179 -306 l 128 -207 q 247 -249 179 -232 q 394 -265 315 -265 q 574 -201 517 -265 q 632 -28 632 -136 l 632 15 q 633 74 632 44 q 635 131 633 104 l 631 131 q 536 23 599 60 q 383 -14 474 -14 q 160 84 240 -14 q 79 364 79 182 q 160 648 79 543 q 393 753 242 753 m 401 685 q 268 647 321 685 q 188 537 215 608 q 161 363 161 465 q 221 133 161 213 q 393 54 281 54 q 508 76 463 54 q 581 136 554 97 q 620 228 608 175 q 632 342 632 281 l 632 390 q 610 550 632 485 q 537 650 588 615 q 401 685 486 685 z "},"h":{"ha":828,"x_min":122,"x_max":713,"o":"m 201 718 q 200 663 201 689 q 196 611 199 638 l 201 611 q 256 684 221 653 q 340 734 290 715 q 451 753 389 753 q 594 724 536 753 q 683 636 653 696 q 713 483 713 576 l 713 0 l 635 0 l 635 478 q 586 635 635 585 q 444 685 538 685 q 309 653 363 685 q 228 559 256 622 q 201 403 201 496 l 201 0 l 122 0 l 122 1056 l 201 1056 l 201 718 z "},"i":{"ha":324,"x_min":108,"x_max":217,"o":"m 201 739 l 201 0 l 122 0 l 122 739 l 201 739 m 163 1013 q 203 997 189 1013 q 217 953 217 981 q 203 908 217 924 q 163 892 189 892 q 122 908 136 892 q 108 953 108 924 q 122 997 108 981 q 163 1013 136 1013 z "},"j":{"ha":324,"x_min":-72,"x_max":217,"o":"m 24 -333 q -31 -328 -7 -333 q -72 -318 -54 -324 l -72 -250 q -30 -262 -51 -258 q 15 -265 -8 -265 q 94 -235 65 -265 q 122 -137 122 -204 l 122 739 l 201 739 l 201 -139 q 180 -245 201 -201 q 119 -311 158 -289 q 24 -333 81 -333 m 108 953 q 122 997 108 981 q 163 1013 136 1013 q 203 997 189 1013 q 217 953 217 981 q 203 908 217 924 q 163 892 189 892 q 122 908 136 892 q 108 953 108 924 z "},"k":{"ha":686,"x_min":122,"x_max":683,"o":"m 200 519 q 199 427 200 475 q 197 333 199 379 l 199 333 q 226 365 211 347 q 255 400 240 382 q 283 433 269 418 l 564 739 l 660 739 l 367 422 l 683 0 l 589 0 l 313 371 l 200 257 l 200 0 l 122 0 l 122 1056 l 200 1056 l 200 519 z "},"l":{"ha":324,"x_min":122,"x_max":201,"o":"m 201 0 l 122 0 l 122 1056 l 201 1056 l 201 0 z "},"m":{"ha":1242,"x_min":122,"x_max":1128,"o":"m 894 753 q 1066 691 1004 753 q 1128 493 1128 629 l 1128 0 l 1050 0 l 1050 490 q 1006 637 1050 589 q 883 685 961 685 q 721 623 778 685 q 664 432 664 561 l 664 0 l 586 0 l 586 490 q 565 600 586 557 q 508 664 544 643 q 419 685 471 685 q 301 656 350 685 q 227 568 253 626 q 201 419 201 510 l 201 0 l 122 0 l 122 739 l 186 739 l 197 622 l 203 622 q 253 688 222 658 q 328 735 283 718 q 431 753 372 753 q 567 718 511 753 q 646 615 624 683 l 650 615 q 745 717 682 681 q 894 753 808 753 z "},"n":{"ha":828,"x_min":122,"x_max":713,"o":"m 453 753 q 646 688 579 753 q 713 483 713 624 l 713 0 l 635 0 l 635 478 q 586 635 635 585 q 444 685 538 685 q 262 614 322 685 q 201 403 201 543 l 201 0 l 122 0 l 122 739 l 186 739 l 197 611 l 203 611 q 258 685 224 653 q 342 735 293 717 q 453 753 390 753 z "},"o":{"ha":819,"x_min":79,"x_max":740,"o":"m 740 371 q 719 213 740 283 q 655 92 697 143 q 551 14 613 42 q 408 -14 489 -14 q 271 13 332 -14 q 167 91 210 40 q 102 213 125 142 q 79 371 79 283 q 119 576 79 490 q 235 707 160 661 q 414 753 310 753 q 593 705 521 753 q 703 572 665 657 q 740 371 740 486 m 161 371 q 188 205 161 276 q 270 94 215 133 q 410 54 325 54 q 551 94 496 54 q 632 205 606 133 q 658 371 658 276 q 633 533 658 463 q 554 644 608 604 q 413 685 500 685 q 224 601 288 685 q 161 371 161 518 z "},"p":{"ha":832,"x_min":122,"x_max":754,"o":"m 454 753 q 675 658 596 753 q 754 374 754 563 q 717 162 754 249 q 610 31 679 75 q 446 -14 542 -14 q 333 6 382 -14 q 253 57 285 25 q 201 128 221 89 l 196 128 q 200 52 199 93 q 201 -24 201 11 l 201 -328 l 122 -328 l 122 739 l 188 739 l 197 601 l 201 601 q 253 676 221 642 q 336 732 286 711 q 454 753 386 753 m 443 685 q 308 650 361 685 q 228 548 254 615 q 201 383 203 481 l 201 369 q 227 194 201 264 q 305 90 253 125 q 438 54 357 54 q 566 93 514 54 q 645 203 618 132 q 672 375 672 275 q 615 605 672 525 q 443 685 558 685 z "},"q":{"ha":832,"x_min":78,"x_max":710,"o":"m 631 -6 q 631 65 631 24 q 635 135 632 106 l 629 135 q 538 28 603 71 q 376 -14 474 -14 q 157 83 236 -14 q 78 368 78 179 q 113 571 78 485 q 219 705 149 657 q 390 753 289 753 q 542 713 483 753 q 629 617 601 674 l 633 617 l 646 739 l 710 739 l 710 -328 l 631 -328 l 631 -6 m 389 54 q 527 89 474 54 q 606 192 581 124 q 631 357 631 260 l 631 376 q 576 606 631 528 q 399 685 522 685 q 219 600 279 685 q 160 367 160 515 q 217 135 160 215 q 389 54 274 54 z "},"r":{"ha":547,"x_min":122,"x_max":526,"o":"m 426 751 q 478 749 453 751 q 526 740 504 746 l 514 667 q 469 676 492 672 q 422 679 447 679 q 331 660 371 679 q 261 604 290 640 q 217 518 232 568 q 201 406 201 468 l 201 0 l 122 0 l 122 739 l 189 739 l 197 601 l 201 601 q 252 677 221 643 q 327 731 283 711 q 426 751 371 751 z "},"s":{"ha":651,"x_min":64,"x_max":588,"o":"m 588 196 q 554 83 588 129 q 457 11 521 36 q 301 -14 393 -14 q 165 0 224 -14 q 64 33 106 14 l 64 110 q 176 69 114 86 q 303 53 238 53 q 461 90 413 53 q 510 190 510 128 q 487 259 510 232 q 419 308 464 286 q 307 351 374 329 q 186 399 239 375 q 104 461 133 424 q 75 564 75 499 q 147 703 75 654 q 340 753 219 753 q 465 740 407 753 q 571 707 524 728 l 542 642 q 445 674 499 661 q 336 686 392 686 q 200 656 249 686 q 151 567 151 625 q 175 498 151 524 q 244 453 199 472 q 351 413 289 435 q 472 364 418 389 q 556 300 525 339 q 588 196 588 261 z "},"t":{"ha":472,"x_min":18,"x_max":438,"o":"m 331 54 q 390 59 363 54 q 438 71 418 64 l 438 7 q 386 -8 417 -1 q 321 -14 356 -14 q 217 9 260 -14 q 151 81 174 32 q 128 206 128 129 l 128 675 l 18 675 l 18 719 l 128 746 l 156 915 l 207 915 l 207 739 l 433 739 l 433 675 l 207 675 l 207 210 q 237 94 207 133 q 331 54 267 54 z "},"u":{"ha":828,"x_min":113,"x_max":704,"o":"m 704 739 l 704 0 l 640 0 l 628 126 l 624 126 q 569 54 604 86 q 485 4 533 22 q 372 -14 436 -14 q 229 16 288 -14 q 142 106 171 46 q 113 256 113 165 l 113 739 l 192 739 l 192 263 q 240 106 192 157 q 382 54 288 54 q 517 86 464 54 q 598 181 571 118 q 625 336 625 243 l 625 739 l 704 739 z "},"v":{"ha":651,"x_min":0,"x_max":651,"o":"m 283 0 l 0 739 l 85 739 l 268 249 q 290 189 279 219 q 309 131 300 158 q 324 79 318 103 l 328 79 q 343 131 335 103 q 363 189 351 158 q 385 249 374 219 l 568 739 l 651 739 l 368 0 l 283 0 z "},"w":{"ha":1022,"x_min":19,"x_max":1003,"o":"m 564 481 q 550 526 557 504 q 538 569 543 549 q 527 608 532 589 q 518 644 522 628 l 514 644 q 505 608 510 628 q 494 567 500 589 q 483 524 489 546 q 468 479 476 503 l 313 0 l 228 0 l 19 739 l 103 739 l 226 283 q 247 208 239 242 q 262 145 256 174 q 272 92 268 117 l 276 92 q 285 128 281 108 q 296 172 290 149 q 309 219 301 194 q 325 272 317 244 l 478 739 l 558 739 l 706 272 q 725 207 715 239 q 742 146 735 175 q 754 93 750 117 l 758 93 q 767 144 761 115 q 783 208 774 172 q 801 283 792 243 l 922 739 l 1003 739 l 801 0 l 715 0 l 564 481 z "},"x":{"ha":700,"x_min":31,"x_max":667,"o":"m 300 379 l 43 739 l 135 739 l 349 433 l 561 739 l 651 739 l 396 379 l 667 0 l 575 0 l 349 325 l 121 0 l 31 0 l 300 379 z "},"y":{"ha":651,"x_min":1,"x_max":653,"o":"m 1 739 l 85 739 l 261 281 q 289 204 276 239 q 311 140 301 169 q 326 85 321 110 l 331 85 q 358 168 340 118 q 396 278 375 218 l 568 739 l 653 739 l 319 -131 q 265 -242 296 -196 q 193 -311 235 -287 q 92 -335 151 -335 q 44 -331 65 -335 q 4 -322 22 -328 l 4 -256 q 40 -265 21 -261 q 82 -268 60 -268 q 151 -252 122 -268 q 201 -203 179 -236 q 243 -121 224 -171 l 290 3 l 1 739 z "},"z":{"ha":643,"x_min":56,"x_max":586,"o":"m 586 0 l 56 0 l 56 53 l 489 675 l 86 675 l 86 739 l 583 739 l 583 683 l 151 65 l 586 65 l 586 0 z "},"{":{"ha":499,"x_min":38,"x_max":450,"o":"m 450 -219 q 315 -196 371 -218 q 228 -128 258 -174 q 199 -15 199 -82 l 199 206 q 181 291 199 258 q 128 338 164 324 q 38 353 93 353 l 38 421 q 128 435 93 421 q 181 482 164 450 q 199 567 199 514 l 199 789 q 229 901 199 856 q 316 969 260 946 q 450 992 372 992 l 450 925 q 355 908 393 924 q 297 862 317 893 q 278 779 278 831 l 278 561 q 247 447 278 490 q 147 390 217 403 l 147 385 q 247 328 217 372 q 278 213 278 283 l 278 -8 q 297 -90 278 -58 q 355 -136 317 -121 q 450 -151 393 -151 l 450 -219 z "},"|":{"ha":754,"x_min":342,"x_max":410,"o":"m 342 1058 l 410 1058 l 410 -342 l 342 -342 l 342 1058 z "},"}":{"ha":499,"x_min":47,"x_max":460,"o":"m 47 -151 q 143 -136 106 -151 q 200 -89 181 -121 q 219 -8 219 -57 l 219 213 q 251 327 219 283 q 350 383 282 371 l 350 389 q 251 446 282 401 q 219 561 219 490 l 219 779 q 201 863 219 831 q 144 910 182 894 q 47 925 106 925 l 47 992 q 185 969 129 992 q 269 901 240 946 q 299 788 299 856 l 299 568 q 316 482 299 514 q 369 435 333 450 q 460 421 406 421 l 460 353 q 369 338 406 353 q 316 292 333 324 q 299 207 299 260 l 299 -15 q 269 -128 299 -82 q 183 -197 239 -174 q 47 -219 126 -219 l 47 -151 z "},"~":{"ha":793,"x_min":74,"x_max":719,"o":"m 383 460 q 306 490 339 481 q 235 500 274 500 q 153 479 194 500 q 74 421 111 458 l 74 496 q 149 548 107 529 q 239 567 190 567 q 326 556 288 567 q 415 521 364 544 q 491 491 458 501 q 560 481 524 481 q 640 501 599 481 q 719 560 682 521 l 719 486 q 648 434 689 454 q 557 414 607 414 q 474 425 513 414 q 383 460 435 436 z "}," ":{"ha":361,"x_min":0,"x_max":0,"o":""},"¡":{"ha":342,"x_min":110,"x_max":232,"o":"m 140 475 l 197 475 l 217 -256 l 122 -256 l 140 475 m 232 683 q 216 632 232 649 q 171 615 200 615 q 126 632 142 615 q 110 683 110 649 q 126 734 110 717 q 171 751 142 751 q 216 734 200 751 q 232 683 232 717 z "},"¢":{"ha":793,"x_min":122,"x_max":663,"o":"m 481 890 q 579 881 535 890 q 663 854 624 871 l 640 786 q 558 812 601 803 q 476 821 515 821 q 328 783 389 821 q 235 674 267 744 q 204 503 204 603 q 232 339 204 408 q 317 232 260 269 q 461 194 374 194 q 564 205 517 194 q 653 233 611 215 l 653 163 q 576 135 618 146 q 479 124 533 125 l 479 -14 l 415 -14 l 415 125 q 254 181 319 135 q 156 308 189 226 q 122 503 122 389 q 158 699 122 618 q 259 828 193 781 q 415 886 325 875 l 415 1006 l 481 1006 l 481 890 z "},"£":{"ha":793,"x_min":51,"x_max":732,"o":"m 471 1004 q 597 990 542 1004 q 696 956 653 976 l 668 890 q 578 923 625 910 q 472 936 531 936 q 332 884 379 936 q 285 721 285 832 l 285 518 l 565 518 l 565 456 l 285 456 l 285 281 q 271 180 285 221 q 234 114 257 139 q 182 74 211 89 l 732 74 l 732 0 l 51 0 l 51 68 q 134 103 100 78 q 187 172 168 128 q 206 279 206 215 l 206 456 l 65 456 l 65 518 l 206 518 l 206 729 q 238 881 206 819 q 329 973 269 942 q 471 1004 389 1004 z "},"¤":{"ha":793,"x_min":81,"x_max":710,"o":"m 121 492 q 136 581 121 538 q 181 661 151 625 l 81 763 l 125 806 l 225 707 q 306 752 261 738 q 396 767 350 767 q 487 752 443 767 q 567 707 531 738 l 667 806 l 710 761 l 613 661 q 656 582 640 626 q 672 492 672 538 q 657 401 672 444 q 613 321 642 357 l 710 221 l 667 176 l 567 275 q 487 232 531 247 q 396 217 443 217 q 306 232 350 217 q 225 276 261 247 l 125 178 l 82 221 l 181 321 q 136 401 151 357 q 121 492 121 444 m 183 492 q 212 383 183 431 q 289 306 240 335 q 396 278 338 278 q 504 307 456 278 q 582 385 553 336 q 611 492 611 433 q 582 600 611 551 q 505 678 553 649 q 397 707 457 707 q 289 678 338 707 q 212 600 240 649 q 183 492 183 551 z "},"¥":{"ha":793,"x_min":28,"x_max":765,"o":"m 397 488 l 679 992 l 765 992 l 460 460 l 663 460 l 663 399 l 436 399 l 436 264 l 663 264 l 663 203 l 436 203 l 436 0 l 358 0 l 358 203 l 131 203 l 131 264 l 358 264 l 358 399 l 131 399 l 131 460 l 332 460 l 28 992 l 114 992 l 397 488 z "},"¦":{"ha":754,"x_min":342,"x_max":410,"o":"m 342 1058 l 410 1058 l 410 538 l 342 538 l 342 1058 m 342 179 l 410 179 l 410 -342 l 342 -342 l 342 179 z "},"§":{"ha":717,"x_min":86,"x_max":608,"o":"m 104 549 q 142 660 104 618 q 233 725 179 703 q 144 785 178 750 q 110 882 110 821 q 178 1011 110 964 q 368 1058 246 1058 q 493 1047 439 1058 q 594 1015 547 1035 l 568 951 q 474 983 525 971 q 364 994 424 994 q 229 966 274 994 q 185 883 185 938 q 207 824 185 847 q 272 783 229 801 q 376 743 314 765 q 495 695 443 721 q 578 631 547 669 q 608 531 608 593 q 574 416 608 463 q 493 343 540 369 q 574 283 543 319 q 604 190 604 247 q 531 48 604 100 q 321 -4 458 -4 q 187 9 246 -4 q 86 42 128 22 l 86 114 q 158 86 119 99 q 238 67 196 74 q 324 60 281 60 q 481 96 435 60 q 528 185 528 132 q 506 247 528 222 q 442 292 485 272 q 331 335 399 313 q 213 383 264 358 q 133 447 161 408 q 104 549 104 486 m 174 556 q 197 483 174 513 q 264 433 219 454 q 372 390 308 413 l 429 371 q 506 431 475 393 q 538 522 538 468 q 514 595 538 565 q 439 649 490 625 q 306 696 388 674 q 213 647 251 682 q 174 556 174 613 z "},"¨":{"ha":803,"x_min":222,"x_max":579,"o":"m 222 944 q 235 985 222 971 q 271 1000 249 1000 q 308 985 296 1000 q 321 944 321 971 q 308 903 321 918 q 271 888 296 888 q 235 903 249 888 q 222 944 222 918 m 481 944 q 494 985 481 971 q 529 1000 507 1000 q 567 985 554 1000 q 579 944 579 971 q 567 903 579 918 q 529 888 554 888 q 494 903 507 888 q 481 944 481 918 z "},"©":{"ha":1156,"x_min":69,"x_max":1088,"o":"m 601 192 q 396 272 469 192 q 322 496 322 351 q 357 655 322 586 q 456 762 392 724 q 607 800 519 800 q 701 790 660 800 q 781 761 743 779 l 753 703 q 684 728 719 719 q 608 738 649 738 q 453 673 511 738 q 396 496 396 608 q 451 316 396 378 q 604 254 506 254 q 682 262 644 254 q 757 285 719 269 l 757 224 q 687 201 724 210 q 601 192 650 192 m 578 -12 q 374 26 467 -12 q 213 135 281 65 q 107 297 144 204 q 69 496 69 389 q 108 699 69 606 q 217 860 147 792 q 378 967 286 929 q 578 1004 471 1004 q 779 965 686 1004 q 941 855 872 925 q 1049 693 1010 785 q 1088 496 1088 601 q 1049 296 1088 389 q 940 134 1010 203 q 778 26 871 65 q 578 -12 686 -12 m 578 42 q 756 77 674 42 q 899 175 838 113 q 995 319 961 238 q 1029 496 1029 401 q 996 671 1029 589 q 901 816 963 753 q 758 915 840 879 q 578 950 676 950 q 399 916 481 950 q 256 820 317 882 q 160 676 194 758 q 126 496 126 593 q 159 321 126 403 q 252 176 192 239 q 395 78 313 114 q 578 42 478 42 z "},"ª":{"ha":472,"x_min":51,"x_max":400,"o":"m 240 1003 q 360 966 321 1003 q 400 856 400 929 l 400 550 l 351 550 l 340 611 q 283 563 319 582 q 193 543 246 543 q 118 557 150 543 q 69 600 86 571 q 51 672 51 629 q 74 749 51 718 q 147 795 97 779 q 269 814 196 811 l 339 817 l 339 854 q 311 928 339 906 q 239 950 283 950 q 168 940 201 950 q 103 914 135 931 l 81 965 q 156 992 115 982 q 240 1003 197 1003 m 274 765 q 151 740 188 763 q 114 672 114 718 q 138 615 114 633 q 204 596 161 596 q 306 631 274 596 q 339 728 339 667 l 339 768 l 274 765 z "},"«":{"ha":624,"x_min":46,"x_max":579,"o":"m 46 386 l 268 656 l 324 622 l 131 378 l 324 133 l 268 100 l 46 368 l 46 386 m 301 386 l 525 656 l 579 622 l 386 378 l 579 133 l 525 100 l 301 368 l 301 386 z "},"¬":{"ha":793,"x_min":74,"x_max":707,"o":"m 707 524 l 707 181 l 642 181 l 642 457 l 74 457 l 74 524 l 707 524 z "},"­":{"ha":447,"x_min":56,"x_max":392,"o":"m 56 339 l 56 411 l 392 411 l 392 339 l 56 339 z "},"®":{"ha":1156,"x_min":69,"x_max":1088,"o":"m 401 196 l 401 794 l 572 794 q 726 753 672 794 q 779 622 779 711 q 744 516 779 556 q 660 460 708 476 l 819 196 l 738 196 l 593 442 l 471 442 l 471 196 l 401 196 m 568 500 q 669 531 629 500 q 708 621 708 561 q 672 707 708 681 q 568 733 635 733 l 471 733 l 471 500 l 568 500 m 578 -12 q 374 26 467 -12 q 213 135 281 65 q 107 297 144 204 q 69 496 69 389 q 108 699 69 606 q 217 860 147 792 q 378 967 286 929 q 578 1004 471 1004 q 779 965 686 1004 q 941 855 872 925 q 1049 693 1010 785 q 1088 496 1088 601 q 1049 296 1088 389 q 940 134 1010 203 q 778 26 871 65 q 578 -12 686 -12 m 578 42 q 756 77 674 42 q 899 175 838 113 q 995 319 961 238 q 1029 496 1029 401 q 996 671 1029 589 q 901 816 963 753 q 758 915 840 879 q 578 950 676 950 q 399 916 481 950 q 256 820 317 882 q 160 676 194 758 q 126 496 126 593 q 159 321 126 403 q 252 176 192 239 q 395 78 313 114 q 578 42 478 42 z "},"¯":{"ha":694,"x_min":-4,"x_max":699,"o":"m 699 1056 l -4 1056 l -4 1119 l 699 1119 l 699 1056 z "},"°":{"ha":594,"x_min":88,"x_max":507,"o":"m 297 596 q 189 622 236 596 q 115 694 142 647 q 88 801 88 740 q 115 908 88 863 q 189 980 142 954 q 297 1006 236 1006 q 406 980 358 1006 q 481 908 454 954 q 507 801 507 863 q 481 694 507 740 q 406 622 454 647 q 297 596 358 596 m 297 654 q 405 695 367 654 q 443 801 443 736 q 404 908 443 868 q 297 949 365 949 q 190 908 228 949 q 151 801 151 868 q 190 695 151 736 q 297 654 228 654 z "},"±":{"ha":793,"x_min":74,"x_max":719,"o":"m 74 0 l 74 67 l 719 67 l 719 0 l 74 0 m 429 525 l 719 525 l 719 460 l 429 460 l 429 165 l 363 165 l 363 460 l 74 460 l 74 525 l 363 525 l 363 821 l 429 821 l 429 525 z "},"²":{"ha":471,"x_min":36,"x_max":426,"o":"m 426 578 l 36 578 l 36 631 l 201 796 q 287 885 254 849 q 335 954 319 922 q 350 1022 350 986 q 320 1101 350 1072 q 235 1129 290 1129 q 157 1114 193 1129 q 83 1071 121 1099 l 50 1117 q 135 1168 89 1150 q 236 1186 182 1186 q 370 1142 322 1186 q 418 1025 418 1099 q 398 939 418 978 q 340 859 378 900 q 250 765 303 818 l 122 639 l 426 639 l 426 578 z "},"³":{"ha":471,"x_min":31,"x_max":435,"o":"m 233 1183 q 369 1143 321 1183 q 418 1035 418 1103 q 388 942 418 978 q 315 893 358 906 l 315 889 q 403 842 371 878 q 435 749 435 807 q 377 618 435 667 q 208 569 319 569 q 114 579 158 569 q 31 607 69 589 l 31 669 q 119 638 75 650 q 208 626 164 626 q 326 660 288 626 q 365 750 365 693 q 325 833 365 807 q 206 860 285 860 l 119 860 l 119 915 l 206 915 q 313 946 276 915 q 350 1029 350 976 q 318 1101 350 1076 q 233 1126 286 1126 q 147 1112 186 1126 q 69 1074 108 1097 l 38 1121 q 126 1167 79 1150 q 233 1183 174 1183 z "},"´":{"ha":368,"x_min":56,"x_max":313,"o":"m 313 1053 q 274 1003 297 1031 q 222 947 250 976 q 166 891 194 918 q 111 842 138 864 l 56 842 l 56 854 q 113 919 82 882 q 172 996 143 957 q 218 1064 201 1035 l 313 1064 l 313 1053 z "},"µ":{"ha":836,"x_min":122,"x_max":714,"o":"m 714 739 l 714 0 l 649 0 l 636 115 l 632 115 q 581 49 611 78 q 506 3 551 19 q 396 -14 461 -14 q 275 10 322 -14 q 201 74 228 35 l 197 74 q 199 34 199 57 q 200 -15 200 11 q 200 -71 200 -42 l 200 -333 l 122 -333 l 122 739 l 200 739 l 200 261 q 249 106 200 158 q 400 54 299 54 q 539 88 488 54 q 613 184 590 121 q 635 336 635 247 l 635 739 l 714 739 z "},"¶":{"ha":910,"x_min":104,"x_max":740,"o":"m 740 -176 l 682 -176 l 682 1000 l 518 1000 l 518 -176 l 460 -176 l 460 436 q 414 427 439 431 q 361 424 389 424 q 223 459 281 424 q 135 565 165 494 q 104 740 104 636 q 137 921 104 851 q 232 1023 169 990 q 382 1056 294 1056 l 740 1056 l 740 -176 z "},"·":{"ha":339,"x_min":110,"x_max":232,"o":"m 110 464 q 126 515 110 497 q 169 532 142 532 q 216 515 200 532 q 232 464 232 497 q 216 412 232 429 q 169 394 200 394 q 126 412 142 394 q 110 464 110 429 z "},"¸":{"ha":290,"x_min":17,"x_max":272,"o":"m 272 -197 q 224 -297 272 -260 q 92 -333 176 -333 q 49 -331 68 -333 q 17 -325 31 -329 l 17 -271 q 51 -276 32 -275 q 93 -278 71 -278 q 175 -259 144 -278 q 206 -199 206 -240 q 170 -140 206 -158 q 71 -118 135 -122 l 132 0 l 189 0 l 149 -82 q 213 -100 185 -86 q 257 -138 242 -114 q 272 -197 272 -162 z "},"¹":{"ha":471,"x_min":51,"x_max":301,"o":"m 301 1172 l 301 578 l 233 578 l 233 964 q 234 1014 233 989 q 235 1063 235 1039 q 238 1108 236 1086 q 199 1081 218 1094 q 154 1053 179 1068 l 83 1008 l 51 1058 l 236 1172 l 301 1172 z "},"º":{"ha":506,"x_min":49,"x_max":461,"o":"m 461 774 q 407 604 461 668 q 253 540 353 540 q 103 603 158 540 q 49 774 49 667 q 104 944 49 883 q 257 1006 160 1006 q 368 976 322 1006 q 438 895 414 947 q 461 774 461 843 m 111 774 q 146 642 111 690 q 254 594 181 594 q 363 643 329 594 q 397 774 397 692 q 364 903 397 854 q 256 951 331 951 q 147 906 183 951 q 111 774 111 860 z "},"»":{"ha":624,"x_min":46,"x_max":578,"o":"m 578 369 l 354 100 l 300 133 l 493 378 l 300 622 l 354 656 l 578 388 l 578 369 m 322 369 l 100 100 l 46 133 l 238 378 l 46 622 l 100 656 l 322 388 l 322 369 z "},"¼":{"ha":1003,"x_min":35,"x_max":990,"o":"m 190 0 l 751 992 l 822 992 l 261 0 l 190 0 m 217 783 q 217 833 217 808 q 219 882 218 858 q 221 928 219 906 q 182 901 201 914 q 138 872 163 888 l 67 828 l 35 878 l 219 992 l 285 992 l 285 397 l 217 397 l 217 783 m 826 0 l 826 158 l 550 158 l 550 207 l 826 599 l 896 599 l 896 217 l 990 217 l 990 158 l 896 158 l 896 0 l 826 0 m 621 217 l 826 217 l 826 394 q 827 460 826 426 q 829 522 828 493 q 803 480 819 504 q 772 433 788 456 l 621 217 z "},"½":{"ha":1053,"x_min":26,"x_max":1007,"o":"m 169 0 l 731 992 l 801 992 l 240 0 l 169 0 m 208 783 q 209 822 208 803 q 210 858 210 840 q 210 894 210 876 q 213 928 211 913 q 174 901 193 914 q 129 872 154 888 l 58 828 l 26 878 l 211 992 l 276 992 l 276 397 l 208 397 l 208 783 m 617 0 l 617 53 l 782 218 q 869 308 836 271 q 917 376 901 344 q 932 444 932 408 q 901 523 932 494 q 817 551 871 551 q 738 536 774 551 q 665 493 703 521 l 632 539 q 717 590 671 572 q 817 608 763 608 q 951 565 903 608 q 1000 447 1000 521 q 980 361 1000 400 q 922 281 960 322 q 831 188 885 240 l 703 61 l 1007 61 l 1007 0 l 617 0 z "},"¾":{"ha":1069,"x_min":29,"x_max":1057,"o":"m 263 0 l 824 992 l 894 992 l 333 0 l 263 0 m 207 389 q 113 399 157 389 q 29 426 68 408 l 29 489 q 118 458 74 469 q 207 446 163 446 q 325 479 286 446 q 364 569 364 513 q 324 653 364 626 q 204 679 283 679 l 118 679 l 118 735 l 204 735 q 312 765 275 735 q 349 849 349 796 q 317 921 349 896 q 232 946 285 946 q 146 931 185 946 q 68 893 107 917 l 36 940 q 125 986 78 969 q 232 1003 172 1003 q 368 963 319 1003 q 417 854 417 922 q 387 761 417 797 q 314 713 357 725 l 314 708 q 401 662 369 697 q 433 568 433 626 q 376 438 433 486 q 207 389 318 389 m 893 0 l 893 158 l 617 158 l 617 207 l 893 599 l 963 599 l 963 217 l 1057 217 l 1057 158 l 963 158 l 963 0 l 893 0 m 688 217 l 893 217 l 893 394 q 894 460 893 426 q 896 522 894 493 q 870 480 886 504 q 839 433 854 456 l 688 217 z "},"¿":{"ha":589,"x_min":46,"x_max":554,"o":"m 392 451 q 382 350 392 392 q 347 275 372 308 q 275 206 322 242 q 190 133 224 165 q 140 64 156 100 q 124 -25 124 28 q 176 -153 124 -111 q 318 -196 229 -196 q 428 -181 378 -196 q 526 -143 478 -167 l 554 -210 q 440 -251 497 -236 q 314 -267 383 -267 q 117 -204 189 -267 q 46 -26 46 -142 q 67 85 46 39 q 128 170 89 132 q 219 247 168 208 q 284 309 261 281 q 317 373 307 338 q 326 458 326 408 l 326 479 l 392 479 l 392 451 m 415 686 q 400 635 415 651 q 356 618 385 618 q 310 635 325 618 q 294 686 294 651 q 310 737 294 719 q 356 754 325 754 q 400 737 385 754 q 415 686 415 719 z "},"À":{"ha":844,"x_min":0,"x_max":844,"o":"m 760 0 l 628 342 l 217 342 l 83 0 l 0 0 l 390 996 l 464 996 l 844 0 l 760 0 m 471 772 q 457 810 465 786 q 440 860 449 833 q 425 907 432 886 q 410 858 418 883 q 394 811 403 833 q 381 771 386 789 l 243 415 l 603 415 l 471 772 m 368 1317 q 414 1249 386 1288 q 474 1172 442 1210 q 531 1107 506 1135 l 531 1094 l 475 1094 q 421 1144 450 1117 q 364 1200 392 1171 q 313 1256 336 1229 q 274 1306 289 1283 l 274 1317 l 368 1317 z "},"Á":{"ha":844,"x_min":0,"x_max":844,"o":"m 760 0 l 628 342 l 217 342 l 83 0 l 0 0 l 390 996 l 464 996 l 844 0 l 760 0 m 471 772 q 457 810 465 786 q 440 860 449 833 q 425 907 432 886 q 410 858 418 883 q 394 811 403 833 q 381 771 386 789 l 243 415 l 603 415 l 471 772 m 611 1306 q 572 1256 596 1283 q 521 1200 549 1229 q 465 1144 493 1171 q 410 1094 436 1117 l 354 1094 l 354 1107 q 411 1172 381 1135 q 471 1249 442 1210 q 517 1317 500 1288 l 611 1317 l 611 1306 z "},"Â":{"ha":844,"x_min":0,"x_max":844,"o":"m 760 0 l 628 342 l 217 342 l 83 0 l 0 0 l 390 996 l 464 996 l 844 0 l 760 0 m 471 772 q 457 810 465 786 q 440 860 449 833 q 425 907 432 886 q 410 858 418 883 q 394 811 403 833 q 381 771 386 789 l 243 415 l 603 415 l 471 772 m 461 1315 q 507 1248 478 1286 q 569 1172 536 1210 q 626 1107 601 1135 l 626 1094 l 569 1094 q 493 1165 532 1125 q 421 1244 454 1206 q 349 1166 388 1206 q 274 1094 311 1126 l 217 1094 l 217 1107 q 275 1172 243 1135 q 336 1248 307 1210 q 383 1315 365 1286 l 461 1315 z "},"Ã":{"ha":844,"x_min":0,"x_max":844,"o":"m 760 0 l 628 342 l 217 342 l 83 0 l 0 0 l 390 996 l 464 996 l 844 0 l 760 0 m 471 772 q 457 810 465 786 q 440 860 449 833 q 425 907 432 886 q 410 858 418 883 q 394 811 403 833 q 381 771 386 789 l 243 415 l 603 415 l 471 772 m 182 1103 q 197 1171 186 1142 q 225 1219 207 1200 q 267 1249 243 1239 q 321 1260 290 1260 q 380 1246 353 1260 q 431 1214 407 1232 q 479 1182 456 1196 q 528 1168 503 1168 q 581 1188 558 1168 q 611 1261 603 1208 l 663 1261 q 619 1144 656 1186 q 524 1103 583 1103 q 465 1117 492 1103 q 415 1149 439 1131 q 367 1181 390 1167 q 317 1194 343 1194 q 265 1174 286 1194 q 235 1103 243 1154 l 182 1103 z "},"Ä":{"ha":844,"x_min":0,"x_max":844,"o":"m 760 0 l 628 342 l 217 342 l 83 0 l 0 0 l 390 996 l 464 996 l 844 0 l 760 0 m 471 772 q 457 810 465 786 q 440 860 449 833 q 425 907 432 886 q 410 858 418 883 q 394 811 403 833 q 381 771 386 789 l 243 415 l 603 415 l 471 772 m 244 1197 q 258 1238 244 1224 q 293 1253 271 1253 q 331 1238 318 1253 q 343 1197 343 1224 q 331 1156 343 1171 q 293 1140 318 1140 q 258 1156 271 1140 q 244 1197 244 1171 m 503 1197 q 516 1238 503 1224 q 551 1253 529 1253 q 589 1238 576 1253 q 601 1197 601 1224 q 589 1156 601 1171 q 551 1140 576 1140 q 516 1156 529 1140 q 503 1197 503 1171 z "},"Å":{"ha":844,"x_min":0,"x_max":844,"o":"m 760 0 l 628 342 l 217 342 l 83 0 l 0 0 l 390 996 l 464 996 l 844 0 l 760 0 m 471 772 q 457 810 465 786 q 440 860 449 833 q 425 907 432 886 q 410 858 418 883 q 394 811 403 833 q 381 771 386 789 l 243 415 l 603 415 l 471 772 m 424 947 q 320 985 363 947 q 278 1090 278 1024 q 319 1193 278 1154 q 424 1232 361 1232 q 528 1192 485 1232 q 571 1090 571 1153 q 528 986 571 1025 q 424 947 486 947 m 424 999 q 490 1024 465 999 q 515 1090 515 1050 q 489 1156 515 1131 q 424 1182 463 1182 q 358 1156 385 1182 q 332 1090 332 1131 q 357 1024 332 1050 q 424 999 382 999 z "},"Æ":{"ha":1142,"x_min":-1,"x_max":1092,"o":"m 1092 0 l 565 0 l 565 342 l 239 342 l 85 0 l -1 0 l 447 992 l 1092 992 l 1092 919 l 646 919 l 646 557 l 1064 557 l 1064 485 l 646 485 l 646 72 l 1092 72 l 1092 0 m 271 414 l 565 414 l 565 919 l 496 919 l 271 414 z "},"Ç":{"ha":865,"x_min":86,"x_max":822,"o":"m 561 933 q 397 902 469 933 q 274 813 324 871 q 197 676 224 756 q 171 499 171 596 q 213 266 171 365 q 339 113 256 167 q 547 58 422 58 q 681 69 621 58 q 794 99 742 81 l 794 28 q 682 -3 743 8 q 539 -14 621 -14 q 288 50 389 -14 q 137 229 188 114 q 86 499 86 344 q 118 702 86 610 q 211 863 150 794 q 360 968 272 931 q 563 1006 449 1006 q 701 992 635 1006 q 822 951 767 978 l 790 881 q 681 920 738 907 q 561 933 624 933 m 633 -197 q 585 -297 633 -260 q 453 -333 538 -333 q 410 -331 429 -333 q 378 -325 392 -329 l 378 -271 q 413 -276 393 -275 q 454 -278 432 -278 q 536 -259 506 -278 q 567 -199 567 -240 q 531 -140 567 -158 q 432 -118 496 -122 l 493 0 l 550 0 l 510 -82 q 574 -100 546 -86 q 618 -138 603 -114 q 633 -197 633 -162 z "},"È":{"ha":768,"x_min":139,"x_max":683,"o":"m 683 0 l 139 0 l 139 992 l 683 992 l 683 919 l 219 919 l 219 557 l 657 557 l 657 485 l 219 485 l 219 72 l 683 72 l 683 0 m 369 1317 q 415 1249 388 1288 q 475 1172 443 1210 q 532 1107 507 1135 l 532 1094 l 476 1094 q 422 1144 451 1117 q 365 1200 393 1171 q 314 1256 338 1229 q 275 1306 290 1283 l 275 1317 l 369 1317 z "},"É":{"ha":768,"x_min":139,"x_max":683,"o":"m 683 0 l 139 0 l 139 992 l 683 992 l 683 919 l 219 919 l 219 557 l 657 557 l 657 485 l 219 485 l 219 72 l 683 72 l 683 0 m 614 1306 q 575 1256 599 1283 q 524 1200 551 1229 q 467 1144 496 1171 q 413 1094 439 1117 l 357 1094 l 357 1107 q 414 1172 383 1135 q 474 1249 444 1210 q 519 1317 503 1288 l 614 1317 l 614 1306 z "},"Ê":{"ha":768,"x_min":139,"x_max":683,"o":"m 683 0 l 139 0 l 139 992 l 683 992 l 683 919 l 219 919 l 219 557 l 657 557 l 657 485 l 219 485 l 219 72 l 683 72 l 683 0 m 464 1315 q 510 1248 481 1286 q 572 1172 539 1210 q 629 1107 604 1135 l 629 1094 l 572 1094 q 496 1165 535 1125 q 424 1244 457 1206 q 352 1166 390 1206 q 276 1094 314 1126 l 219 1094 l 219 1107 q 278 1172 246 1135 q 339 1248 310 1210 q 386 1315 368 1286 l 464 1315 z "},"Ë":{"ha":768,"x_min":139,"x_max":683,"o":"m 683 0 l 139 0 l 139 992 l 683 992 l 683 919 l 219 919 l 219 557 l 657 557 l 657 485 l 219 485 l 219 72 l 683 72 l 683 0 m 247 1197 q 260 1238 247 1224 q 296 1253 274 1253 q 333 1238 321 1253 q 346 1197 346 1224 q 333 1156 346 1171 q 296 1140 321 1140 q 260 1156 274 1140 q 247 1197 247 1171 m 506 1197 q 519 1238 506 1224 q 554 1253 532 1253 q 592 1238 579 1253 q 604 1197 604 1224 q 592 1156 604 1171 q 554 1140 579 1140 q 519 1156 532 1140 q 506 1197 506 1171 z "},"Ì":{"ha":432,"x_min":68,"x_max":363,"o":"m 363 0 l 71 0 l 71 50 l 176 65 l 176 925 l 71 942 l 71 992 l 363 992 l 363 942 l 257 925 l 257 65 l 363 50 l 363 0 m 163 1317 q 208 1249 181 1288 q 268 1172 236 1210 q 325 1107 300 1135 l 325 1094 l 269 1094 q 215 1144 244 1117 q 158 1200 186 1171 q 107 1256 131 1229 q 68 1306 83 1283 l 68 1317 l 163 1317 z "},"Í":{"ha":432,"x_min":71,"x_max":407,"o":"m 363 0 l 71 0 l 71 50 l 176 65 l 176 925 l 71 942 l 71 992 l 363 992 l 363 942 l 257 925 l 257 65 l 363 50 l 363 0 m 407 1306 q 368 1256 392 1283 q 317 1200 344 1229 q 260 1144 289 1171 q 206 1094 232 1117 l 150 1094 l 150 1107 q 207 1172 176 1135 q 267 1249 238 1210 q 313 1317 296 1288 l 407 1317 l 407 1306 z "},"Î":{"ha":432,"x_min":13,"x_max":422,"o":"m 363 0 l 71 0 l 71 50 l 176 65 l 176 925 l 71 942 l 71 992 l 363 992 l 363 942 l 257 925 l 257 65 l 363 50 l 363 0 m 257 1315 q 303 1248 274 1286 q 365 1172 332 1210 q 422 1107 397 1135 l 422 1094 l 365 1094 q 289 1165 328 1125 q 217 1244 250 1206 q 145 1166 183 1206 q 69 1094 107 1126 l 13 1094 l 13 1107 q 71 1172 39 1135 q 132 1248 103 1210 q 179 1315 161 1286 l 257 1315 z "},"Ï":{"ha":432,"x_min":39,"x_max":396,"o":"m 363 0 l 71 0 l 71 50 l 176 65 l 176 925 l 71 942 l 71 992 l 363 992 l 363 942 l 257 925 l 257 65 l 363 50 l 363 0 m 40 1197 q 53 1238 40 1224 q 89 1253 67 1253 q 126 1238 114 1253 q 139 1197 139 1224 q 126 1156 139 1171 q 89 1140 114 1140 q 53 1156 67 1140 q 40 1197 40 1171 m 299 1197 q 312 1238 299 1224 q 347 1253 325 1253 q 385 1238 372 1253 q 397 1197 397 1224 q 385 1156 397 1171 q 347 1140 372 1140 q 312 1156 325 1140 q 299 1197 299 1171 z "},"Ð":{"ha":988,"x_min":33,"x_max":901,"o":"m 415 992 q 679 936 571 992 q 844 773 788 881 q 901 506 901 665 q 842 226 901 339 q 668 57 783 114 q 383 0 553 0 l 144 0 l 144 457 l 33 457 l 33 528 l 144 528 l 144 992 l 415 992 m 399 921 l 225 921 l 225 528 l 492 528 l 492 457 l 225 457 l 225 71 l 378 71 q 708 179 599 71 q 817 503 817 288 q 770 735 817 643 q 631 874 724 828 q 399 921 539 921 z "},"Ñ":{"ha":1013,"x_min":139,"x_max":874,"o":"m 874 0 l 788 0 l 213 867 l 208 867 q 212 792 211 831 q 214 712 213 753 q 215 626 215 671 l 215 0 l 139 0 l 139 992 l 225 992 l 799 128 l 803 128 q 800 197 801 157 q 798 281 799 238 q 797 363 797 325 l 797 992 l 874 992 l 874 0 m 267 1103 q 281 1171 271 1142 q 310 1219 292 1200 q 351 1249 328 1239 q 406 1260 375 1260 q 465 1246 438 1260 q 516 1214 492 1232 q 564 1182 540 1196 q 613 1168 588 1168 q 665 1188 643 1168 q 696 1261 688 1208 l 747 1261 q 704 1144 740 1186 q 608 1103 668 1103 q 550 1117 576 1103 q 499 1149 524 1131 q 451 1181 475 1167 q 401 1194 428 1194 q 349 1174 371 1194 q 319 1103 328 1154 l 267 1103 z "},"Ò":{"ha":1067,"x_min":86,"x_max":979,"o":"m 979 497 q 951 290 979 383 q 867 128 924 197 q 728 23 811 60 q 533 -14 644 -14 q 337 24 421 -14 q 197 129 253 61 q 114 291 142 197 q 86 499 86 385 q 137 765 86 650 q 288 943 188 879 q 538 1007 389 1007 q 779 945 681 1007 q 928 769 878 883 q 979 497 979 656 m 171 499 q 210 267 171 367 q 330 113 249 168 q 533 58 411 58 q 738 113 658 58 q 856 266 818 167 q 894 497 894 365 q 805 819 894 704 q 538 935 715 935 q 332 881 414 935 q 210 728 250 826 q 171 499 171 629 m 479 1317 q 525 1249 497 1288 q 585 1172 553 1210 q 642 1107 617 1135 l 642 1094 l 586 1094 q 532 1144 561 1117 q 475 1200 503 1171 q 424 1256 447 1229 q 385 1306 400 1283 l 385 1317 l 479 1317 z "},"Ó":{"ha":1067,"x_min":86,"x_max":979,"o":"m 979 497 q 951 290 979 383 q 867 128 924 197 q 728 23 811 60 q 533 -14 644 -14 q 337 24 421 -14 q 197 129 253 61 q 114 291 142 197 q 86 499 86 385 q 137 765 86 650 q 288 943 188 879 q 538 1007 389 1007 q 779 945 681 1007 q 928 769 878 883 q 979 497 979 656 m 171 499 q 210 267 171 367 q 330 113 249 168 q 533 58 411 58 q 738 113 658 58 q 856 266 818 167 q 894 497 894 365 q 805 819 894 704 q 538 935 715 935 q 332 881 414 935 q 210 728 250 826 q 171 499 171 629 m 724 1306 q 685 1256 708 1283 q 633 1200 661 1229 q 577 1144 606 1171 q 522 1094 549 1117 l 467 1094 l 467 1107 q 524 1172 493 1135 q 583 1249 554 1210 q 629 1317 613 1288 l 724 1317 l 724 1306 z "},"Ô":{"ha":1067,"x_min":86,"x_max":979,"o":"m 979 497 q 951 290 979 383 q 867 128 924 197 q 728 23 811 60 q 533 -14 644 -14 q 337 24 421 -14 q 197 129 253 61 q 114 291 142 197 q 86 499 86 385 q 137 765 86 650 q 288 943 188 879 q 538 1007 389 1007 q 779 945 681 1007 q 928 769 878 883 q 979 497 979 656 m 171 499 q 210 267 171 367 q 330 113 249 168 q 533 58 411 58 q 738 113 658 58 q 856 266 818 167 q 894 497 894 365 q 805 819 894 704 q 538 935 715 935 q 332 881 414 935 q 210 728 250 826 q 171 499 171 629 m 574 1315 q 619 1248 590 1286 q 681 1172 649 1210 q 739 1107 714 1135 l 739 1094 l 682 1094 q 606 1165 644 1125 q 533 1244 567 1206 q 462 1166 500 1206 q 386 1094 424 1126 l 329 1094 l 329 1107 q 388 1172 356 1135 q 449 1248 419 1210 q 496 1315 478 1286 l 574 1315 z "},"Õ":{"ha":1067,"x_min":86,"x_max":979,"o":"m 979 497 q 951 290 979 383 q 867 128 924 197 q 728 23 811 60 q 533 -14 644 -14 q 337 24 421 -14 q 197 129 253 61 q 114 291 142 197 q 86 499 86 385 q 137 765 86 650 q 288 943 188 879 q 538 1007 389 1007 q 779 945 681 1007 q 928 769 878 883 q 979 497 979 656 m 171 499 q 210 267 171 367 q 330 113 249 168 q 533 58 411 58 q 738 113 658 58 q 856 266 818 167 q 894 497 894 365 q 805 819 894 704 q 538 935 715 935 q 332 881 414 935 q 210 728 250 826 q 171 499 171 629 m 294 1103 q 309 1171 299 1142 q 338 1219 319 1200 q 379 1249 356 1239 q 433 1260 403 1260 q 492 1246 465 1260 q 544 1214 519 1232 q 592 1182 568 1196 q 640 1168 615 1168 q 693 1188 671 1168 q 724 1261 715 1208 l 775 1261 q 732 1144 768 1186 q 636 1103 696 1103 q 578 1117 604 1103 q 527 1149 551 1131 q 479 1181 503 1167 q 429 1194 456 1194 q 377 1174 399 1194 q 347 1103 356 1154 l 294 1103 z "},"Ö":{"ha":1067,"x_min":86,"x_max":979,"o":"m 979 497 q 951 290 979 383 q 867 128 924 197 q 728 23 811 60 q 533 -14 644 -14 q 337 24 421 -14 q 197 129 253 61 q 114 291 142 197 q 86 499 86 385 q 137 765 86 650 q 288 943 188 879 q 538 1007 389 1007 q 779 945 681 1007 q 928 769 878 883 q 979 497 979 656 m 171 499 q 210 267 171 367 q 330 113 249 168 q 533 58 411 58 q 738 113 658 58 q 856 266 818 167 q 894 497 894 365 q 805 819 894 704 q 538 935 715 935 q 332 881 414 935 q 210 728 250 826 q 171 499 171 629 m 357 1197 q 370 1238 357 1224 q 406 1253 383 1253 q 443 1238 431 1253 q 456 1197 456 1224 q 443 1156 456 1171 q 406 1140 431 1140 q 370 1156 383 1140 q 357 1197 357 1171 m 615 1197 q 628 1238 615 1224 q 664 1253 642 1253 q 701 1238 689 1253 q 714 1197 714 1224 q 701 1156 714 1171 q 664 1140 689 1140 q 628 1156 642 1140 q 615 1197 615 1171 z "},"×":{"ha":793,"x_min":94,"x_max":699,"o":"m 651 793 l 699 746 l 443 490 l 697 236 l 651 189 l 396 443 l 143 189 l 94 236 l 349 490 l 94 744 l 142 793 l 396 538 l 651 793 z "},"Ø":{"ha":1067,"x_min":86,"x_max":979,"o":"m 979 497 q 951 290 979 383 q 867 128 924 197 q 728 23 811 60 q 533 -14 644 -14 q 382 8 450 -14 q 263 69 314 29 l 183 -39 l 126 -1 l 210 114 q 117 281 149 183 q 86 499 86 379 q 137 765 86 650 q 288 943 188 879 q 538 1007 389 1007 q 682 987 617 1007 q 799 931 747 967 l 872 1032 l 928 993 l 850 886 q 946 722 913 821 q 979 497 979 624 m 894 497 q 803 819 894 707 l 306 132 q 406 78 349 97 q 533 58 463 58 q 738 113 658 58 q 856 266 818 167 q 894 497 894 365 m 171 499 q 192 321 171 401 q 258 182 214 240 l 754 868 q 659 917 714 900 q 538 935 604 935 q 332 881 414 935 q 210 728 250 826 q 171 499 171 629 z "},"Ù":{"ha":1003,"x_min":129,"x_max":874,"o":"m 874 350 q 830 156 874 238 q 702 30 786 74 q 499 -14 618 -14 q 224 83 319 -14 q 129 353 129 181 l 129 992 l 210 992 l 210 353 q 285 133 210 208 q 503 58 360 58 q 662 92 597 58 q 760 190 726 126 q 794 344 794 254 l 794 992 l 874 992 l 874 350 m 447 1317 q 493 1249 465 1288 q 553 1172 521 1210 q 610 1107 585 1135 l 610 1094 l 554 1094 q 500 1144 529 1117 q 443 1200 471 1171 q 392 1256 415 1229 q 353 1306 368 1283 l 353 1317 l 447 1317 z "},"Ú":{"ha":1003,"x_min":129,"x_max":874,"o":"m 874 350 q 830 156 874 238 q 702 30 786 74 q 499 -14 618 -14 q 224 83 319 -14 q 129 353 129 181 l 129 992 l 210 992 l 210 353 q 285 133 210 208 q 503 58 360 58 q 662 92 597 58 q 760 190 726 126 q 794 344 794 254 l 794 992 l 874 992 l 874 350 m 692 1306 q 653 1256 676 1283 q 601 1200 629 1229 q 545 1144 574 1171 q 490 1094 517 1117 l 435 1094 l 435 1107 q 492 1172 461 1135 q 551 1249 522 1210 q 597 1317 581 1288 l 692 1317 l 692 1306 z "},"Û":{"ha":1003,"x_min":129,"x_max":874,"o":"m 874 350 q 830 156 874 238 q 702 30 786 74 q 499 -14 618 -14 q 224 83 319 -14 q 129 353 129 181 l 129 992 l 210 992 l 210 353 q 285 133 210 208 q 503 58 360 58 q 662 92 597 58 q 760 190 726 126 q 794 344 794 254 l 794 992 l 874 992 l 874 350 m 542 1315 q 588 1248 558 1286 q 649 1172 617 1210 q 707 1107 682 1135 l 707 1094 l 650 1094 q 574 1165 613 1125 q 501 1244 535 1206 q 430 1166 468 1206 q 354 1094 392 1126 l 297 1094 l 297 1107 q 356 1172 324 1135 q 417 1248 388 1210 q 464 1315 446 1286 l 542 1315 z "},"Ü":{"ha":1003,"x_min":129,"x_max":874,"o":"m 874 350 q 830 156 874 238 q 702 30 786 74 q 499 -14 618 -14 q 224 83 319 -14 q 129 353 129 181 l 129 992 l 210 992 l 210 353 q 285 133 210 208 q 503 58 360 58 q 662 92 597 58 q 760 190 726 126 q 794 344 794 254 l 794 992 l 874 992 l 874 350 m 325 1197 q 338 1238 325 1224 q 374 1253 351 1253 q 411 1238 399 1253 q 424 1197 424 1224 q 411 1156 424 1171 q 374 1140 399 1140 q 338 1156 351 1140 q 325 1197 325 1171 m 583 1197 q 597 1238 583 1224 q 632 1253 610 1253 q 669 1238 657 1253 q 682 1197 682 1224 q 669 1156 682 1171 q 632 1140 657 1140 q 597 1156 610 1140 q 583 1197 583 1171 z "},"Ý":{"ha":744,"x_min":0,"x_max":744,"o":"m 372 461 l 656 992 l 744 992 l 414 383 l 414 0 l 333 0 l 333 378 l 0 992 l 89 992 l 372 461 m 563 1306 q 524 1256 547 1283 q 472 1200 500 1229 q 416 1144 444 1171 q 361 1094 388 1117 l 306 1094 l 306 1107 q 363 1172 332 1135 q 422 1249 393 1210 q 468 1317 451 1288 l 563 1317 l 563 1306 z "},"Þ":{"ha":818,"x_min":139,"x_max":744,"o":"m 744 531 q 722 406 744 461 q 653 310 700 350 q 535 249 607 271 q 364 228 464 228 l 219 228 l 219 0 l 139 0 l 139 992 l 219 992 l 219 814 l 392 814 q 660 743 575 814 q 744 531 744 672 m 356 299 q 522 320 454 299 q 626 392 590 342 q 661 528 661 443 q 595 692 661 640 q 382 743 529 743 l 219 743 l 219 299 l 356 299 z "},"ß":{"ha":824,"x_min":121,"x_max":757,"o":"m 668 871 q 649 787 668 821 q 601 728 629 753 q 543 683 572 704 q 494 637 514 661 q 475 578 475 613 q 488 529 475 550 q 528 487 500 508 q 601 435 556 465 q 682 373 647 404 q 737 301 717 342 q 757 200 757 260 q 728 85 757 133 q 644 12 699 38 q 513 -14 589 -14 q 401 -1 447 -14 q 318 29 354 11 l 318 103 q 376 78 346 89 q 441 60 407 67 q 510 53 475 53 q 637 92 596 53 q 678 196 678 131 q 663 270 678 239 q 620 327 649 301 q 547 382 592 353 q 465 443 499 415 q 415 502 432 471 q 397 575 397 533 q 417 651 397 621 q 465 704 436 682 q 521 748 493 726 q 568 797 549 769 q 588 867 588 825 q 540 962 588 929 q 408 994 492 994 q 298 974 344 994 q 226 910 251 953 q 200 797 200 867 l 200 0 l 121 0 l 121 797 q 156 947 121 889 q 257 1034 192 1006 q 408 1063 322 1063 q 547 1040 489 1063 q 637 975 606 1018 q 668 871 668 932 z "},"à":{"ha":744,"x_min":65,"x_max":631,"o":"m 383 751 q 569 691 508 751 q 631 497 631 631 l 631 0 l 571 0 l 557 125 l 553 125 q 492 52 526 83 q 410 3 458 21 q 294 -14 363 -14 q 172 10 224 -14 q 93 81 121 35 q 65 193 65 126 q 156 362 65 304 q 418 426 246 419 l 553 433 l 553 485 q 509 640 553 594 q 381 685 465 685 q 271 670 324 685 q 165 629 218 656 l 140 693 q 255 735 193 718 q 383 751 317 751 m 428 368 q 218 319 288 361 q 149 193 149 276 q 191 89 149 125 q 308 53 233 53 q 488 119 425 53 q 553 301 551 185 l 553 374 l 428 368 m 319 1064 q 365 996 338 1035 q 425 919 393 957 q 482 854 457 882 l 482 842 l 426 842 q 372 891 401 864 q 315 947 343 918 q 264 1003 288 976 q 225 1053 240 1031 l 225 1064 l 319 1064 z "},"á":{"ha":744,"x_min":65,"x_max":631,"o":"m 383 751 q 569 691 508 751 q 631 497 631 631 l 631 0 l 571 0 l 557 125 l 553 125 q 492 52 526 83 q 410 3 458 21 q 294 -14 363 -14 q 172 10 224 -14 q 93 81 121 35 q 65 193 65 126 q 156 362 65 304 q 418 426 246 419 l 553 433 l 553 485 q 509 640 553 594 q 381 685 465 685 q 271 670 324 685 q 165 629 218 656 l 140 693 q 255 735 193 718 q 383 751 317 751 m 428 368 q 218 319 288 361 q 149 193 149 276 q 191 89 149 125 q 308 53 233 53 q 488 119 425 53 q 553 301 551 185 l 553 374 l 428 368 m 563 1053 q 524 1003 547 1031 q 472 947 500 976 q 416 891 444 918 q 361 842 388 864 l 306 842 l 306 854 q 363 919 332 882 q 422 996 393 957 q 468 1064 451 1035 l 563 1064 l 563 1053 z "},"â":{"ha":744,"x_min":65,"x_max":631,"o":"m 383 751 q 569 691 508 751 q 631 497 631 631 l 631 0 l 571 0 l 557 125 l 553 125 q 492 52 526 83 q 410 3 458 21 q 294 -14 363 -14 q 172 10 224 -14 q 93 81 121 35 q 65 193 65 126 q 156 362 65 304 q 418 426 246 419 l 553 433 l 553 485 q 509 640 553 594 q 381 685 465 685 q 271 670 324 685 q 165 629 218 656 l 140 693 q 255 735 193 718 q 383 751 317 751 m 428 368 q 218 319 288 361 q 149 193 149 276 q 191 89 149 125 q 308 53 233 53 q 488 119 425 53 q 553 301 551 185 l 553 374 l 428 368 m 413 1063 q 458 995 429 1033 q 520 919 488 957 q 578 854 553 882 l 578 842 l 521 842 q 444 913 483 872 q 372 992 406 953 q 301 913 339 953 q 225 842 263 874 l 168 842 l 168 854 q 226 919 194 882 q 288 995 258 957 q 335 1063 317 1033 l 413 1063 z "},"ã":{"ha":744,"x_min":65,"x_max":631,"o":"m 383 751 q 569 691 508 751 q 631 497 631 631 l 631 0 l 571 0 l 557 125 l 553 125 q 492 52 526 83 q 410 3 458 21 q 294 -14 363 -14 q 172 10 224 -14 q 93 81 121 35 q 65 193 65 126 q 156 362 65 304 q 418 426 246 419 l 553 433 l 553 485 q 509 640 553 594 q 381 685 465 685 q 271 670 324 685 q 165 629 218 656 l 140 693 q 255 735 193 718 q 383 751 317 751 m 428 368 q 218 319 288 361 q 149 193 149 276 q 191 89 149 125 q 308 53 233 53 q 488 119 425 53 q 553 301 551 185 l 553 374 l 428 368 m 133 850 q 148 918 138 889 q 176 967 158 947 q 218 997 194 986 q 272 1007 242 1007 q 331 993 304 1007 q 383 961 358 979 q 431 929 407 943 q 479 915 454 915 q 532 935 510 915 q 563 1008 554 956 l 614 1008 q 571 892 607 933 q 475 850 535 850 q 417 864 443 850 q 366 896 390 878 q 318 928 342 914 q 268 942 294 942 q 216 922 238 942 q 186 850 194 901 l 133 850 z "},"ä":{"ha":744,"x_min":65,"x_max":631,"o":"m 383 751 q 569 691 508 751 q 631 497 631 631 l 631 0 l 571 0 l 557 125 l 553 125 q 492 52 526 83 q 410 3 458 21 q 294 -14 363 -14 q 172 10 224 -14 q 93 81 121 35 q 65 193 65 126 q 156 362 65 304 q 418 426 246 419 l 553 433 l 553 485 q 509 640 553 594 q 381 685 465 685 q 271 670 324 685 q 165 629 218 656 l 140 693 q 255 735 193 718 q 383 751 317 751 m 428 368 q 218 319 288 361 q 149 193 149 276 q 191 89 149 125 q 308 53 233 53 q 488 119 425 53 q 553 301 551 185 l 553 374 l 428 368 m 196 944 q 209 985 196 971 q 244 1000 222 1000 q 282 985 269 1000 q 294 944 294 971 q 282 903 294 918 q 244 888 269 888 q 209 903 222 888 q 196 944 196 918 m 454 944 q 467 985 454 971 q 503 1000 481 1000 q 540 985 528 1000 q 553 944 553 971 q 540 903 553 918 q 503 888 528 888 q 467 903 481 888 q 454 944 454 918 z "},"å":{"ha":744,"x_min":65,"x_max":631,"o":"m 383 751 q 569 691 508 751 q 631 497 631 631 l 631 0 l 571 0 l 557 125 l 553 125 q 492 52 526 83 q 410 3 458 21 q 294 -14 363 -14 q 172 10 224 -14 q 93 81 121 35 q 65 193 65 126 q 156 362 65 304 q 418 426 246 419 l 553 433 l 553 485 q 509 640 553 594 q 381 685 465 685 q 271 670 324 685 q 165 629 218 656 l 140 693 q 255 735 193 718 q 383 751 317 751 m 428 368 q 218 319 288 361 q 149 193 149 276 q 191 89 149 125 q 308 53 233 53 q 488 119 425 53 q 553 301 551 185 l 553 374 l 428 368 m 372 846 q 269 884 311 846 q 226 989 226 922 q 268 1092 226 1053 q 372 1131 310 1131 q 476 1091 433 1131 q 519 989 519 1051 q 477 885 519 924 q 372 846 435 846 m 372 897 q 439 923 414 897 q 464 989 464 949 q 438 1055 464 1029 q 372 1081 411 1081 q 307 1055 333 1081 q 281 989 281 1029 q 306 923 281 949 q 372 897 331 897 z "},"æ":{"ha":1190,"x_min":65,"x_max":1115,"o":"m 839 753 q 990 709 928 753 q 1083 590 1051 665 q 1113 415 1115 514 l 1113 360 l 617 360 q 682 133 618 210 q 860 56 746 56 q 974 67 925 56 q 1082 106 1024 79 l 1082 33 q 975 -2 1028 10 q 858 -14 922 -14 q 732 9 788 -14 q 638 74 676 32 q 575 172 599 115 q 514 75 550 117 q 424 10 478 33 q 296 -14 371 -14 q 174 10 225 -14 q 94 81 122 35 q 65 193 65 126 q 105 317 65 268 q 221 394 144 367 q 407 426 297 422 l 536 433 l 536 486 q 492 640 536 594 q 368 685 449 685 q 261 670 314 685 q 156 629 208 656 l 131 693 q 247 735 183 719 q 372 751 310 751 q 519 712 464 751 q 593 586 574 672 q 688 707 626 661 q 839 753 750 753 m 418 368 q 216 319 283 361 q 149 193 149 276 q 190 89 149 125 q 306 53 232 53 q 429 83 378 53 q 508 168 481 113 q 535 301 535 224 l 535 374 l 418 368 m 838 686 q 688 619 747 686 q 619 425 629 553 l 1029 425 q 1009 562 1031 503 q 945 653 988 621 q 838 686 903 686 z "},"ç":{"ha":661,"x_min":79,"x_max":618,"o":"m 418 -14 q 235 31 311 -14 q 119 161 158 76 q 79 365 79 246 q 124 577 79 490 q 249 708 169 664 q 435 753 328 753 q 535 743 488 753 q 618 717 582 733 l 596 649 q 515 673 558 664 q 433 682 472 682 q 285 644 346 682 q 193 535 225 606 q 161 367 161 464 q 189 205 161 275 q 273 96 217 135 q 418 57 329 57 q 522 68 474 57 q 608 96 569 79 l 608 25 q 526 -3 572 8 q 418 -14 479 -14 m 514 -197 q 466 -297 514 -260 q 333 -333 418 -333 q 291 -331 310 -333 q 258 -325 272 -329 l 258 -271 q 293 -276 274 -275 q 335 -278 313 -278 q 417 -259 386 -278 q 447 -199 447 -240 q 412 -140 447 -158 q 313 -118 376 -122 l 374 0 l 431 0 l 390 -82 q 455 -100 426 -86 q 499 -138 483 -114 q 514 -197 514 -162 z "},"è":{"ha":767,"x_min":79,"x_max":689,"o":"m 403 753 q 561 709 497 753 q 657 589 625 665 q 689 414 689 513 l 689 360 l 161 360 q 231 134 163 213 q 426 56 299 56 q 546 67 494 56 q 658 106 597 79 l 658 33 q 549 -2 604 10 q 424 -14 494 -14 q 235 32 313 -14 q 119 163 158 78 q 79 364 79 249 q 117 565 79 476 q 228 703 156 653 q 403 753 300 753 m 401 686 q 238 619 300 686 q 164 425 175 551 l 607 425 q 585 561 607 503 q 517 653 563 619 q 401 686 472 686 m 332 1064 q 378 996 350 1035 q 438 919 406 957 q 494 854 469 882 l 494 842 l 439 842 q 385 891 414 864 q 328 947 356 918 q 276 1003 300 976 q 238 1053 253 1031 l 238 1064 l 332 1064 z "},"é":{"ha":767,"x_min":79,"x_max":689,"o":"m 403 753 q 561 709 497 753 q 657 589 625 665 q 689 414 689 513 l 689 360 l 161 360 q 231 134 163 213 q 426 56 299 56 q 546 67 494 56 q 658 106 597 79 l 658 33 q 549 -2 604 10 q 424 -14 494 -14 q 235 32 313 -14 q 119 163 158 78 q 79 364 79 249 q 117 565 79 476 q 228 703 156 653 q 403 753 300 753 m 401 686 q 238 619 300 686 q 164 425 175 551 l 607 425 q 585 561 607 503 q 517 653 563 619 q 401 686 472 686 m 575 1053 q 536 1003 560 1031 q 485 947 513 976 q 428 891 457 918 q 374 842 400 864 l 318 842 l 318 854 q 375 919 344 882 q 435 996 406 957 q 481 1064 464 1035 l 575 1064 l 575 1053 z "},"ê":{"ha":767,"x_min":79,"x_max":689,"o":"m 403 753 q 561 709 497 753 q 657 589 625 665 q 689 414 689 513 l 689 360 l 161 360 q 231 134 163 213 q 426 56 299 56 q 546 67 494 56 q 658 106 597 79 l 658 33 q 549 -2 604 10 q 424 -14 494 -14 q 235 32 313 -14 q 119 163 158 78 q 79 364 79 249 q 117 565 79 476 q 228 703 156 653 q 403 753 300 753 m 401 686 q 238 619 300 686 q 164 425 175 551 l 607 425 q 585 561 607 503 q 517 653 563 619 q 401 686 472 686 m 425 1063 q 471 995 442 1033 q 533 919 500 957 q 590 854 565 882 l 590 842 l 533 842 q 457 913 496 872 q 385 992 418 953 q 313 913 351 953 q 238 842 275 874 l 181 842 l 181 854 q 239 919 207 882 q 300 995 271 957 q 347 1063 329 1033 l 425 1063 z "},"ë":{"ha":767,"x_min":79,"x_max":689,"o":"m 403 753 q 561 709 497 753 q 657 589 625 665 q 689 414 689 513 l 689 360 l 161 360 q 231 134 163 213 q 426 56 299 56 q 546 67 494 56 q 658 106 597 79 l 658 33 q 549 -2 604 10 q 424 -14 494 -14 q 235 32 313 -14 q 119 163 158 78 q 79 364 79 249 q 117 565 79 476 q 228 703 156 653 q 403 753 300 753 m 401 686 q 238 619 300 686 q 164 425 175 551 l 607 425 q 585 561 607 503 q 517 653 563 619 q 401 686 472 686 m 208 944 q 222 985 208 971 q 257 1000 235 1000 q 294 985 282 1000 q 307 944 307 971 q 294 903 307 918 q 257 888 282 888 q 222 903 235 888 q 208 944 208 918 m 467 944 q 480 985 467 971 q 515 1000 493 1000 q 553 985 540 1000 q 565 944 565 971 q 553 903 565 918 q 515 888 540 888 q 480 903 493 888 q 467 944 467 918 z "},"ì":{"ha":324,"x_min":14,"x_max":271,"o":"m 201 0 l 122 0 l 122 739 l 201 739 l 201 0 m 108 1064 q 154 996 126 1035 q 214 919 182 957 q 271 854 246 882 l 271 842 l 215 842 q 161 891 190 864 q 104 947 132 918 q 53 1003 76 976 q 14 1053 29 1031 l 14 1064 l 108 1064 z "},"í":{"ha":324,"x_min":94,"x_max":351,"o":"m 201 0 l 122 0 l 122 739 l 201 739 l 201 0 m 351 1053 q 313 1003 336 1031 q 261 947 289 976 q 205 891 233 918 q 150 842 176 864 l 94 842 l 94 854 q 151 919 121 882 q 211 996 182 957 q 257 1064 240 1035 l 351 1064 l 351 1053 z "},"î":{"ha":324,"x_min":-43,"x_max":367,"o":"m 201 0 l 122 0 l 122 739 l 201 739 l 201 0 m 201 1063 q 247 995 218 1033 q 309 919 276 957 q 367 854 342 882 l 367 842 l 310 842 q 233 913 272 872 q 161 992 194 953 q 90 913 128 953 q 14 842 51 874 l -43 842 l -43 854 q 15 919 -17 882 q 76 995 47 957 q 124 1063 106 1033 l 201 1063 z "},"ï":{"ha":324,"x_min":-15,"x_max":342,"o":"m 201 0 l 122 0 l 122 739 l 201 739 l 201 0 m -15 944 q -2 985 -15 971 q 33 1000 11 1000 q 71 985 58 1000 q 83 944 83 971 q 71 903 83 918 q 33 888 58 888 q -2 903 11 888 q -15 944 -15 918 m 243 944 q 256 985 243 971 q 292 1000 269 1000 q 329 985 317 1000 q 342 944 342 971 q 329 903 342 918 q 292 888 317 888 q 256 903 269 888 q 243 944 243 918 z "},"ð":{"ha":806,"x_min":78,"x_max":726,"o":"m 292 1057 q 383 1010 340 1035 q 461 957 425 985 l 617 1050 l 651 999 l 511 915 q 627 767 579 850 q 701 587 675 683 q 726 381 726 490 q 689 172 726 261 q 578 35 651 83 q 400 -14 506 -14 q 229 27 301 -14 q 117 142 157 68 q 78 317 78 217 q 118 496 78 421 q 230 611 158 571 q 396 651 301 651 q 496 640 453 651 q 572 609 539 629 q 626 560 604 589 l 631 561 q 562 734 610 651 q 447 878 514 817 l 267 772 l 232 824 l 394 919 q 330 963 365 942 q 258 1001 294 983 l 292 1057 m 404 585 q 273 553 328 585 q 188 462 218 522 q 158 315 158 401 q 187 176 158 235 q 269 85 215 117 q 401 54 324 54 q 584 135 522 54 q 646 372 646 217 q 633 447 646 410 q 593 516 621 485 q 519 566 565 547 q 404 585 474 585 z "},"ñ":{"ha":828,"x_min":122,"x_max":713,"o":"m 453 753 q 646 688 579 753 q 713 483 713 624 l 713 0 l 635 0 l 635 478 q 586 635 635 585 q 444 685 538 685 q 262 614 322 685 q 201 403 201 543 l 201 0 l 122 0 l 122 739 l 186 739 l 197 611 l 203 611 q 258 685 224 653 q 342 735 293 717 q 453 753 390 753 m 175 850 q 190 918 179 889 q 218 967 200 947 q 260 997 236 986 q 314 1007 283 1007 q 373 993 346 1007 q 424 961 400 979 q 472 929 449 943 q 521 915 496 915 q 574 935 551 915 q 604 1008 596 956 l 656 1008 q 613 892 649 933 q 517 850 576 850 q 458 864 485 850 q 408 896 432 878 q 360 928 383 914 q 310 942 336 942 q 258 922 279 942 q 228 850 236 901 l 175 850 z "},"ò":{"ha":819,"x_min":79,"x_max":740,"o":"m 740 371 q 719 213 740 283 q 655 92 697 143 q 551 14 613 42 q 408 -14 489 -14 q 271 13 332 -14 q 167 91 210 40 q 102 213 125 142 q 79 371 79 283 q 119 576 79 490 q 235 707 160 661 q 414 753 310 753 q 593 705 521 753 q 703 572 665 657 q 740 371 740 486 m 161 371 q 188 205 161 276 q 270 94 215 133 q 410 54 325 54 q 551 94 496 54 q 632 205 606 133 q 658 371 658 276 q 633 533 658 463 q 554 644 608 604 q 413 685 500 685 q 224 601 288 685 q 161 371 161 518 m 357 1064 q 403 996 375 1035 q 463 919 431 957 q 519 854 494 882 l 519 842 l 464 842 q 410 891 439 864 q 353 947 381 918 q 301 1003 325 976 q 263 1053 278 1031 l 263 1064 l 357 1064 z "},"ó":{"ha":819,"x_min":79,"x_max":740,"o":"m 740 371 q 719 213 740 283 q 655 92 697 143 q 551 14 613 42 q 408 -14 489 -14 q 271 13 332 -14 q 167 91 210 40 q 102 213 125 142 q 79 371 79 283 q 119 576 79 490 q 235 707 160 661 q 414 753 310 753 q 593 705 521 753 q 703 572 665 657 q 740 371 740 486 m 161 371 q 188 205 161 276 q 270 94 215 133 q 410 54 325 54 q 551 94 496 54 q 632 205 606 133 q 658 371 658 276 q 633 533 658 463 q 554 644 608 604 q 413 685 500 685 q 224 601 288 685 q 161 371 161 518 m 600 1053 q 561 1003 585 1031 q 510 947 538 976 q 453 891 482 918 q 399 842 425 864 l 343 842 l 343 854 q 400 919 369 882 q 460 996 431 957 q 506 1064 489 1035 l 600 1064 l 600 1053 z "},"ô":{"ha":819,"x_min":79,"x_max":740,"o":"m 740 371 q 719 213 740 283 q 655 92 697 143 q 551 14 613 42 q 408 -14 489 -14 q 271 13 332 -14 q 167 91 210 40 q 102 213 125 142 q 79 371 79 283 q 119 576 79 490 q 235 707 160 661 q 414 753 310 753 q 593 705 521 753 q 703 572 665 657 q 740 371 740 486 m 161 371 q 188 205 161 276 q 270 94 215 133 q 410 54 325 54 q 551 94 496 54 q 632 205 606 133 q 658 371 658 276 q 633 533 658 463 q 554 644 608 604 q 413 685 500 685 q 224 601 288 685 q 161 371 161 518 m 450 1063 q 496 995 467 1033 q 558 919 525 957 q 615 854 590 882 l 615 842 l 558 842 q 482 913 521 872 q 410 992 443 953 q 338 913 376 953 q 263 842 300 874 l 206 842 l 206 854 q 264 919 232 882 q 325 995 296 957 q 372 1063 354 1033 l 450 1063 z "},"õ":{"ha":819,"x_min":79,"x_max":740,"o":"m 740 371 q 719 213 740 283 q 655 92 697 143 q 551 14 613 42 q 408 -14 489 -14 q 271 13 332 -14 q 167 91 210 40 q 102 213 125 142 q 79 371 79 283 q 119 576 79 490 q 235 707 160 661 q 414 753 310 753 q 593 705 521 753 q 703 572 665 657 q 740 371 740 486 m 161 371 q 188 205 161 276 q 270 94 215 133 q 410 54 325 54 q 551 94 496 54 q 632 205 606 133 q 658 371 658 276 q 633 533 658 463 q 554 644 608 604 q 413 685 500 685 q 224 601 288 685 q 161 371 161 518 m 171 850 q 185 918 175 889 q 214 967 196 947 q 256 997 232 986 q 310 1007 279 1007 q 369 993 342 1007 q 420 961 396 979 q 468 929 444 943 q 517 915 492 915 q 569 935 547 915 q 600 1008 592 956 l 651 1008 q 608 892 644 933 q 513 850 572 850 q 454 864 481 850 q 403 896 428 878 q 356 928 379 914 q 306 942 332 942 q 253 922 275 942 q 224 850 232 901 l 171 850 z "},"ö":{"ha":819,"x_min":79,"x_max":740,"o":"m 740 371 q 719 213 740 283 q 655 92 697 143 q 551 14 613 42 q 408 -14 489 -14 q 271 13 332 -14 q 167 91 210 40 q 102 213 125 142 q 79 371 79 283 q 119 576 79 490 q 235 707 160 661 q 414 753 310 753 q 593 705 521 753 q 703 572 665 657 q 740 371 740 486 m 161 371 q 188 205 161 276 q 270 94 215 133 q 410 54 325 54 q 551 94 496 54 q 632 205 606 133 q 658 371 658 276 q 633 533 658 463 q 554 644 608 604 q 413 685 500 685 q 224 601 288 685 q 161 371 161 518 m 233 944 q 247 985 233 971 q 282 1000 260 1000 q 319 985 307 1000 q 332 944 332 971 q 319 903 332 918 q 282 888 307 888 q 247 903 260 888 q 233 944 233 918 m 492 944 q 505 985 492 971 q 540 1000 518 1000 q 578 985 565 1000 q 590 944 590 971 q 578 903 590 918 q 540 888 565 888 q 505 903 518 888 q 492 944 492 918 z "},"÷":{"ha":793,"x_min":74,"x_max":719,"o":"m 74 457 l 74 524 l 719 524 l 719 457 l 74 457 m 396 185 q 354 201 369 185 q 339 249 339 217 q 354 296 339 281 q 396 311 369 311 q 438 296 424 311 q 453 249 453 281 q 438 201 453 217 q 396 185 424 185 m 396 668 q 354 685 369 668 q 339 732 339 701 q 354 780 339 764 q 396 796 369 796 q 438 780 424 796 q 453 732 453 764 q 438 685 453 701 q 396 668 424 668 z "},"ø":{"ha":819,"x_min":79,"x_max":740,"o":"m 740 371 q 702 169 740 256 q 590 34 664 82 q 408 -14 517 -14 q 297 4 346 -14 q 208 54 247 22 l 135 -42 l 82 -3 l 161 99 q 100 219 121 150 q 79 371 79 288 q 169 651 79 550 q 414 753 258 753 q 522 736 474 753 q 608 690 571 719 l 676 779 l 731 742 l 657 646 q 719 526 697 596 q 740 371 740 456 m 161 371 q 172 256 161 308 q 207 164 183 204 l 565 632 q 499 671 538 657 q 413 685 461 685 q 224 601 288 685 q 161 371 161 518 m 658 371 q 647 487 658 433 q 610 581 635 540 l 251 111 q 320 69 281 85 q 410 54 360 54 q 551 94 496 54 q 632 205 606 133 q 658 371 658 276 z "},"ù":{"ha":828,"x_min":113,"x_max":704,"o":"m 704 739 l 704 0 l 640 0 l 628 126 l 624 126 q 569 54 604 86 q 485 4 533 22 q 372 -14 436 -14 q 229 16 288 -14 q 142 106 171 46 q 113 256 113 165 l 113 739 l 192 739 l 192 263 q 240 106 192 157 q 382 54 288 54 q 517 86 464 54 q 598 181 571 118 q 625 336 625 243 l 625 739 l 704 739 m 360 1064 q 406 996 378 1035 q 465 919 433 957 q 522 854 497 882 l 522 842 l 467 842 q 413 891 442 864 q 356 947 383 918 q 304 1003 328 976 q 265 1053 281 1031 l 265 1064 l 360 1064 z "},"ú":{"ha":828,"x_min":113,"x_max":704,"o":"m 704 739 l 704 0 l 640 0 l 628 126 l 624 126 q 569 54 604 86 q 485 4 533 22 q 372 -14 436 -14 q 229 16 288 -14 q 142 106 171 46 q 113 256 113 165 l 113 739 l 192 739 l 192 263 q 240 106 192 157 q 382 54 288 54 q 517 86 464 54 q 598 181 571 118 q 625 336 625 243 l 625 739 l 704 739 m 604 1053 q 565 1003 589 1031 q 514 947 542 976 q 458 891 486 918 q 403 842 429 864 l 347 842 l 347 854 q 404 919 374 882 q 464 996 435 957 q 510 1064 493 1035 l 604 1064 l 604 1053 z "},"û":{"ha":828,"x_min":113,"x_max":704,"o":"m 704 739 l 704 0 l 640 0 l 628 126 l 624 126 q 569 54 604 86 q 485 4 533 22 q 372 -14 436 -14 q 229 16 288 -14 q 142 106 171 46 q 113 256 113 165 l 113 739 l 192 739 l 192 263 q 240 106 192 157 q 382 54 288 54 q 517 86 464 54 q 598 181 571 118 q 625 336 625 243 l 625 739 l 704 739 m 454 1063 q 500 995 471 1033 q 562 919 529 957 q 619 854 594 882 l 619 842 l 563 842 q 486 913 525 872 q 414 992 447 953 q 342 913 381 953 q 267 842 304 874 l 210 842 l 210 854 q 268 919 236 882 q 329 995 300 957 q 376 1063 358 1033 l 454 1063 z "},"ü":{"ha":828,"x_min":113,"x_max":704,"o":"m 704 739 l 704 0 l 640 0 l 628 126 l 624 126 q 569 54 604 86 q 485 4 533 22 q 372 -14 436 -14 q 229 16 288 -14 q 142 106 171 46 q 113 256 113 165 l 113 739 l 192 739 l 192 263 q 240 106 192 157 q 382 54 288 54 q 517 86 464 54 q 598 181 571 118 q 625 336 625 243 l 625 739 l 704 739 m 238 944 q 251 985 238 971 q 286 1000 264 1000 q 324 985 311 1000 q 336 944 336 971 q 324 903 336 918 q 286 888 311 888 q 251 903 264 888 q 238 944 238 918 m 496 944 q 509 985 496 971 q 544 1000 522 1000 q 582 985 569 1000 q 594 944 594 971 q 582 903 594 918 q 544 888 569 888 q 509 903 522 888 q 496 944 496 918 z "},"ý":{"ha":651,"x_min":1,"x_max":653,"o":"m 1 739 l 85 739 l 261 281 q 289 204 276 239 q 311 140 301 169 q 326 85 321 110 l 331 85 q 358 168 340 118 q 396 278 375 218 l 568 739 l 653 739 l 319 -131 q 265 -242 296 -196 q 193 -311 235 -287 q 92 -335 151 -335 q 44 -331 65 -335 q 4 -322 22 -328 l 4 -256 q 40 -265 21 -261 q 82 -268 60 -268 q 151 -252 122 -268 q 201 -203 179 -236 q 243 -121 224 -171 l 290 3 l 1 739 m 515 1053 q 476 1003 500 1031 q 425 947 453 976 q 369 891 397 918 q 314 842 340 864 l 258 842 l 258 854 q 315 919 285 882 q 375 996 346 957 q 421 1064 404 1035 l 515 1064 l 515 1053 z "},"þ":{"ha":832,"x_min":122,"x_max":754,"o":"m 754 374 q 717 162 754 249 q 610 31 679 75 q 447 -14 542 -14 q 333 6 382 -14 q 253 57 285 25 q 201 128 221 89 l 196 128 q 199 81 197 108 q 201 28 200 54 q 201 -21 201 1 l 201 -328 l 122 -328 l 122 1056 l 201 1056 l 201 738 q 201 671 201 711 q 199 604 200 631 l 203 604 q 254 678 221 644 q 337 733 288 713 q 454 753 386 753 q 675 657 596 753 q 754 374 754 561 m 672 375 q 615 608 672 531 q 443 685 558 685 q 262 607 319 685 q 203 385 204 529 l 203 369 q 260 133 203 213 q 438 54 317 54 q 566 91 514 54 q 645 199 618 128 q 672 375 672 271 z "},"ÿ":{"ha":651,"x_min":1,"x_max":653,"o":"m 1 739 l 85 739 l 261 281 q 289 204 276 239 q 311 140 301 169 q 326 85 321 110 l 331 85 q 358 168 340 118 q 396 278 375 218 l 568 739 l 653 739 l 319 -131 q 265 -242 296 -196 q 193 -311 235 -287 q 92 -335 151 -335 q 44 -331 65 -335 q 4 -322 22 -328 l 4 -256 q 40 -265 21 -261 q 82 -268 60 -268 q 151 -252 122 -268 q 201 -203 179 -236 q 243 -121 224 -171 l 290 3 l 1 739 m 149 944 q 162 985 149 971 q 197 1000 175 1000 q 235 985 222 1000 q 247 944 247 971 q 235 903 247 918 q 197 888 222 888 q 162 903 175 888 q 149 944 149 918 m 407 944 q 420 985 407 971 q 456 1000 433 1000 q 493 985 481 1000 q 506 944 506 971 q 493 903 506 918 q 456 888 481 888 q 420 903 433 888 q 407 944 407 918 z "},"Ā":{"ha":844,"x_min":0,"x_max":844,"o":"m 760 0 l 628 342 l 217 342 l 83 0 l 0 0 l 390 996 l 464 996 l 844 0 l 760 0 m 471 772 q 457 810 465 786 q 440 860 449 833 q 425 907 432 886 q 410 858 418 883 q 394 811 403 833 q 381 771 386 789 l 243 415 l 603 415 l 471 772 m 614 1167 l 614 1100 l 231 1100 l 231 1167 l 614 1167 z "},"ā":{"ha":744,"x_min":65,"x_max":631,"o":"m 383 751 q 569 691 508 751 q 631 497 631 631 l 631 0 l 571 0 l 557 125 l 553 125 q 492 52 526 83 q 410 3 458 21 q 294 -14 363 -14 q 172 10 224 -14 q 93 81 121 35 q 65 193 65 126 q 156 362 65 304 q 418 426 246 419 l 553 433 l 553 485 q 509 640 553 594 q 381 685 465 685 q 271 670 324 685 q 165 629 218 656 l 140 693 q 255 735 193 718 q 383 751 317 751 m 428 368 q 218 319 288 361 q 149 193 149 276 q 191 89 149 125 q 308 53 233 53 q 488 119 425 53 q 553 301 551 185 l 553 374 l 428 368 m 565 914 l 565 847 l 182 847 l 182 914 l 565 914 z "},"Ă":{"ha":844,"x_min":0,"x_max":844,"o":"m 760 0 l 628 342 l 217 342 l 83 0 l 0 0 l 390 996 l 464 996 l 844 0 l 760 0 m 471 772 q 457 810 465 786 q 440 860 449 833 q 425 907 432 886 q 410 858 418 883 q 394 811 403 833 q 381 771 386 789 l 243 415 l 603 415 l 471 772 m 615 1265 q 587 1174 611 1213 q 521 1115 563 1136 q 421 1094 479 1094 q 284 1140 332 1094 q 229 1265 236 1185 l 285 1265 q 305 1206 289 1229 q 351 1172 321 1182 q 422 1161 381 1161 q 492 1172 463 1161 q 538 1206 521 1183 q 560 1265 556 1229 l 615 1265 z "},"ă":{"ha":744,"x_min":65,"x_max":631,"o":"m 383 751 q 569 691 508 751 q 631 497 631 631 l 631 0 l 571 0 l 557 125 l 553 125 q 492 52 526 83 q 410 3 458 21 q 294 -14 363 -14 q 172 10 224 -14 q 93 81 121 35 q 65 193 65 126 q 156 362 65 304 q 418 426 246 419 l 553 433 l 553 485 q 509 640 553 594 q 381 685 465 685 q 271 670 324 685 q 165 629 218 656 l 140 693 q 255 735 193 718 q 383 751 317 751 m 428 368 q 218 319 288 361 q 149 193 149 276 q 191 89 149 125 q 308 53 233 53 q 488 119 425 53 q 553 301 551 185 l 553 374 l 428 368 m 567 1013 q 538 922 563 960 q 472 863 514 883 q 372 842 431 842 q 235 887 283 842 q 181 1013 188 932 l 236 1013 q 256 953 240 976 q 302 919 272 929 q 374 908 332 908 q 443 919 414 908 q 490 953 472 931 q 511 1013 507 976 l 567 1013 z "},"Ą":{"ha":844,"x_min":0,"x_max":844,"o":"m 760 0 l 628 342 l 217 342 l 83 0 l 0 0 l 390 996 l 464 996 l 844 0 l 760 0 m 471 772 q 457 810 465 786 q 440 860 449 833 q 425 907 432 886 q 410 858 418 883 q 394 811 403 833 q 381 771 386 789 l 243 415 l 603 415 l 471 772 m 706 -171 q 724 -226 706 -207 q 778 -244 743 -244 q 816 -242 799 -244 q 844 -236 833 -239 l 844 -292 q 810 -299 829 -296 q 767 -303 792 -303 q 672 -272 706 -303 q 638 -181 638 -240 q 655 -109 638 -144 q 703 -42 672 -74 q 771 18 733 -10 l 817 0 q 738 -82 769 -40 q 706 -171 706 -124 z "},"ą":{"ha":744,"x_min":65,"x_max":663,"o":"m 383 751 q 569 691 508 751 q 631 497 631 631 l 631 0 l 571 0 l 557 125 l 553 125 q 492 52 526 83 q 410 3 458 21 q 294 -14 363 -14 q 172 10 224 -14 q 93 81 121 35 q 65 193 65 126 q 156 362 65 304 q 418 426 246 419 l 553 433 l 553 485 q 509 640 553 594 q 381 685 465 685 q 271 670 324 685 q 165 629 218 656 l 140 693 q 255 735 193 718 q 383 751 317 751 m 428 368 q 218 319 288 361 q 149 193 149 276 q 191 89 149 125 q 308 53 233 53 q 488 119 425 53 q 553 301 551 185 l 553 374 l 428 368 m 525 -171 q 544 -226 525 -207 q 597 -244 563 -244 q 635 -242 618 -244 q 664 -236 653 -239 l 664 -292 q 630 -299 649 -296 q 586 -303 611 -303 q 491 -272 525 -303 q 457 -181 457 -240 q 474 -109 457 -144 q 522 -42 492 -74 q 590 18 553 -10 l 636 0 q 557 -82 589 -40 q 525 -171 525 -124 z "},"Ć":{"ha":865,"x_min":86,"x_max":822,"o":"m 561 933 q 397 902 469 933 q 274 813 324 871 q 197 676 224 756 q 171 499 171 596 q 213 266 171 365 q 339 113 256 167 q 547 58 422 58 q 681 69 621 58 q 794 99 742 81 l 794 28 q 682 -3 743 8 q 539 -14 621 -14 q 288 50 389 -14 q 137 229 188 114 q 86 499 86 344 q 118 702 86 610 q 211 863 150 794 q 360 968 272 931 q 563 1006 449 1006 q 701 992 635 1006 q 822 951 767 978 l 790 881 q 681 920 738 907 q 561 933 624 933 m 722 1306 q 683 1256 707 1283 q 632 1200 660 1229 q 576 1144 604 1171 q 521 1094 547 1117 l 465 1094 l 465 1107 q 522 1172 492 1135 q 582 1249 553 1210 q 628 1317 611 1288 l 722 1317 l 722 1306 z "},"ć":{"ha":661,"x_min":79,"x_max":618,"o":"m 418 -14 q 235 31 311 -14 q 119 161 158 76 q 79 365 79 246 q 124 577 79 490 q 249 708 169 664 q 435 753 328 753 q 535 743 488 753 q 618 717 582 733 l 596 649 q 515 673 558 664 q 433 682 472 682 q 285 644 346 682 q 193 535 225 606 q 161 367 161 464 q 189 205 161 275 q 273 96 217 135 q 418 57 329 57 q 522 68 474 57 q 608 96 569 79 l 608 25 q 526 -3 572 8 q 418 -14 479 -14 m 600 1053 q 561 1003 585 1031 q 510 947 538 976 q 453 891 482 918 q 399 842 425 864 l 343 842 l 343 854 q 400 919 369 882 q 460 996 431 957 q 506 1064 489 1035 l 600 1064 l 600 1053 z "},"Ĉ":{"ha":865,"x_min":86,"x_max":822,"o":"m 561 933 q 397 902 469 933 q 274 813 324 871 q 197 676 224 756 q 171 499 171 596 q 213 266 171 365 q 339 113 256 167 q 547 58 422 58 q 681 69 621 58 q 794 99 742 81 l 794 28 q 682 -3 743 8 q 539 -14 621 -14 q 288 50 389 -14 q 137 229 188 114 q 86 499 86 344 q 118 702 86 610 q 211 863 150 794 q 360 968 272 931 q 563 1006 449 1006 q 701 992 635 1006 q 822 951 767 978 l 790 881 q 681 920 738 907 q 561 933 624 933 m 572 1315 q 618 1248 589 1286 q 680 1172 647 1210 q 738 1107 713 1135 l 738 1094 l 681 1094 q 604 1165 643 1125 q 532 1244 565 1206 q 460 1166 499 1206 q 385 1094 422 1126 l 328 1094 l 328 1107 q 386 1172 354 1135 q 447 1248 418 1210 q 494 1315 476 1286 l 572 1315 z "},"ĉ":{"ha":661,"x_min":79,"x_max":618,"o":"m 418 -14 q 235 31 311 -14 q 119 161 158 76 q 79 365 79 246 q 124 577 79 490 q 249 708 169 664 q 435 753 328 753 q 535 743 488 753 q 618 717 582 733 l 596 649 q 515 673 558 664 q 433 682 472 682 q 285 644 346 682 q 193 535 225 606 q 161 367 161 464 q 189 205 161 275 q 273 96 217 135 q 418 57 329 57 q 522 68 474 57 q 608 96 569 79 l 608 25 q 526 -3 572 8 q 418 -14 479 -14 m 450 1063 q 496 995 467 1033 q 558 919 525 957 q 615 854 590 882 l 615 842 l 558 842 q 482 913 521 872 q 410 992 443 953 q 338 913 376 953 q 263 842 300 874 l 206 842 l 206 854 q 264 919 232 882 q 325 995 296 957 q 372 1063 354 1033 l 450 1063 z "},"Ċ":{"ha":865,"x_min":86,"x_max":822,"o":"m 561 933 q 397 902 469 933 q 274 813 324 871 q 197 676 224 756 q 171 499 171 596 q 213 266 171 365 q 339 113 256 167 q 547 58 422 58 q 681 69 621 58 q 794 99 742 81 l 794 28 q 682 -3 743 8 q 539 -14 621 -14 q 288 50 389 -14 q 137 229 188 114 q 86 499 86 344 q 118 702 86 610 q 211 863 150 794 q 360 968 272 931 q 563 1006 449 1006 q 701 992 635 1006 q 822 951 767 978 l 790 881 q 681 920 738 907 q 561 933 624 933 m 533 1265 q 574 1249 560 1265 q 588 1206 588 1233 q 574 1160 588 1176 q 533 1144 560 1144 q 493 1160 507 1144 q 479 1206 479 1176 q 493 1249 479 1233 q 533 1265 507 1265 z "},"ċ":{"ha":661,"x_min":79,"x_max":618,"o":"m 418 -14 q 235 31 311 -14 q 119 161 158 76 q 79 365 79 246 q 124 577 79 490 q 249 708 169 664 q 435 753 328 753 q 535 743 488 753 q 618 717 582 733 l 596 649 q 515 673 558 664 q 433 682 472 682 q 285 644 346 682 q 193 535 225 606 q 161 367 161 464 q 189 205 161 275 q 273 96 217 135 q 418 57 329 57 q 522 68 474 57 q 608 96 569 79 l 608 25 q 526 -3 572 8 q 418 -14 479 -14 m 411 1013 q 451 997 438 1013 q 465 953 465 981 q 451 908 465 924 q 411 892 438 892 q 371 908 385 892 q 357 953 357 924 q 371 997 357 981 q 411 1013 385 1013 z "},"Č":{"ha":865,"x_min":86,"x_max":822,"o":"m 561 933 q 397 902 469 933 q 274 813 324 871 q 197 676 224 756 q 171 499 171 596 q 213 266 171 365 q 339 113 256 167 q 547 58 422 58 q 681 69 621 58 q 794 99 742 81 l 794 28 q 682 -3 743 8 q 539 -14 621 -14 q 288 50 389 -14 q 137 229 188 114 q 86 499 86 344 q 118 702 86 610 q 211 863 150 794 q 360 968 272 931 q 563 1006 449 1006 q 701 992 635 1006 q 822 951 767 978 l 790 881 q 681 920 738 907 q 561 933 624 933 m 493 1094 q 446 1163 475 1125 q 385 1238 417 1200 q 328 1301 354 1275 l 328 1315 l 385 1315 q 460 1243 422 1283 q 531 1164 499 1203 q 603 1243 564 1203 q 681 1315 643 1283 l 738 1315 l 738 1301 q 680 1238 713 1275 q 617 1163 647 1200 q 571 1094 588 1125 l 493 1094 z "},"č":{"ha":661,"x_min":79,"x_max":618,"o":"m 418 -14 q 235 31 311 -14 q 119 161 158 76 q 79 365 79 246 q 124 577 79 490 q 249 708 169 664 q 435 753 328 753 q 535 743 488 753 q 618 717 582 733 l 596 649 q 515 673 558 664 q 433 682 472 682 q 285 644 346 682 q 193 535 225 606 q 161 367 161 464 q 189 205 161 275 q 273 96 217 135 q 418 57 329 57 q 522 68 474 57 q 608 96 569 79 l 608 25 q 526 -3 572 8 q 418 -14 479 -14 m 371 842 q 324 910 353 872 q 263 985 294 947 q 206 1049 232 1022 l 206 1063 l 263 1063 q 338 990 300 1031 q 408 911 376 950 q 481 990 442 950 q 558 1063 521 1031 l 615 1063 l 615 1049 q 558 985 590 1022 q 495 910 525 947 q 449 842 465 872 l 371 842 z "},"Ď":{"ha":988,"x_min":139,"x_max":901,"o":"m 901 506 q 842 226 901 339 q 668 57 783 114 q 385 0 553 0 l 139 0 l 139 992 l 415 992 q 681 936 572 992 q 845 773 789 881 q 901 506 901 665 m 817 503 q 771 735 817 643 q 632 874 725 828 q 399 921 539 921 l 219 921 l 219 71 l 378 71 q 708 179 599 71 q 817 503 817 288 m 451 1094 q 404 1163 433 1125 q 344 1238 375 1200 q 286 1301 313 1275 l 286 1315 l 343 1315 q 419 1243 381 1283 q 489 1164 457 1203 q 562 1243 522 1203 q 639 1315 601 1283 l 696 1315 l 696 1301 q 638 1238 671 1275 q 576 1163 606 1200 q 529 1094 546 1125 l 451 1094 z "},"ď":{"ha":832,"x_min":79,"x_max":903,"o":"m 903 1046 q 882 978 896 1015 q 850 903 868 940 q 811 833 832 865 l 767 833 l 767 846 q 782 890 774 864 q 799 947 790 917 q 813 1005 807 976 q 822 1056 819 1033 l 903 1056 l 903 1046 m 388 -14 q 159 82 239 -14 q 79 363 79 178 q 163 653 79 553 q 394 753 247 753 q 503 734 457 753 q 581 683 549 715 q 632 613 614 651 l 638 613 q 634 685 636 644 q 632 757 632 725 l 632 1056 l 711 1056 l 711 0 l 647 0 l 636 129 l 632 129 q 581 58 613 90 q 501 6 549 25 q 388 -14 454 -14 m 397 54 q 580 132 526 54 q 633 357 633 210 l 633 369 q 580 603 633 522 q 403 685 526 685 q 223 601 285 685 q 161 361 161 517 q 219 133 161 211 q 397 54 278 54 z "},"Đ":{"ha":988,"x_min":33,"x_max":901,"o":"m 415 992 q 679 936 571 992 q 844 773 788 881 q 901 506 901 665 q 842 226 901 339 q 668 57 783 114 q 383 0 553 0 l 144 0 l 144 457 l 33 457 l 33 528 l 144 528 l 144 992 l 415 992 m 399 921 l 225 921 l 225 528 l 492 528 l 492 457 l 225 457 l 225 71 l 378 71 q 708 179 599 71 q 817 503 817 288 q 770 735 817 643 q 631 874 724 828 q 399 921 539 921 z "},"đ":{"ha":833,"x_min":79,"x_max":815,"o":"m 388 -14 q 159 82 239 -14 q 79 361 79 178 q 163 652 79 553 q 393 751 247 751 q 502 733 456 751 q 581 682 549 714 q 632 610 614 650 l 638 610 q 634 683 636 643 q 632 756 632 722 l 632 858 l 317 858 l 317 921 l 632 921 l 632 1056 l 711 1056 l 711 921 l 815 921 l 815 858 l 711 858 l 711 0 l 646 0 l 636 129 l 632 129 q 580 58 613 90 q 501 6 547 25 q 388 -14 454 -14 m 399 54 q 579 132 526 54 q 632 356 632 210 l 632 369 q 579 603 632 522 q 403 683 526 683 q 224 600 285 683 q 163 360 163 517 q 220 132 163 210 q 399 54 278 54 z "},"Ē":{"ha":768,"x_min":139,"x_max":683,"o":"m 683 0 l 139 0 l 139 992 l 683 992 l 683 919 l 219 919 l 219 557 l 657 557 l 657 485 l 219 485 l 219 72 l 683 72 l 683 0 m 615 1167 l 615 1100 l 232 1100 l 232 1167 l 615 1167 z "},"ē":{"ha":767,"x_min":79,"x_max":689,"o":"m 403 753 q 561 709 497 753 q 657 589 625 665 q 689 414 689 513 l 689 360 l 161 360 q 231 134 163 213 q 426 56 299 56 q 546 67 494 56 q 658 106 597 79 l 658 33 q 549 -2 604 10 q 424 -14 494 -14 q 235 32 313 -14 q 119 163 158 78 q 79 364 79 249 q 117 565 79 476 q 228 703 156 653 q 403 753 300 753 m 401 686 q 238 619 300 686 q 164 425 175 551 l 607 425 q 585 561 607 503 q 517 653 563 619 q 401 686 472 686 m 578 914 l 578 847 l 194 847 l 194 914 l 578 914 z "},"Ĕ":{"ha":768,"x_min":139,"x_max":683,"o":"m 683 0 l 139 0 l 139 992 l 683 992 l 683 919 l 219 919 l 219 557 l 657 557 l 657 485 l 219 485 l 219 72 l 683 72 l 683 0 m 617 1265 q 588 1174 613 1213 q 522 1115 564 1136 q 422 1094 481 1094 q 285 1140 333 1094 q 231 1265 238 1185 l 286 1265 q 306 1206 290 1229 q 352 1172 322 1182 q 424 1161 382 1161 q 493 1172 464 1161 q 540 1206 522 1183 q 561 1265 557 1229 l 617 1265 z "},"ĕ":{"ha":767,"x_min":79,"x_max":689,"o":"m 403 753 q 561 709 497 753 q 657 589 625 665 q 689 414 689 513 l 689 360 l 161 360 q 231 134 163 213 q 426 56 299 56 q 546 67 494 56 q 658 106 597 79 l 658 33 q 549 -2 604 10 q 424 -14 494 -14 q 235 32 313 -14 q 119 163 158 78 q 79 364 79 249 q 117 565 79 476 q 228 703 156 653 q 403 753 300 753 m 401 686 q 238 619 300 686 q 164 425 175 551 l 607 425 q 585 561 607 503 q 517 653 563 619 q 401 686 472 686 m 579 1013 q 551 922 575 960 q 485 863 526 883 q 385 842 443 842 q 248 887 296 842 q 193 1013 200 932 l 249 1013 q 269 953 253 976 q 315 919 285 929 q 386 908 344 908 q 456 919 426 908 q 502 953 485 931 q 524 1013 519 976 l 579 1013 z "},"Ė":{"ha":768,"x_min":139,"x_max":683,"o":"m 683 0 l 139 0 l 139 992 l 683 992 l 683 919 l 219 919 l 219 557 l 657 557 l 657 485 l 219 485 l 219 72 l 683 72 l 683 0 m 425 1265 q 465 1249 451 1265 q 479 1206 479 1233 q 465 1160 479 1176 q 425 1144 451 1144 q 385 1160 399 1144 q 371 1206 371 1176 q 385 1249 371 1233 q 425 1265 399 1265 z "},"ė":{"ha":767,"x_min":79,"x_max":689,"o":"m 403 753 q 561 709 497 753 q 657 589 625 665 q 689 414 689 513 l 689 360 l 161 360 q 231 134 163 213 q 426 56 299 56 q 546 67 494 56 q 658 106 597 79 l 658 33 q 549 -2 604 10 q 424 -14 494 -14 q 235 32 313 -14 q 119 163 158 78 q 79 364 79 249 q 117 565 79 476 q 228 703 156 653 q 403 753 300 753 m 401 686 q 238 619 300 686 q 164 425 175 551 l 607 425 q 585 561 607 503 q 517 653 563 619 q 401 686 472 686 m 386 1013 q 426 997 413 1013 q 440 953 440 981 q 426 908 440 924 q 386 892 413 892 q 346 908 360 892 q 332 953 332 924 q 346 997 332 981 q 386 1013 360 1013 z "},"Ę":{"ha":768,"x_min":139,"x_max":683,"o":"m 683 0 l 139 0 l 139 992 l 683 992 l 683 919 l 219 919 l 219 557 l 657 557 l 657 485 l 219 485 l 219 72 l 683 72 l 683 0 m 538 -171 q 556 -226 538 -207 q 610 -244 575 -244 q 648 -242 631 -244 q 676 -236 665 -239 l 676 -292 q 642 -299 661 -296 q 599 -303 624 -303 q 503 -272 538 -303 q 469 -181 469 -240 q 487 -109 469 -144 q 535 -42 504 -74 q 603 18 565 -10 l 649 0 q 569 -82 601 -40 q 538 -171 538 -124 z "},"ę":{"ha":767,"x_min":79,"x_max":689,"o":"m 514 -171 q 532 -226 514 -207 q 585 -244 550 -244 q 624 -242 607 -244 q 651 -236 640 -239 l 651 -292 q 617 -299 636 -296 q 574 -303 599 -303 q 480 -272 514 -303 q 446 -181 446 -240 q 463 -108 446 -144 q 510 -38 479 -72 q 579 26 540 -4 l 651 32 q 574 -42 604 -8 q 528 -108 543 -76 q 514 -171 514 -139 m 403 753 q 561 709 497 753 q 657 589 625 665 q 689 414 689 513 l 689 360 l 161 360 q 231 134 163 213 q 426 56 299 56 q 546 67 494 56 q 658 106 597 79 l 658 33 q 549 -2 604 10 q 424 -14 494 -14 q 235 32 313 -14 q 119 163 158 78 q 79 364 79 249 q 117 565 79 476 q 228 703 156 653 q 403 753 300 753 m 401 686 q 238 619 300 686 q 164 425 175 551 l 607 425 q 585 561 607 503 q 517 653 563 619 q 401 686 472 686 z "},"Ě":{"ha":768,"x_min":139,"x_max":683,"o":"m 683 0 l 139 0 l 139 992 l 683 992 l 683 919 l 219 919 l 219 557 l 657 557 l 657 485 l 219 485 l 219 72 l 683 72 l 683 0 m 385 1094 q 338 1163 367 1125 q 277 1238 308 1200 q 219 1301 246 1275 l 219 1315 l 276 1315 q 352 1243 314 1283 q 422 1164 390 1203 q 495 1243 456 1203 q 572 1315 535 1283 l 629 1315 l 629 1301 q 572 1238 604 1275 q 509 1163 539 1200 q 463 1094 479 1125 l 385 1094 z "},"ě":{"ha":767,"x_min":79,"x_max":689,"o":"m 403 753 q 561 709 497 753 q 657 589 625 665 q 689 414 689 513 l 689 360 l 161 360 q 231 134 163 213 q 426 56 299 56 q 546 67 494 56 q 658 106 597 79 l 658 33 q 549 -2 604 10 q 424 -14 494 -14 q 235 32 313 -14 q 119 163 158 78 q 79 364 79 249 q 117 565 79 476 q 228 703 156 653 q 403 753 300 753 m 401 686 q 238 619 300 686 q 164 425 175 551 l 607 425 q 585 561 607 503 q 517 653 563 619 q 401 686 472 686 m 346 842 q 299 910 328 872 q 238 985 269 947 q 181 1049 207 1022 l 181 1063 l 238 1063 q 313 990 275 1031 q 383 911 351 950 q 456 990 417 950 q 533 1063 496 1031 l 590 1063 l 590 1049 q 533 985 565 1022 q 470 910 500 947 q 424 842 440 872 l 346 842 z "},"Ĝ":{"ha":1006,"x_min":86,"x_max":899,"o":"m 538 506 l 899 506 l 899 44 q 744 1 825 15 q 569 -14 663 -14 q 305 47 413 -14 q 142 221 197 107 q 86 494 86 335 q 147 761 86 646 q 322 942 208 876 q 594 1007 435 1007 q 748 992 675 1007 q 886 947 821 978 l 854 876 q 725 920 792 906 q 590 935 658 935 q 365 879 460 935 q 221 725 271 824 q 171 496 171 626 q 218 255 171 353 q 358 108 265 157 q 586 58 450 58 q 715 68 658 58 q 818 94 772 78 l 818 432 l 538 432 l 538 506 m 606 1315 q 651 1248 622 1286 q 713 1172 681 1210 q 771 1107 746 1135 l 771 1094 l 714 1094 q 638 1165 676 1125 q 565 1244 599 1206 q 494 1166 532 1206 q 418 1094 456 1126 l 361 1094 l 361 1107 q 419 1172 388 1135 q 481 1248 451 1210 q 528 1315 510 1286 l 606 1315 z "},"ĝ":{"ha":832,"x_min":79,"x_max":710,"o":"m 393 753 q 538 719 481 753 q 629 626 594 686 l 635 626 l 646 739 l 710 739 l 710 -24 q 677 -189 710 -119 q 574 -296 644 -258 q 392 -333 504 -333 q 244 -319 308 -333 q 128 -283 179 -306 l 128 -207 q 247 -249 179 -232 q 394 -265 315 -265 q 574 -201 517 -265 q 632 -28 632 -136 l 632 15 q 633 74 632 44 q 635 131 633 104 l 631 131 q 536 23 599 60 q 383 -14 474 -14 q 160 84 240 -14 q 79 364 79 182 q 160 648 79 543 q 393 753 242 753 m 401 685 q 268 647 321 685 q 188 537 215 608 q 161 363 161 465 q 221 133 161 213 q 393 54 281 54 q 508 76 463 54 q 581 136 554 97 q 620 228 608 175 q 632 342 632 281 l 632 390 q 610 550 632 485 q 537 650 588 615 q 401 685 486 685 m 449 1063 q 494 995 465 1033 q 556 919 524 957 q 614 854 589 882 l 614 842 l 557 842 q 481 913 519 872 q 408 992 442 953 q 337 913 375 953 q 261 842 299 874 l 204 842 l 204 854 q 263 919 231 882 q 324 995 294 957 q 371 1063 353 1033 l 449 1063 z "},"Ğ":{"ha":1006,"x_min":86,"x_max":899,"o":"m 538 506 l 899 506 l 899 44 q 744 1 825 15 q 569 -14 663 -14 q 305 47 413 -14 q 142 221 197 107 q 86 494 86 335 q 147 761 86 646 q 322 942 208 876 q 594 1007 435 1007 q 748 992 675 1007 q 886 947 821 978 l 854 876 q 725 920 792 906 q 590 935 658 935 q 365 879 460 935 q 221 725 271 824 q 171 496 171 626 q 218 255 171 353 q 358 108 265 157 q 586 58 450 58 q 715 68 658 58 q 818 94 772 78 l 818 432 l 538 432 l 538 506 m 760 1265 q 731 1174 756 1213 q 665 1115 707 1136 q 565 1094 624 1094 q 428 1140 476 1094 q 374 1265 381 1185 l 429 1265 q 449 1206 433 1229 q 495 1172 465 1182 q 567 1161 525 1161 q 636 1172 607 1161 q 683 1206 665 1183 q 704 1265 700 1229 l 760 1265 z "},"ğ":{"ha":832,"x_min":79,"x_max":710,"o":"m 393 753 q 538 719 481 753 q 629 626 594 686 l 635 626 l 646 739 l 710 739 l 710 -24 q 677 -189 710 -119 q 574 -296 644 -258 q 392 -333 504 -333 q 244 -319 308 -333 q 128 -283 179 -306 l 128 -207 q 247 -249 179 -232 q 394 -265 315 -265 q 574 -201 517 -265 q 632 -28 632 -136 l 632 15 q 633 74 632 44 q 635 131 633 104 l 631 131 q 536 23 599 60 q 383 -14 474 -14 q 160 84 240 -14 q 79 364 79 182 q 160 648 79 543 q 393 753 242 753 m 401 685 q 268 647 321 685 q 188 537 215 608 q 161 363 161 465 q 221 133 161 213 q 393 54 281 54 q 508 76 463 54 q 581 136 554 97 q 620 228 608 175 q 632 342 632 281 l 632 390 q 610 550 632 485 q 537 650 588 615 q 401 685 486 685 m 603 1013 q 574 922 599 960 q 508 863 550 883 q 408 842 467 842 q 272 887 319 842 q 217 1013 224 932 l 272 1013 q 292 953 276 976 q 338 919 308 929 q 410 908 368 908 q 479 919 450 908 q 526 953 508 931 q 547 1013 543 976 l 603 1013 z "},"Ġ":{"ha":1006,"x_min":86,"x_max":899,"o":"m 538 506 l 899 506 l 899 44 q 744 1 825 15 q 569 -14 663 -14 q 305 47 413 -14 q 142 221 197 107 q 86 494 86 335 q 147 761 86 646 q 322 942 208 876 q 594 1007 435 1007 q 748 992 675 1007 q 886 947 821 978 l 854 876 q 725 920 792 906 q 590 935 658 935 q 365 879 460 935 q 221 725 271 824 q 171 496 171 626 q 218 255 171 353 q 358 108 265 157 q 586 58 450 58 q 715 68 658 58 q 818 94 772 78 l 818 432 l 538 432 l 538 506 m 567 1265 q 607 1249 593 1265 q 621 1206 621 1233 q 607 1160 621 1176 q 567 1144 593 1144 q 526 1160 540 1144 q 513 1206 513 1176 q 526 1249 513 1233 q 567 1265 540 1265 z "},"ġ":{"ha":832,"x_min":79,"x_max":710,"o":"m 393 753 q 538 719 481 753 q 629 626 594 686 l 635 626 l 646 739 l 710 739 l 710 -24 q 677 -189 710 -119 q 574 -296 644 -258 q 392 -333 504 -333 q 244 -319 308 -333 q 128 -283 179 -306 l 128 -207 q 247 -249 179 -232 q 394 -265 315 -265 q 574 -201 517 -265 q 632 -28 632 -136 l 632 15 q 633 74 632 44 q 635 131 633 104 l 631 131 q 536 23 599 60 q 383 -14 474 -14 q 160 84 240 -14 q 79 364 79 182 q 160 648 79 543 q 393 753 242 753 m 401 685 q 268 647 321 685 q 188 537 215 608 q 161 363 161 465 q 221 133 161 213 q 393 54 281 54 q 508 76 463 54 q 581 136 554 97 q 620 228 608 175 q 632 342 632 281 l 632 390 q 610 550 632 485 q 537 650 588 615 q 401 685 486 685 m 410 1013 q 450 997 436 1013 q 464 953 464 981 q 450 908 464 924 q 410 892 436 892 q 369 908 383 892 q 356 953 356 924 q 369 997 356 981 q 410 1013 383 1013 z "},"Ģ":{"ha":1006,"x_min":86,"x_max":899,"o":"m 538 506 l 899 506 l 899 44 q 744 1 825 15 q 569 -14 663 -14 q 305 47 413 -14 q 142 221 197 107 q 86 494 86 335 q 147 761 86 646 q 322 942 208 876 q 594 1007 435 1007 q 748 992 675 1007 q 886 947 821 978 l 854 876 q 725 920 792 906 q 590 935 658 935 q 365 879 460 935 q 221 725 271 824 q 171 496 171 626 q 218 255 171 353 q 358 108 265 157 q 586 58 450 58 q 715 68 658 58 q 818 94 772 78 l 818 432 l 538 432 l 538 506 m 628 -94 q 606 -162 621 -125 q 573 -237 592 -200 q 532 -307 554 -275 l 486 -307 l 486 -294 q 510 -234 497 -272 q 534 -155 524 -196 q 547 -85 544 -114 l 628 -85 l 628 -94 z "},"ģ":{"ha":832,"x_min":79,"x_max":710,"o":"m 489 1050 q 465 990 478 1028 q 442 911 453 951 q 428 840 432 871 l 347 840 l 347 850 q 369 918 354 881 q 402 993 383 956 q 443 1063 421 1031 l 489 1063 l 489 1050 m 393 753 q 538 719 481 753 q 629 626 594 686 l 635 626 l 646 739 l 710 739 l 710 -24 q 677 -189 710 -119 q 574 -296 644 -258 q 392 -333 504 -333 q 244 -319 308 -333 q 128 -283 179 -306 l 128 -207 q 247 -249 179 -232 q 394 -265 315 -265 q 574 -201 517 -265 q 632 -28 632 -136 l 632 15 q 633 74 632 44 q 635 131 633 104 l 631 131 q 536 23 599 60 q 383 -14 474 -14 q 160 84 240 -14 q 79 364 79 182 q 160 648 79 543 q 393 753 242 753 m 401 685 q 268 647 321 685 q 188 537 215 608 q 161 363 161 465 q 221 133 161 213 q 393 54 281 54 q 508 76 463 54 q 581 136 554 97 q 620 228 608 175 q 632 342 632 281 l 632 390 q 610 550 632 485 q 537 650 588 615 q 401 685 486 685 z "},"Ĥ":{"ha":1006,"x_min":139,"x_max":865,"o":"m 865 0 l 785 0 l 785 483 l 219 483 l 219 0 l 139 0 l 139 992 l 219 992 l 219 556 l 785 556 l 785 992 l 865 992 l 865 0 m 543 1315 q 589 1248 560 1286 q 651 1172 618 1210 q 708 1107 683 1135 l 708 1094 l 651 1094 q 575 1165 614 1125 q 503 1244 536 1206 q 431 1166 469 1206 q 356 1094 393 1126 l 299 1094 l 299 1107 q 357 1172 325 1135 q 418 1248 389 1210 q 465 1315 447 1286 l 543 1315 z "},"ĥ":{"ha":828,"x_min":-43,"x_max":713,"o":"m 201 718 q 200 663 201 689 q 196 611 199 638 l 201 611 q 256 684 221 653 q 340 734 290 715 q 451 753 389 753 q 594 724 536 753 q 683 636 653 696 q 713 483 713 576 l 713 0 l 635 0 l 635 478 q 586 635 635 585 q 444 685 538 685 q 309 653 363 685 q 228 559 256 622 q 201 403 201 496 l 201 0 l 122 0 l 122 1056 l 201 1056 l 201 718 m 201 1379 q 247 1312 218 1350 q 309 1236 276 1274 q 367 1171 342 1199 l 367 1158 l 310 1158 q 233 1229 272 1189 q 161 1308 194 1269 q 90 1230 128 1269 q 14 1158 51 1190 l -43 1158 l -43 1171 q 15 1236 -17 1199 q 76 1312 47 1274 q 124 1379 106 1350 l 201 1379 z "},"Ħ":{"ha":1006,"x_min":0,"x_max":1004,"o":"m 139 0 l 139 744 l 0 744 l 0 813 l 139 813 l 139 992 l 219 992 l 219 813 l 785 813 l 785 992 l 865 992 l 865 813 l 1004 813 l 1004 744 l 865 744 l 865 0 l 785 0 l 785 483 l 219 483 l 219 0 l 139 0 m 219 556 l 785 556 l 785 744 l 219 744 l 219 556 z "},"ħ":{"ha":828,"x_min":18,"x_max":713,"o":"m 201 1056 l 201 921 l 517 921 l 517 857 l 201 857 l 201 704 q 200 649 201 675 q 196 597 199 624 l 201 597 q 256 671 221 639 q 340 721 290 703 q 453 739 389 739 q 595 710 538 739 q 683 622 653 682 q 713 469 713 563 l 713 0 l 635 0 l 635 464 q 586 621 635 571 q 444 671 538 671 q 309 640 363 671 q 228 546 256 608 q 201 389 201 483 l 201 0 l 122 0 l 122 857 l 18 857 l 18 921 l 122 921 l 122 1056 l 201 1056 z "},"Ĩ":{"ha":432,"x_min":-22,"x_max":458,"o":"m 363 0 l 71 0 l 71 50 l 176 65 l 176 925 l 71 942 l 71 992 l 363 992 l 363 942 l 257 925 l 257 65 l 363 50 l 363 0 m -22 1103 q -8 1171 -18 1142 q 21 1219 3 1200 q 63 1249 39 1239 q 117 1260 86 1260 q 176 1246 149 1260 q 227 1214 203 1232 q 275 1182 251 1196 q 324 1168 299 1168 q 376 1188 354 1168 q 407 1261 399 1208 l 458 1261 q 415 1144 451 1186 q 319 1103 379 1103 q 261 1117 288 1103 q 210 1149 235 1131 q 163 1181 186 1167 q 113 1194 139 1194 q 60 1174 82 1194 q 31 1103 39 1154 l -22 1103 z "},"ĩ":{"ha":324,"x_min":-78,"x_max":403,"o":"m 201 0 l 122 0 l 122 739 l 201 739 l 201 0 m -78 850 q -63 918 -74 889 q -35 967 -53 947 q 7 997 -17 986 q 61 1007 31 1007 q 120 993 93 1007 q 172 961 147 979 q 219 929 196 943 q 268 915 243 915 q 321 935 299 915 q 351 1008 343 956 l 403 1008 q 360 892 396 933 q 264 850 324 850 q 206 864 232 850 q 155 896 179 878 q 107 928 131 914 q 57 942 83 942 q 5 922 26 942 q -25 850 -17 901 l -78 850 z "},"Ī":{"ha":432,"x_min":25,"x_max":408,"o":"m 363 0 l 71 0 l 71 50 l 176 65 l 176 925 l 71 942 l 71 992 l 363 992 l 363 942 l 257 925 l 257 65 l 363 50 l 363 0 m 408 1167 l 408 1100 l 25 1100 l 25 1167 l 408 1167 z "},"ī":{"ha":324,"x_min":-29,"x_max":354,"o":"m 201 0 l 122 0 l 122 739 l 201 739 l 201 0 m 354 914 l 354 847 l -29 847 l -29 914 l 354 914 z "},"Ĭ":{"ha":432,"x_min":24,"x_max":410,"o":"m 363 0 l 71 0 l 71 50 l 176 65 l 176 925 l 71 942 l 71 992 l 363 992 l 363 942 l 257 925 l 257 65 l 363 50 l 363 0 m 410 1265 q 381 1174 406 1213 q 315 1115 357 1136 q 215 1094 274 1094 q 78 1140 126 1094 q 24 1265 31 1185 l 79 1265 q 99 1206 83 1229 q 145 1172 115 1182 q 217 1161 175 1161 q 286 1172 257 1161 q 333 1206 315 1183 q 354 1265 350 1229 l 410 1265 z "},"ĭ":{"ha":324,"x_min":-31,"x_max":356,"o":"m 201 0 l 122 0 l 122 739 l 201 739 l 201 0 m 356 1013 q 327 922 351 960 q 261 863 303 883 q 161 842 219 842 q 24 887 72 842 q -31 1013 -24 932 l 25 1013 q 45 953 29 976 q 91 919 61 929 q 163 908 121 908 q 232 919 203 908 q 278 953 261 931 q 300 1013 296 976 l 356 1013 z "},"Į":{"ha":432,"x_min":71,"x_max":363,"o":"m 363 0 l 71 0 l 71 50 l 176 65 l 176 925 l 71 942 l 71 992 l 363 992 l 363 942 l 257 925 l 257 65 l 363 50 l 363 0 m 215 -171 q 234 -226 215 -207 q 288 -244 253 -244 q 326 -242 308 -244 q 354 -236 343 -239 l 354 -292 q 320 -299 339 -296 q 276 -303 301 -303 q 181 -272 215 -303 q 147 -181 147 -240 q 165 -109 147 -144 q 213 -42 182 -74 q 281 18 243 -10 l 326 0 q 247 -82 279 -40 q 215 -171 215 -124 z "},"į":{"ha":324,"x_min":18,"x_max":224,"o":"m 201 739 l 201 0 l 122 0 l 122 739 l 201 739 m 163 1013 q 203 997 189 1013 q 217 953 217 981 q 203 908 217 924 q 163 892 189 892 q 122 908 136 892 q 108 953 108 924 q 122 997 108 981 q 163 1013 136 1013 m 86 -171 q 105 -226 86 -207 q 158 -244 124 -244 q 197 -242 179 -244 q 225 -236 214 -239 l 225 -292 q 191 -299 210 -296 q 147 -303 172 -303 q 52 -272 86 -303 q 18 -181 18 -240 q 35 -109 18 -144 q 83 -42 53 -74 q 151 18 114 -10 l 197 0 q 118 -82 150 -40 q 86 -171 86 -124 z "},"İ":{"ha":432,"x_min":71,"x_max":363,"o":"m 363 0 l 71 0 l 71 50 l 176 65 l 176 925 l 71 942 l 71 992 l 363 992 l 363 942 l 257 925 l 257 65 l 363 50 l 363 0 m 218 1265 q 258 1249 244 1265 q 272 1206 272 1233 q 258 1160 272 1176 q 218 1144 244 1144 q 178 1160 192 1144 q 164 1206 164 1176 q 178 1249 164 1233 q 218 1265 192 1265 z "},"Ĳ":{"ha":782,"x_min":71,"x_max":650,"o":"m 363 0 l 71 0 l 71 50 l 176 65 l 176 925 l 71 942 l 71 992 l 363 992 l 363 942 l 257 925 l 257 65 l 363 50 l 363 0 m 417 -253 q 355 -247 381 -253 q 310 -235 329 -242 l 310 -162 q 358 -174 331 -169 q 415 -179 385 -179 q 500 -159 465 -179 q 552 -97 535 -139 q 569 7 569 -56 l 569 992 l 650 992 l 650 10 q 624 -131 650 -72 q 547 -222 599 -190 q 417 -253 494 -253 z "},"ĳ":{"ha":646,"x_min":108,"x_max":539,"o":"m 201 739 l 201 0 l 122 0 l 122 739 l 201 739 m 163 1013 q 203 997 189 1013 q 217 953 217 981 q 203 908 217 924 q 163 892 189 892 q 122 908 136 892 q 108 953 108 924 q 122 997 108 981 q 163 1013 136 1013 m 347 -333 q 293 -328 317 -333 q 251 -318 269 -324 l 251 -250 q 294 -262 272 -258 q 339 -265 315 -265 q 417 -235 389 -265 q 446 -137 446 -204 l 446 739 l 525 739 l 525 -139 q 503 -245 525 -201 q 443 -311 482 -289 q 347 -333 404 -333 m 432 953 q 446 997 432 981 q 486 1013 460 1013 q 526 997 513 1013 q 540 953 540 981 q 526 908 540 924 q 486 892 513 892 q 446 908 460 892 q 432 953 432 924 z "},"Ĵ":{"ha":350,"x_min":-122,"x_max":383,"o":"m -15 -253 q -77 -247 -51 -253 q -122 -235 -103 -242 l -122 -162 q -74 -174 -101 -169 q -17 -179 -47 -179 q 68 -159 33 -179 q 120 -97 103 -139 q 138 7 138 -56 l 138 992 l 218 992 l 218 10 q 192 -131 218 -72 q 115 -222 167 -190 q -15 -253 63 -253 m 218 1315 q 264 1248 235 1286 q 326 1172 293 1210 q 383 1107 358 1135 l 383 1094 l 326 1094 q 250 1165 289 1125 q 178 1244 211 1206 q 106 1166 144 1206 q 31 1094 68 1126 l -26 1094 l -26 1107 q 32 1172 0 1135 q 93 1248 64 1210 q 140 1315 122 1286 l 218 1315 z "},"ĵ":{"ha":324,"x_min":-72,"x_max":367,"o":"m 24 -333 q -31 -328 -7 -333 q -72 -318 -54 -324 l -72 -250 q -30 -262 -51 -258 q 15 -265 -8 -265 q 94 -235 65 -265 q 122 -137 122 -204 l 122 739 l 201 739 l 201 -139 q 180 -245 201 -201 q 119 -311 158 -289 q 24 -333 81 -333 m 201 1063 q 247 995 218 1033 q 309 919 276 957 q 367 854 342 882 l 367 842 l 310 842 q 233 913 272 872 q 161 992 194 953 q 90 913 128 953 q 14 842 51 874 l -43 842 l -43 854 q 15 919 -17 882 q 76 995 47 957 q 124 1063 106 1033 l 201 1063 z "},"Ķ":{"ha":818,"x_min":139,"x_max":818,"o":"m 818 0 l 721 0 l 343 514 l 219 396 l 219 0 l 139 0 l 139 992 l 219 992 l 219 476 q 279 542 249 510 q 340 607 310 575 l 707 992 l 806 992 l 403 569 l 818 0 m 494 -94 q 473 -162 488 -125 q 440 -237 458 -200 q 399 -307 421 -275 l 353 -307 l 353 -294 q 377 -234 364 -272 q 401 -155 390 -196 q 414 -85 411 -114 l 494 -85 l 494 -94 z "},"ķ":{"ha":686,"x_min":122,"x_max":683,"o":"m 200 519 q 199 427 200 475 q 197 333 199 379 l 199 333 q 226 365 211 347 q 255 400 240 382 q 283 433 269 418 l 564 739 l 660 739 l 367 422 l 683 0 l 589 0 l 313 371 l 200 257 l 200 0 l 122 0 l 122 1056 l 200 1056 l 200 519 m 414 -94 q 392 -162 407 -125 q 359 -237 378 -200 q 318 -307 340 -275 l 272 -307 l 272 -294 q 297 -234 283 -272 q 320 -155 310 -196 q 333 -85 331 -114 l 414 -85 l 414 -94 z "},"ĸ":{"ha":686,"x_min":122,"x_max":683,"o":"m 658 739 l 375 417 l 683 0 l 589 0 l 319 365 l 204 250 l 204 0 l 122 0 l 122 739 l 204 739 l 204 543 q 203 426 204 482 q 200 322 201 369 l 200 322 q 234 365 218 346 q 268 403 250 383 l 561 739 l 658 739 z "},"Ĺ":{"ha":715,"x_min":111,"x_max":685,"o":"m 139 0 l 139 992 l 219 992 l 219 74 l 685 74 l 685 0 l 139 0 m 368 1306 q 329 1256 353 1283 q 278 1200 306 1229 q 222 1144 250 1171 q 167 1094 193 1117 l 111 1094 l 111 1107 q 168 1172 138 1135 q 228 1249 199 1210 q 274 1317 257 1288 l 368 1317 l 368 1306 z "},"ĺ":{"ha":324,"x_min":94,"x_max":351,"o":"m 201 0 l 122 0 l 122 1056 l 201 1056 l 201 0 m 351 1369 q 313 1320 336 1347 q 261 1264 289 1293 q 205 1208 233 1235 q 150 1158 176 1181 l 94 1158 l 94 1171 q 151 1236 121 1199 q 211 1313 182 1274 q 257 1381 240 1351 l 351 1381 l 351 1369 z "},"Ļ":{"ha":715,"x_min":139,"x_max":685,"o":"m 139 0 l 139 992 l 219 992 l 219 74 l 685 74 l 685 0 l 139 0 m 476 -94 q 455 -162 469 -125 q 422 -237 440 -200 q 381 -307 403 -275 l 335 -307 l 335 -294 q 359 -234 346 -272 q 383 -155 372 -196 q 396 -85 393 -114 l 476 -85 l 476 -94 z "},"ļ":{"ha":324,"x_min":92,"x_max":233,"o":"m 201 0 l 122 0 l 122 1056 l 201 1056 l 201 0 m 233 -94 q 212 -162 226 -125 q 178 -237 197 -200 q 138 -307 160 -275 l 92 -307 l 92 -294 q 116 -234 103 -272 q 140 -155 129 -196 q 153 -85 150 -114 l 233 -85 l 233 -94 z "},"Ľ":{"ha":715,"x_min":139,"x_max":685,"o":"m 674 982 q 653 914 667 951 q 621 839 639 876 q 583 769 603 801 l 538 769 l 538 782 q 554 826 546 800 q 570 883 563 853 q 584 941 578 913 q 593 992 590 969 l 674 992 l 674 982 m 139 0 l 139 992 l 219 992 l 219 74 l 685 74 l 685 0 l 139 0 z "},"ľ":{"ha":324,"x_min":122,"x_max":393,"o":"m 393 1046 q 372 978 386 1015 q 340 903 358 940 q 301 833 322 865 l 257 833 l 257 846 q 272 890 264 864 q 289 947 281 917 q 303 1005 297 976 q 313 1056 310 1033 l 393 1056 l 393 1046 m 201 0 l 122 0 l 122 1056 l 201 1056 l 201 0 z "},"Ŀ":{"ha":715,"x_min":139,"x_max":685,"o":"m 139 0 l 139 992 l 219 992 l 219 74 l 685 74 l 685 0 l 139 0 m 515 582 q 556 566 542 582 q 569 522 569 550 q 556 477 569 493 q 515 461 542 461 q 475 477 489 461 q 461 522 461 493 q 475 566 461 550 q 515 582 489 582 z "},"ŀ":{"ha":331,"x_min":122,"x_max":381,"o":"m 201 0 l 122 0 l 122 1056 l 201 1056 l 201 0 m 328 594 q 368 578 354 594 q 382 535 382 563 q 368 490 382 506 q 328 474 354 474 q 288 490 301 474 q 274 535 274 506 q 288 578 274 563 q 328 594 301 594 z "},"Ł":{"ha":715,"x_min":17,"x_max":685,"o":"m 139 0 l 139 368 l 51 314 l 17 371 l 139 447 l 139 992 l 219 992 l 219 496 l 433 628 l 469 569 l 219 417 l 219 74 l 685 74 l 685 0 l 139 0 z "},"ł":{"ha":324,"x_min":1,"x_max":333,"o":"m 119 0 l 119 433 l 36 378 l 1 433 l 119 511 l 119 1056 l 199 1056 l 199 561 l 300 629 l 333 575 l 199 485 l 199 0 l 119 0 z "},"Ń":{"ha":1013,"x_min":139,"x_max":874,"o":"m 874 0 l 788 0 l 213 867 l 208 867 q 212 792 211 831 q 214 712 213 753 q 215 626 215 671 l 215 0 l 139 0 l 139 992 l 225 992 l 799 128 l 803 128 q 800 197 801 157 q 798 281 799 238 q 797 363 797 325 l 797 992 l 874 992 l 874 0 m 696 1306 q 657 1256 681 1283 q 606 1200 633 1229 q 549 1144 578 1171 q 494 1094 521 1117 l 439 1094 l 439 1107 q 496 1172 465 1135 q 556 1249 526 1210 q 601 1317 585 1288 l 696 1317 l 696 1306 z "},"ń":{"ha":828,"x_min":122,"x_max":713,"o":"m 453 753 q 646 688 579 753 q 713 483 713 624 l 713 0 l 635 0 l 635 478 q 586 635 635 585 q 444 685 538 685 q 262 614 322 685 q 201 403 201 543 l 201 0 l 122 0 l 122 739 l 186 739 l 197 611 l 203 611 q 258 685 224 653 q 342 735 293 717 q 453 753 390 753 m 604 1053 q 565 1003 589 1031 q 514 947 542 976 q 458 891 486 918 q 403 842 429 864 l 347 842 l 347 854 q 404 919 374 882 q 464 996 435 957 q 510 1064 493 1035 l 604 1064 l 604 1053 z "},"Ņ":{"ha":1013,"x_min":139,"x_max":874,"o":"m 874 0 l 788 0 l 213 867 l 208 867 q 212 792 211 831 q 214 712 213 753 q 215 626 215 671 l 215 0 l 139 0 l 139 992 l 225 992 l 799 128 l 803 128 q 800 197 801 157 q 798 281 799 238 q 797 363 797 325 l 797 992 l 874 992 l 874 0 m 578 -94 q 556 -162 571 -125 q 523 -237 542 -200 q 482 -307 504 -275 l 436 -307 l 436 -294 q 460 -234 447 -272 q 484 -155 474 -196 q 497 -85 494 -114 l 578 -85 l 578 -94 z "},"ņ":{"ha":828,"x_min":122,"x_max":713,"o":"m 453 753 q 646 688 579 753 q 713 483 713 624 l 713 0 l 635 0 l 635 478 q 586 635 635 585 q 444 685 538 685 q 262 614 322 685 q 201 403 201 543 l 201 0 l 122 0 l 122 739 l 186 739 l 197 611 l 203 611 q 258 685 224 653 q 342 735 293 717 q 453 753 390 753 m 485 -94 q 463 -162 478 -125 q 430 -237 449 -200 q 389 -307 411 -275 l 343 -307 l 343 -294 q 367 -234 354 -272 q 391 -155 381 -196 q 404 -85 401 -114 l 485 -85 l 485 -94 z "},"Ň":{"ha":1013,"x_min":139,"x_max":874,"o":"m 874 0 l 788 0 l 213 867 l 208 867 q 212 792 211 831 q 214 712 213 753 q 215 626 215 671 l 215 0 l 139 0 l 139 992 l 225 992 l 799 128 l 803 128 q 800 197 801 157 q 798 281 799 238 q 797 363 797 325 l 797 992 l 874 992 l 874 0 m 467 1094 q 419 1163 449 1125 q 359 1238 390 1200 q 301 1301 328 1275 l 301 1315 l 358 1315 q 434 1243 396 1283 q 504 1164 472 1203 q 577 1243 538 1203 q 654 1315 617 1283 l 711 1315 l 711 1301 q 653 1238 686 1275 q 591 1163 621 1200 q 544 1094 561 1125 l 467 1094 z "},"ň":{"ha":828,"x_min":122,"x_max":713,"o":"m 453 753 q 646 688 579 753 q 713 483 713 624 l 713 0 l 635 0 l 635 478 q 586 635 635 585 q 444 685 538 685 q 262 614 322 685 q 201 403 201 543 l 201 0 l 122 0 l 122 739 l 186 739 l 197 611 l 203 611 q 258 685 224 653 q 342 735 293 717 q 453 753 390 753 m 375 842 q 328 910 357 872 q 267 985 299 947 q 210 1049 236 1022 l 210 1063 l 267 1063 q 342 990 304 1031 q 413 911 381 950 q 485 990 446 950 q 563 1063 525 1031 l 619 1063 l 619 1049 q 562 985 594 1022 q 499 910 529 947 q 453 842 469 872 l 375 842 z "},"ŉ":{"ha":881,"x_min":1,"x_max":765,"o":"m 506 753 q 699 688 632 753 q 765 483 765 624 l 765 0 l 688 0 l 688 478 q 639 635 688 585 q 497 685 590 685 q 315 614 375 685 q 254 403 254 543 l 254 0 l 175 0 l 175 739 l 239 739 l 250 611 l 256 611 q 311 685 276 653 q 394 735 346 717 q 506 753 443 753 m 168 978 q 141 868 158 925 q 102 756 124 811 q 58 651 81 701 l 1 651 q 27 733 15 689 q 49 823 39 778 q 67 912 60 868 q 81 992 75 956 l 160 992 l 168 978 z "},"Ŋ":{"ha":1013,"x_min":139,"x_max":874,"o":"m 639 -253 q 577 -247 606 -253 q 531 -235 549 -242 l 531 -164 q 581 -175 553 -171 q 639 -179 608 -179 q 722 -161 686 -179 q 777 -101 757 -143 q 797 7 797 -60 l 213 867 l 208 867 q 212 792 211 833 q 214 706 213 750 q 215 618 215 663 l 215 0 l 139 0 l 139 992 l 225 992 l 799 142 l 803 142 q 800 215 801 174 q 798 299 799 256 q 797 385 797 343 l 797 992 l 874 992 l 874 7 q 846 -136 874 -78 q 766 -224 818 -194 q 639 -253 714 -253 z "},"ŋ":{"ha":828,"x_min":122,"x_max":714,"o":"m 540 -333 q 489 -328 511 -333 q 449 -318 467 -324 l 449 -250 q 490 -262 469 -258 q 533 -265 510 -265 q 608 -235 581 -265 q 635 -137 635 -204 l 635 479 q 586 635 635 585 q 444 685 538 685 q 310 653 364 685 q 228 560 256 622 q 201 404 201 497 l 201 0 l 122 0 l 122 739 l 186 739 l 199 611 l 203 611 q 258 685 224 653 q 341 735 292 717 q 453 753 390 753 q 596 724 538 753 q 684 637 654 696 q 714 483 714 578 l 714 -139 q 693 -245 714 -201 q 634 -311 672 -289 q 540 -333 596 -333 z "},"Ō":{"ha":1067,"x_min":86,"x_max":979,"o":"m 979 497 q 951 290 979 383 q 867 128 924 197 q 728 23 811 60 q 533 -14 644 -14 q 337 24 421 -14 q 197 129 253 61 q 114 291 142 197 q 86 499 86 385 q 137 765 86 650 q 288 943 188 879 q 538 1007 389 1007 q 779 945 681 1007 q 928 769 878 883 q 979 497 979 656 m 171 499 q 210 267 171 367 q 330 113 249 168 q 533 58 411 58 q 738 113 658 58 q 856 266 818 167 q 894 497 894 365 q 805 819 894 704 q 538 935 715 935 q 332 881 414 935 q 210 728 250 826 q 171 499 171 629 m 725 1167 l 725 1100 l 342 1100 l 342 1167 l 725 1167 z "},"ō":{"ha":819,"x_min":79,"x_max":740,"o":"m 740 371 q 719 213 740 283 q 655 92 697 143 q 551 14 613 42 q 408 -14 489 -14 q 271 13 332 -14 q 167 91 210 40 q 102 213 125 142 q 79 371 79 283 q 119 576 79 490 q 235 707 160 661 q 414 753 310 753 q 593 705 521 753 q 703 572 665 657 q 740 371 740 486 m 161 371 q 188 205 161 276 q 270 94 215 133 q 410 54 325 54 q 551 94 496 54 q 632 205 606 133 q 658 371 658 276 q 633 533 658 463 q 554 644 608 604 q 413 685 500 685 q 224 601 288 685 q 161 371 161 518 m 603 914 l 603 847 l 219 847 l 219 914 l 603 914 z "},"Ŏ":{"ha":1067,"x_min":86,"x_max":979,"o":"m 979 497 q 951 290 979 383 q 867 128 924 197 q 728 23 811 60 q 533 -14 644 -14 q 337 24 421 -14 q 197 129 253 61 q 114 291 142 197 q 86 499 86 385 q 137 765 86 650 q 288 943 188 879 q 538 1007 389 1007 q 779 945 681 1007 q 928 769 878 883 q 979 497 979 656 m 171 499 q 210 267 171 367 q 330 113 249 168 q 533 58 411 58 q 738 113 658 58 q 856 266 818 167 q 894 497 894 365 q 805 819 894 704 q 538 935 715 935 q 332 881 414 935 q 210 728 250 826 q 171 499 171 629 m 726 1265 q 698 1174 722 1213 q 632 1115 674 1136 q 532 1094 590 1094 q 395 1140 443 1094 q 340 1265 347 1185 l 396 1265 q 416 1206 400 1229 q 462 1172 432 1182 q 533 1161 492 1161 q 603 1172 574 1161 q 649 1206 632 1183 q 671 1265 667 1229 l 726 1265 z "},"ŏ":{"ha":819,"x_min":79,"x_max":740,"o":"m 740 371 q 719 213 740 283 q 655 92 697 143 q 551 14 613 42 q 408 -14 489 -14 q 271 13 332 -14 q 167 91 210 40 q 102 213 125 142 q 79 371 79 283 q 119 576 79 490 q 235 707 160 661 q 414 753 310 753 q 593 705 521 753 q 703 572 665 657 q 740 371 740 486 m 161 371 q 188 205 161 276 q 270 94 215 133 q 410 54 325 54 q 551 94 496 54 q 632 205 606 133 q 658 371 658 276 q 633 533 658 463 q 554 644 608 604 q 413 685 500 685 q 224 601 288 685 q 161 371 161 518 m 604 1013 q 576 922 600 960 q 510 863 551 883 q 410 842 468 842 q 273 887 321 842 q 218 1013 225 932 l 274 1013 q 294 953 278 976 q 340 919 310 929 q 411 908 369 908 q 481 919 451 908 q 527 953 510 931 q 549 1013 544 976 l 604 1013 z "},"Ő":{"ha":1067,"x_min":86,"x_max":979,"o":"m 979 497 q 951 290 979 383 q 867 128 924 197 q 728 23 811 60 q 533 -14 644 -14 q 337 24 421 -14 q 197 129 253 61 q 114 291 142 197 q 86 499 86 385 q 137 765 86 650 q 288 943 188 879 q 538 1007 389 1007 q 779 945 681 1007 q 928 769 878 883 q 979 497 979 656 m 171 499 q 210 267 171 367 q 330 113 249 168 q 533 58 411 58 q 738 113 658 58 q 856 266 818 167 q 894 497 894 365 q 805 819 894 704 q 538 935 715 935 q 332 881 414 935 q 210 728 250 826 q 171 499 171 629 m 761 1306 q 728 1256 749 1283 q 684 1199 708 1229 q 635 1143 660 1169 q 588 1094 610 1117 l 538 1094 l 538 1107 q 585 1172 560 1135 q 635 1247 611 1208 q 674 1317 660 1286 l 761 1317 l 761 1306 m 528 1306 q 495 1256 515 1283 q 451 1199 475 1229 q 401 1143 426 1169 q 354 1094 376 1117 l 304 1094 l 304 1107 q 352 1172 326 1135 q 401 1247 378 1208 q 440 1317 425 1286 l 528 1317 l 528 1306 z "},"ő":{"ha":819,"x_min":79,"x_max":740,"o":"m 740 371 q 719 213 740 283 q 655 92 697 143 q 551 14 613 42 q 408 -14 489 -14 q 271 13 332 -14 q 167 91 210 40 q 102 213 125 142 q 79 371 79 283 q 119 576 79 490 q 235 707 160 661 q 414 753 310 753 q 593 705 521 753 q 703 572 665 657 q 740 371 740 486 m 161 371 q 188 205 161 276 q 270 94 215 133 q 410 54 325 54 q 551 94 496 54 q 632 205 606 133 q 658 371 658 276 q 633 533 658 463 q 554 644 608 604 q 413 685 500 685 q 224 601 288 685 q 161 371 161 518 m 639 1053 q 606 1003 626 1031 q 562 947 586 976 q 513 890 538 917 q 465 842 488 864 l 415 842 l 415 854 q 463 919 438 882 q 513 994 489 956 q 551 1064 538 1033 l 639 1064 l 639 1053 m 406 1053 q 373 1003 393 1031 q 328 947 353 976 q 279 890 304 917 q 232 842 254 864 l 182 842 l 182 854 q 230 919 204 882 q 279 994 256 956 q 318 1064 303 1033 l 406 1064 l 406 1053 z "},"Œ":{"ha":1269,"x_min":86,"x_max":1185,"o":"m 532 1001 q 596 999 567 1001 q 658 992 625 996 l 1185 992 l 1185 919 l 736 919 l 736 557 l 1157 557 l 1157 485 l 736 485 l 736 72 l 1185 72 l 1185 0 l 656 0 q 599 -6 629 -3 q 533 -8 568 -8 q 284 55 383 -8 q 135 233 185 118 q 86 499 86 347 q 137 764 86 651 q 287 939 188 876 q 532 1001 386 1001 m 538 929 q 375 899 444 929 q 260 813 306 869 q 193 676 215 756 q 171 499 171 597 q 210 267 171 365 q 330 116 249 169 q 535 63 411 63 q 602 67 571 63 q 656 78 633 71 l 656 915 q 603 926 633 922 q 538 929 574 929 z "},"œ":{"ha":1329,"x_min":79,"x_max":1250,"o":"m 967 753 q 1124 709 1061 753 q 1218 589 1186 665 q 1250 414 1250 513 l 1250 360 l 731 360 q 797 132 731 208 q 989 56 864 56 q 1109 67 1058 56 q 1219 106 1160 79 l 1219 33 q 1112 -2 1165 10 q 988 -14 1058 -14 q 800 39 874 -14 q 692 185 726 92 q 585 40 657 93 q 404 -14 514 -14 q 230 34 303 -14 q 118 168 157 82 q 79 371 79 254 q 119 576 79 490 q 233 707 158 661 q 411 753 307 753 q 589 699 519 753 q 690 553 658 644 q 752 658 714 613 q 844 728 790 703 q 967 753 897 753 m 408 685 q 223 603 285 685 q 161 371 161 522 q 188 202 161 274 q 268 92 214 131 q 406 54 322 54 q 544 92 490 54 q 624 201 597 131 q 650 368 650 272 q 625 535 650 464 q 547 645 600 606 q 408 685 494 685 m 965 685 q 804 619 865 685 q 732 425 743 553 l 1167 425 q 1147 561 1168 503 q 1080 652 1125 619 q 965 685 1035 685 z "},"Ŕ":{"ha":833,"x_min":139,"x_max":804,"o":"m 386 992 q 585 965 506 992 q 703 878 664 938 q 743 719 743 818 q 715 590 743 643 q 640 502 688 536 q 532 450 593 468 l 804 0 l 708 0 l 456 428 l 219 428 l 219 0 l 139 0 l 139 992 l 386 992 m 379 921 l 219 921 l 219 497 l 407 497 q 594 554 528 497 q 660 717 660 611 q 629 838 660 793 q 537 901 599 882 q 379 921 475 921 m 607 1306 q 568 1256 592 1283 q 517 1200 544 1229 q 460 1144 489 1171 q 406 1094 432 1117 l 350 1094 l 350 1107 q 407 1172 376 1135 q 467 1249 438 1210 q 513 1317 496 1288 l 607 1317 l 607 1306 z "},"ŕ":{"ha":547,"x_min":122,"x_max":526,"o":"m 426 751 q 478 749 453 751 q 526 740 504 746 l 514 667 q 469 676 492 672 q 422 679 447 679 q 331 660 371 679 q 261 604 290 640 q 217 518 232 568 q 201 406 201 468 l 201 0 l 122 0 l 122 739 l 189 739 l 197 601 l 201 601 q 252 677 221 643 q 327 731 283 711 q 426 751 371 751 m 488 1053 q 449 1003 472 1031 q 397 947 425 976 q 341 891 369 918 q 286 842 313 864 l 231 842 l 231 854 q 288 919 257 882 q 347 996 318 957 q 393 1064 376 1035 l 488 1064 l 488 1053 z "},"Ŗ":{"ha":833,"x_min":139,"x_max":804,"o":"m 386 992 q 585 965 506 992 q 703 878 664 938 q 743 719 743 818 q 715 590 743 643 q 640 502 688 536 q 532 450 593 468 l 804 0 l 708 0 l 456 428 l 219 428 l 219 0 l 139 0 l 139 992 l 386 992 m 379 921 l 219 921 l 219 497 l 407 497 q 594 554 528 497 q 660 717 660 611 q 629 838 660 793 q 537 901 599 882 q 379 921 475 921 m 506 -94 q 484 -162 499 -125 q 451 -237 469 -200 q 410 -307 432 -275 l 364 -307 l 364 -294 q 388 -234 375 -272 q 412 -155 401 -196 q 425 -85 422 -114 l 506 -85 l 506 -94 z "},"ŗ":{"ha":547,"x_min":89,"x_max":526,"o":"m 426 751 q 478 749 453 751 q 526 740 504 746 l 514 667 q 469 676 492 672 q 422 679 447 679 q 331 660 371 679 q 261 604 290 640 q 217 518 232 568 q 201 406 201 468 l 201 0 l 122 0 l 122 739 l 189 739 l 197 601 l 201 601 q 252 677 221 643 q 327 731 283 711 q 426 751 371 751 m 231 -94 q 209 -162 224 -125 q 176 -237 194 -200 q 135 -307 157 -275 l 89 -307 l 89 -294 q 113 -234 100 -272 q 137 -155 126 -196 q 150 -85 147 -114 l 231 -85 l 231 -94 z "},"Ř":{"ha":833,"x_min":139,"x_max":804,"o":"m 386 992 q 585 965 506 992 q 703 878 664 938 q 743 719 743 818 q 715 590 743 643 q 640 502 688 536 q 532 450 593 468 l 804 0 l 708 0 l 456 428 l 219 428 l 219 0 l 139 0 l 139 992 l 386 992 m 379 921 l 219 921 l 219 497 l 407 497 q 594 554 528 497 q 660 717 660 611 q 629 838 660 793 q 537 901 599 882 q 379 921 475 921 m 378 1094 q 331 1163 360 1125 q 270 1238 301 1200 q 213 1301 239 1275 l 213 1315 l 269 1315 q 345 1243 307 1283 q 415 1164 383 1203 q 488 1243 449 1203 q 565 1315 528 1283 l 622 1315 l 622 1301 q 565 1238 597 1275 q 502 1163 532 1200 q 456 1094 472 1125 l 378 1094 z "},"ř":{"ha":547,"x_min":93,"x_max":526,"o":"m 426 751 q 478 749 453 751 q 526 740 504 746 l 514 667 q 469 676 492 672 q 422 679 447 679 q 331 660 371 679 q 261 604 290 640 q 217 518 232 568 q 201 406 201 468 l 201 0 l 122 0 l 122 739 l 189 739 l 197 601 l 201 601 q 252 677 221 643 q 327 731 283 711 q 426 751 371 751 m 258 842 q 211 910 240 872 q 151 985 182 947 q 93 1049 119 1022 l 93 1063 l 150 1063 q 226 990 188 1031 q 296 911 264 950 q 369 990 329 950 q 446 1063 408 1031 l 503 1063 l 503 1049 q 445 985 478 1022 q 383 910 413 947 q 336 842 353 872 l 258 842 z "},"Ś":{"ha":758,"x_min":75,"x_max":689,"o":"m 689 258 q 644 109 689 169 q 522 17 600 49 q 346 -14 444 -14 q 237 -8 286 -14 q 147 8 188 -1 q 75 31 107 18 l 75 110 q 198 74 128 89 q 350 58 268 58 q 484 80 426 58 q 574 145 542 101 q 607 253 607 189 q 580 350 607 313 q 497 416 553 388 q 353 474 440 444 q 241 519 290 496 q 157 575 192 543 q 104 651 122 607 q 86 754 86 694 q 128 892 86 836 q 241 976 169 947 q 403 1006 313 1006 q 541 992 476 1006 q 664 953 606 979 l 638 883 q 519 921 579 908 q 400 933 460 933 q 280 913 332 933 q 198 853 228 893 q 168 756 168 814 q 196 654 168 693 q 277 589 224 615 q 406 536 331 563 q 558 473 494 507 q 655 388 621 439 q 689 258 689 338 m 576 1306 q 538 1256 561 1283 q 486 1200 514 1229 q 430 1144 458 1171 q 375 1094 401 1117 l 319 1094 l 319 1107 q 376 1172 346 1135 q 436 1249 407 1210 q 482 1317 465 1288 l 576 1317 l 576 1306 z "},"ś":{"ha":651,"x_min":64,"x_max":588,"o":"m 588 196 q 554 83 588 129 q 457 11 521 36 q 301 -14 393 -14 q 165 0 224 -14 q 64 33 106 14 l 64 110 q 176 69 114 86 q 303 53 238 53 q 461 90 413 53 q 510 190 510 128 q 487 259 510 232 q 419 308 464 286 q 307 351 374 329 q 186 399 239 375 q 104 461 133 424 q 75 564 75 499 q 147 703 75 654 q 340 753 219 753 q 465 740 407 753 q 571 707 524 728 l 542 642 q 445 674 499 661 q 336 686 392 686 q 200 656 249 686 q 151 567 151 625 q 175 498 151 524 q 244 453 199 472 q 351 413 289 435 q 472 364 418 389 q 556 300 525 339 q 588 196 588 261 m 515 1053 q 476 1003 500 1031 q 425 947 453 976 q 369 891 397 918 q 314 842 340 864 l 258 842 l 258 854 q 315 919 285 882 q 375 996 346 957 q 421 1064 404 1035 l 515 1064 l 515 1053 z "},"Ŝ":{"ha":758,"x_min":75,"x_max":689,"o":"m 689 258 q 644 109 689 169 q 522 17 600 49 q 346 -14 444 -14 q 237 -8 286 -14 q 147 8 188 -1 q 75 31 107 18 l 75 110 q 198 74 128 89 q 350 58 268 58 q 484 80 426 58 q 574 145 542 101 q 607 253 607 189 q 580 350 607 313 q 497 416 553 388 q 353 474 440 444 q 241 519 290 496 q 157 575 192 543 q 104 651 122 607 q 86 754 86 694 q 128 892 86 836 q 241 976 169 947 q 403 1006 313 1006 q 541 992 476 1006 q 664 953 606 979 l 638 883 q 519 921 579 908 q 400 933 460 933 q 280 913 332 933 q 198 853 228 893 q 168 756 168 814 q 196 654 168 693 q 277 589 224 615 q 406 536 331 563 q 558 473 494 507 q 655 388 621 439 q 689 258 689 338 m 426 1315 q 472 1248 443 1286 q 534 1172 501 1210 q 592 1107 567 1135 l 592 1094 l 535 1094 q 458 1165 497 1125 q 386 1244 419 1206 q 315 1166 353 1206 q 239 1094 276 1126 l 182 1094 l 182 1107 q 240 1172 208 1135 q 301 1248 272 1210 q 349 1315 331 1286 l 426 1315 z "},"ŝ":{"ha":651,"x_min":64,"x_max":588,"o":"m 588 196 q 554 83 588 129 q 457 11 521 36 q 301 -14 393 -14 q 165 0 224 -14 q 64 33 106 14 l 64 110 q 176 69 114 86 q 303 53 238 53 q 461 90 413 53 q 510 190 510 128 q 487 259 510 232 q 419 308 464 286 q 307 351 374 329 q 186 399 239 375 q 104 461 133 424 q 75 564 75 499 q 147 703 75 654 q 340 753 219 753 q 465 740 407 753 q 571 707 524 728 l 542 642 q 445 674 499 661 q 336 686 392 686 q 200 656 249 686 q 151 567 151 625 q 175 498 151 524 q 244 453 199 472 q 351 413 289 435 q 472 364 418 389 q 556 300 525 339 q 588 196 588 261 m 365 1063 q 411 995 382 1033 q 473 919 440 957 q 531 854 506 882 l 531 842 l 474 842 q 397 913 436 872 q 325 992 358 953 q 253 913 292 953 q 178 842 215 874 l 121 842 l 121 854 q 179 919 147 882 q 240 995 211 957 q 288 1063 269 1033 l 365 1063 z "},"Ş":{"ha":758,"x_min":75,"x_max":689,"o":"m 689 258 q 644 109 689 169 q 522 17 600 49 q 346 -14 444 -14 q 237 -8 286 -14 q 147 8 188 -1 q 75 31 107 18 l 75 110 q 198 74 128 89 q 350 58 268 58 q 484 80 426 58 q 574 145 542 101 q 607 253 607 189 q 580 350 607 313 q 497 416 553 388 q 353 474 440 444 q 241 519 290 496 q 157 575 192 543 q 104 651 122 607 q 86 754 86 694 q 128 892 86 836 q 241 976 169 947 q 403 1006 313 1006 q 541 992 476 1006 q 664 953 606 979 l 638 883 q 519 921 579 908 q 400 933 460 933 q 280 913 332 933 q 198 853 228 893 q 168 756 168 814 q 196 654 168 693 q 277 589 224 615 q 406 536 331 563 q 558 473 494 507 q 655 388 621 439 q 689 258 689 338 m 496 -197 q 448 -297 496 -260 q 315 -333 400 -333 q 273 -331 292 -333 q 240 -325 254 -329 l 240 -271 q 275 -276 256 -275 q 317 -278 294 -278 q 399 -259 368 -278 q 429 -199 429 -240 q 394 -140 429 -158 q 294 -118 358 -122 l 356 0 l 413 0 l 372 -82 q 437 -100 408 -86 q 481 -138 465 -114 q 496 -197 496 -162 z "},"ş":{"ha":651,"x_min":64,"x_max":588,"o":"m 588 196 q 554 83 588 129 q 457 11 521 36 q 301 -14 393 -14 q 165 0 224 -14 q 64 33 106 14 l 64 110 q 176 69 114 86 q 303 53 238 53 q 461 90 413 53 q 510 190 510 128 q 487 259 510 232 q 419 308 464 286 q 307 351 374 329 q 186 399 239 375 q 104 461 133 424 q 75 564 75 499 q 147 703 75 654 q 340 753 219 753 q 465 740 407 753 q 571 707 524 728 l 542 642 q 445 674 499 661 q 336 686 392 686 q 200 656 249 686 q 151 567 151 625 q 175 498 151 524 q 244 453 199 472 q 351 413 289 435 q 472 364 418 389 q 556 300 525 339 q 588 196 588 261 m 454 -197 q 406 -297 454 -260 q 274 -333 358 -333 q 231 -331 250 -333 q 199 -325 213 -329 l 199 -271 q 233 -276 214 -275 q 275 -278 253 -278 q 357 -259 326 -278 q 388 -199 388 -240 q 352 -140 388 -158 q 253 -118 317 -122 l 314 0 l 371 0 l 331 -82 q 395 -100 367 -86 q 439 -138 424 -114 q 454 -197 454 -162 z "},"Š":{"ha":758,"x_min":75,"x_max":689,"o":"m 689 258 q 644 109 689 169 q 522 17 600 49 q 346 -14 444 -14 q 237 -8 286 -14 q 147 8 188 -1 q 75 31 107 18 l 75 110 q 198 74 128 89 q 350 58 268 58 q 484 80 426 58 q 574 145 542 101 q 607 253 607 189 q 580 350 607 313 q 497 416 553 388 q 353 474 440 444 q 241 519 290 496 q 157 575 192 543 q 104 651 122 607 q 86 754 86 694 q 128 892 86 836 q 241 976 169 947 q 403 1006 313 1006 q 541 992 476 1006 q 664 953 606 979 l 638 883 q 519 921 579 908 q 400 933 460 933 q 280 913 332 933 q 198 853 228 893 q 168 756 168 814 q 196 654 168 693 q 277 589 224 615 q 406 536 331 563 q 558 473 494 507 q 655 388 621 439 q 689 258 689 338 m 347 1094 q 300 1163 329 1125 q 240 1238 271 1200 q 182 1301 208 1275 l 182 1315 l 239 1315 q 315 1243 276 1283 q 385 1164 353 1203 q 458 1243 418 1203 q 535 1315 497 1283 l 592 1315 l 592 1301 q 534 1238 567 1275 q 472 1163 501 1200 q 425 1094 442 1125 l 347 1094 z "},"š":{"ha":651,"x_min":64,"x_max":588,"o":"m 588 196 q 554 83 588 129 q 457 11 521 36 q 301 -14 393 -14 q 165 0 224 -14 q 64 33 106 14 l 64 110 q 176 69 114 86 q 303 53 238 53 q 461 90 413 53 q 510 190 510 128 q 487 259 510 232 q 419 308 464 286 q 307 351 374 329 q 186 399 239 375 q 104 461 133 424 q 75 564 75 499 q 147 703 75 654 q 340 753 219 753 q 465 740 407 753 q 571 707 524 728 l 542 642 q 445 674 499 661 q 336 686 392 686 q 200 656 249 686 q 151 567 151 625 q 175 498 151 524 q 244 453 199 472 q 351 413 289 435 q 472 364 418 389 q 556 300 525 339 q 588 196 588 261 m 286 842 q 239 910 268 872 q 178 985 210 947 q 121 1049 147 1022 l 121 1063 l 178 1063 q 253 990 215 1031 q 324 911 292 950 q 397 990 357 950 q 474 1063 436 1031 l 531 1063 l 531 1049 q 473 985 506 1022 q 410 910 440 947 q 364 842 381 872 l 286 842 z "},"Ț":{"ha":738,"x_min":8,"x_max":728,"o":"m 408 0 l 328 0 l 328 919 l 8 919 l 8 992 l 728 992 l 728 919 l 408 919 l 408 0 m 440 -94 q 419 -162 433 -125 q 385 -237 404 -200 q 344 -307 367 -275 l 299 -307 l 299 -294 q 323 -234 310 -272 q 347 -155 336 -196 q 360 -85 357 -114 l 440 -85 l 440 -94 z "},"ț":{"ha":472,"x_min":18,"x_max":438,"o":"m 331 54 q 390 59 363 54 q 438 71 418 64 l 438 7 q 386 -8 417 -1 q 321 -14 356 -14 q 217 9 260 -14 q 151 81 174 32 q 128 206 128 129 l 128 675 l 18 675 l 18 719 l 128 746 l 156 915 l 207 915 l 207 739 l 433 739 l 433 675 l 207 675 l 207 210 q 237 94 207 133 q 331 54 267 54 m 353 -94 q 331 -162 346 -125 q 298 -237 317 -200 q 257 -307 279 -275 l 211 -307 l 211 -294 q 235 -234 222 -272 q 259 -155 249 -196 q 272 -85 269 -114 l 353 -85 l 353 -94 z "},"Ť":{"ha":738,"x_min":8,"x_max":728,"o":"m 408 0 l 328 0 l 328 919 l 8 919 l 8 992 l 728 992 l 728 919 l 408 919 l 408 0 m 329 1094 q 282 1163 311 1125 q 222 1238 253 1200 q 164 1301 190 1275 l 164 1315 l 221 1315 q 297 1243 258 1283 q 367 1164 335 1203 q 440 1243 400 1203 q 517 1315 479 1283 l 574 1315 l 574 1301 q 516 1238 549 1275 q 453 1163 483 1200 q 407 1094 424 1125 l 329 1094 z "},"ť":{"ha":472,"x_min":18,"x_max":581,"o":"m 581 1046 q 560 978 574 1015 q 528 903 546 940 q 490 833 510 865 l 444 833 l 444 846 q 461 890 453 864 q 477 947 469 917 q 491 1005 485 976 q 500 1056 497 1033 l 581 1056 l 581 1046 m 331 54 q 390 59 363 54 q 438 71 418 64 l 438 7 q 386 -8 417 -1 q 321 -14 356 -14 q 217 9 260 -14 q 151 81 174 32 q 128 206 128 129 l 128 675 l 18 675 l 18 719 l 128 746 l 156 915 l 207 915 l 207 739 l 433 739 l 433 675 l 207 675 l 207 210 q 237 94 207 133 q 331 54 267 54 z "},"Ŧ":{"ha":738,"x_min":8,"x_max":728,"o":"m 328 0 l 328 472 l 92 472 l 92 542 l 328 542 l 328 919 l 8 919 l 8 992 l 728 992 l 728 919 l 408 919 l 408 542 l 642 542 l 642 472 l 408 472 l 408 0 l 328 0 z "},"ŧ":{"ha":472,"x_min":18,"x_max":438,"o":"m 29 393 l 29 456 l 414 456 l 414 393 l 29 393 m 331 54 q 390 59 363 54 q 438 71 418 64 l 438 7 q 386 -8 417 -1 q 321 -14 356 -14 q 217 9 260 -14 q 151 81 174 32 q 128 206 128 129 l 128 675 l 18 675 l 18 719 l 128 746 l 156 915 l 207 915 l 207 739 l 433 739 l 433 675 l 207 675 l 207 210 q 237 94 207 133 q 331 54 267 54 z "},"Ũ":{"ha":1003,"x_min":129,"x_max":874,"o":"m 874 350 q 830 156 874 238 q 702 30 786 74 q 499 -14 618 -14 q 224 83 319 -14 q 129 353 129 181 l 129 992 l 210 992 l 210 353 q 285 133 210 208 q 503 58 360 58 q 662 92 597 58 q 760 190 726 126 q 794 344 794 254 l 794 992 l 874 992 l 874 350 m 263 1103 q 277 1171 267 1142 q 306 1219 288 1200 q 347 1249 324 1239 q 401 1260 371 1260 q 460 1246 433 1260 q 512 1214 488 1232 q 560 1182 536 1196 q 608 1168 583 1168 q 661 1188 639 1168 q 692 1261 683 1208 l 743 1261 q 700 1144 736 1186 q 604 1103 664 1103 q 546 1117 572 1103 q 495 1149 519 1131 q 447 1181 471 1167 q 397 1194 424 1194 q 345 1174 367 1194 q 315 1103 324 1154 l 263 1103 z "},"ũ":{"ha":828,"x_min":113,"x_max":704,"o":"m 704 739 l 704 0 l 640 0 l 628 126 l 624 126 q 569 54 604 86 q 485 4 533 22 q 372 -14 436 -14 q 229 16 288 -14 q 142 106 171 46 q 113 256 113 165 l 113 739 l 192 739 l 192 263 q 240 106 192 157 q 382 54 288 54 q 517 86 464 54 q 598 181 571 118 q 625 336 625 243 l 625 739 l 704 739 m 175 850 q 190 918 179 889 q 218 967 200 947 q 260 997 236 986 q 314 1007 283 1007 q 373 993 346 1007 q 424 961 400 979 q 472 929 449 943 q 521 915 496 915 q 574 935 551 915 q 604 1008 596 956 l 656 1008 q 613 892 649 933 q 517 850 576 850 q 458 864 485 850 q 408 896 432 878 q 360 928 383 914 q 310 942 336 942 q 258 922 279 942 q 228 850 236 901 l 175 850 z "},"Ū":{"ha":1003,"x_min":129,"x_max":874,"o":"m 874 350 q 830 156 874 238 q 702 30 786 74 q 499 -14 618 -14 q 224 83 319 -14 q 129 353 129 181 l 129 992 l 210 992 l 210 353 q 285 133 210 208 q 503 58 360 58 q 662 92 597 58 q 760 190 726 126 q 794 344 794 254 l 794 992 l 874 992 l 874 350 m 693 1167 l 693 1100 l 310 1100 l 310 1167 l 693 1167 z "},"ū":{"ha":828,"x_min":113,"x_max":704,"o":"m 704 739 l 704 0 l 640 0 l 628 126 l 624 126 q 569 54 604 86 q 485 4 533 22 q 372 -14 436 -14 q 229 16 288 -14 q 142 106 171 46 q 113 256 113 165 l 113 739 l 192 739 l 192 263 q 240 106 192 157 q 382 54 288 54 q 517 86 464 54 q 598 181 571 118 q 625 336 625 243 l 625 739 l 704 739 m 606 914 l 606 847 l 222 847 l 222 914 l 606 914 z "},"Ŭ":{"ha":1003,"x_min":129,"x_max":874,"o":"m 874 350 q 830 156 874 238 q 702 30 786 74 q 499 -14 618 -14 q 224 83 319 -14 q 129 353 129 181 l 129 992 l 210 992 l 210 353 q 285 133 210 208 q 503 58 360 58 q 662 92 597 58 q 760 190 726 126 q 794 344 794 254 l 794 992 l 874 992 l 874 350 m 694 1265 q 666 1174 690 1213 q 600 1115 642 1136 q 500 1094 558 1094 q 363 1140 411 1094 q 308 1265 315 1185 l 364 1265 q 384 1206 368 1229 q 430 1172 400 1182 q 501 1161 460 1161 q 571 1172 542 1161 q 617 1206 600 1183 q 639 1265 635 1229 l 694 1265 z "},"ŭ":{"ha":828,"x_min":113,"x_max":704,"o":"m 704 739 l 704 0 l 640 0 l 628 126 l 624 126 q 569 54 604 86 q 485 4 533 22 q 372 -14 436 -14 q 229 16 288 -14 q 142 106 171 46 q 113 256 113 165 l 113 739 l 192 739 l 192 263 q 240 106 192 157 q 382 54 288 54 q 517 86 464 54 q 598 181 571 118 q 625 336 625 243 l 625 739 l 704 739 m 607 1013 q 578 922 603 960 q 513 863 554 883 q 413 842 471 842 q 276 887 324 842 q 221 1013 228 932 l 276 1013 q 297 953 281 976 q 342 919 313 929 q 414 908 372 908 q 483 919 454 908 q 530 953 513 931 q 551 1013 547 976 l 607 1013 z "},"Ů":{"ha":1003,"x_min":129,"x_max":874,"o":"m 874 350 q 830 156 874 238 q 702 30 786 74 q 499 -14 618 -14 q 224 83 319 -14 q 129 353 129 181 l 129 992 l 210 992 l 210 353 q 285 133 210 208 q 503 58 360 58 q 662 92 597 58 q 760 190 726 126 q 794 344 794 254 l 794 992 l 874 992 l 874 350 m 501 1099 q 398 1137 440 1099 q 356 1242 356 1175 q 397 1344 356 1306 q 501 1383 439 1383 q 606 1344 563 1383 q 649 1242 649 1304 q 606 1138 649 1176 q 501 1099 564 1099 m 501 1150 q 568 1176 543 1150 q 593 1242 593 1201 q 567 1308 593 1282 q 501 1333 540 1333 q 436 1308 463 1333 q 410 1242 410 1282 q 435 1176 410 1201 q 501 1150 460 1150 z "},"ů":{"ha":828,"x_min":113,"x_max":704,"o":"m 704 739 l 704 0 l 640 0 l 628 126 l 624 126 q 569 54 604 86 q 485 4 533 22 q 372 -14 436 -14 q 229 16 288 -14 q 142 106 171 46 q 113 256 113 165 l 113 739 l 192 739 l 192 263 q 240 106 192 157 q 382 54 288 54 q 517 86 464 54 q 598 181 571 118 q 625 336 625 243 l 625 739 l 704 739 m 414 846 q 310 884 353 846 q 268 989 268 922 q 310 1092 268 1053 q 414 1131 351 1131 q 518 1091 475 1131 q 561 989 561 1051 q 519 885 561 924 q 414 846 476 846 m 414 897 q 481 923 456 897 q 506 989 506 949 q 479 1055 506 1029 q 414 1081 453 1081 q 349 1055 375 1081 q 322 989 322 1029 q 347 923 322 949 q 414 897 372 897 z "},"Ű":{"ha":1003,"x_min":129,"x_max":874,"o":"m 874 350 q 830 156 874 238 q 702 30 786 74 q 499 -14 618 -14 q 224 83 319 -14 q 129 353 129 181 l 129 992 l 210 992 l 210 353 q 285 133 210 208 q 503 58 360 58 q 662 92 597 58 q 760 190 726 126 q 794 344 794 254 l 794 992 l 874 992 l 874 350 m 729 1306 q 697 1256 717 1283 q 652 1199 676 1229 q 603 1143 628 1169 q 556 1094 578 1117 l 506 1094 l 506 1107 q 553 1172 528 1135 q 603 1247 579 1208 q 642 1317 628 1286 l 729 1317 l 729 1306 m 496 1306 q 463 1256 483 1283 q 419 1199 443 1229 q 369 1143 394 1169 q 322 1094 344 1117 l 272 1094 l 272 1107 q 320 1172 294 1135 q 369 1247 346 1208 q 408 1317 393 1286 l 496 1317 l 496 1306 z "},"ű":{"ha":828,"x_min":113,"x_max":704,"o":"m 704 739 l 704 0 l 640 0 l 628 126 l 624 126 q 569 54 604 86 q 485 4 533 22 q 372 -14 436 -14 q 229 16 288 -14 q 142 106 171 46 q 113 256 113 165 l 113 739 l 192 739 l 192 263 q 240 106 192 157 q 382 54 288 54 q 517 86 464 54 q 598 181 571 118 q 625 336 625 243 l 625 739 l 704 739 m 642 1053 q 609 1003 629 1031 q 565 947 589 976 q 515 890 540 917 q 468 842 490 864 l 418 842 l 418 854 q 466 919 440 882 q 516 994 492 956 q 554 1064 540 1033 l 642 1064 l 642 1053 m 408 1053 q 376 1003 396 1031 q 331 947 356 976 q 282 890 307 917 q 235 842 257 864 l 185 842 l 185 854 q 233 919 207 882 q 282 994 258 956 q 321 1064 306 1033 l 408 1064 l 408 1053 z "},"Ų":{"ha":1003,"x_min":129,"x_max":874,"o":"m 624 -158 q 642 -224 624 -204 q 694 -244 660 -244 q 733 -242 717 -244 q 761 -236 750 -239 l 761 -292 q 727 -299 746 -296 q 683 -303 708 -303 q 590 -270 624 -303 q 556 -168 556 -237 q 576 -80 556 -122 q 629 -1 597 -37 q 696 63 661 35 l 749 64 q 687 -8 715 28 q 641 -80 658 -43 q 624 -158 624 -117 m 874 350 q 830 156 874 238 q 702 30 786 74 q 499 -14 618 -14 q 224 83 319 -14 q 129 353 129 181 l 129 992 l 210 992 l 210 353 q 285 133 210 208 q 503 58 360 58 q 662 92 597 58 q 760 190 726 126 q 794 344 794 254 l 794 992 l 874 992 l 874 350 z "},"ų":{"ha":828,"x_min":113,"x_max":719,"o":"m 704 739 l 704 0 l 640 0 l 628 126 l 624 126 q 569 54 604 86 q 485 4 533 22 q 372 -14 436 -14 q 229 16 288 -14 q 142 106 171 46 q 113 256 113 165 l 113 739 l 192 739 l 192 263 q 240 106 192 157 q 382 54 288 54 q 517 86 464 54 q 598 181 571 118 q 625 336 625 243 l 625 739 l 704 739 m 582 -171 q 601 -226 582 -207 q 654 -244 619 -244 q 692 -242 675 -244 q 721 -236 710 -239 l 721 -292 q 687 -299 706 -296 q 643 -303 668 -303 q 548 -272 582 -303 q 514 -181 514 -240 q 531 -109 514 -144 q 579 -42 549 -74 q 647 18 610 -10 l 693 0 q 614 -82 646 -40 q 582 -171 582 -124 z "},"Ŵ":{"ha":1250,"x_min":32,"x_max":1219,"o":"m 1219 992 l 950 0 l 871 0 l 663 729 q 649 777 656 754 q 638 822 643 800 q 627 860 632 843 q 619 892 622 878 q 615 861 618 878 q 606 826 611 844 q 597 786 601 807 q 585 743 592 765 l 378 0 l 299 0 l 32 992 l 115 992 l 296 311 q 310 257 303 283 q 322 206 317 231 q 333 158 328 181 q 342 111 338 135 q 351 159 346 135 q 361 208 356 183 q 374 260 367 233 q 389 315 382 288 l 581 992 l 663 992 l 860 311 q 875 255 868 282 q 888 203 882 228 q 899 154 894 178 q 908 108 904 131 q 919 172 913 140 q 933 237 925 203 q 953 311 942 271 l 1136 992 l 1219 992 m 665 1315 q 711 1248 682 1286 q 773 1172 740 1210 q 831 1107 806 1135 l 831 1094 l 774 1094 q 697 1165 736 1125 q 625 1244 658 1206 q 553 1166 592 1206 q 478 1094 515 1126 l 421 1094 l 421 1107 q 479 1172 447 1135 q 540 1248 511 1210 q 588 1315 569 1286 l 665 1315 z "},"ŵ":{"ha":1022,"x_min":19,"x_max":1003,"o":"m 564 481 q 550 526 557 504 q 538 569 543 549 q 527 608 532 589 q 518 644 522 628 l 514 644 q 505 608 510 628 q 494 567 500 589 q 483 524 489 546 q 468 479 476 503 l 313 0 l 228 0 l 19 739 l 103 739 l 226 283 q 247 208 239 242 q 262 145 256 174 q 272 92 268 117 l 276 92 q 285 128 281 108 q 296 172 290 149 q 309 219 301 194 q 325 272 317 244 l 478 739 l 558 739 l 706 272 q 725 207 715 239 q 742 146 735 175 q 754 93 750 117 l 758 93 q 767 144 761 115 q 783 208 774 172 q 801 283 792 243 l 922 739 l 1003 739 l 801 0 l 715 0 l 564 481 m 551 1063 q 597 995 568 1033 q 659 919 626 957 q 717 854 692 882 l 717 842 l 660 842 q 583 913 622 872 q 511 992 544 953 q 440 913 478 953 q 364 842 401 874 l 307 842 l 307 854 q 365 919 333 882 q 426 995 397 957 q 474 1063 456 1033 l 551 1063 z "},"Ŷ":{"ha":744,"x_min":0,"x_max":744,"o":"m 372 461 l 656 992 l 744 992 l 414 383 l 414 0 l 333 0 l 333 378 l 0 992 l 89 992 l 372 461 m 413 1315 q 458 1248 429 1286 q 520 1172 488 1210 q 578 1107 553 1135 l 578 1094 l 521 1094 q 444 1165 483 1125 q 372 1244 406 1206 q 301 1166 339 1206 q 225 1094 263 1126 l 168 1094 l 168 1107 q 226 1172 194 1135 q 288 1248 258 1210 q 335 1315 317 1286 l 413 1315 z "},"ŷ":{"ha":651,"x_min":1,"x_max":653,"o":"m 1 739 l 85 739 l 261 281 q 289 204 276 239 q 311 140 301 169 q 326 85 321 110 l 331 85 q 358 168 340 118 q 396 278 375 218 l 568 739 l 653 739 l 319 -131 q 265 -242 296 -196 q 193 -311 235 -287 q 92 -335 151 -335 q 44 -331 65 -335 q 4 -322 22 -328 l 4 -256 q 40 -265 21 -261 q 82 -268 60 -268 q 151 -252 122 -268 q 201 -203 179 -236 q 243 -121 224 -171 l 290 3 l 1 739 m 365 1063 q 411 995 382 1033 q 473 919 440 957 q 531 854 506 882 l 531 842 l 474 842 q 397 913 436 872 q 325 992 358 953 q 253 913 292 953 q 178 842 215 874 l 121 842 l 121 854 q 179 919 147 882 q 240 995 211 957 q 288 1063 269 1033 l 365 1063 z "},"Ÿ":{"ha":744,"x_min":0,"x_max":744,"o":"m 372 461 l 656 992 l 744 992 l 414 383 l 414 0 l 333 0 l 333 378 l 0 992 l 89 992 l 372 461 m 196 1197 q 209 1238 196 1224 q 244 1253 222 1253 q 282 1238 269 1253 q 294 1197 294 1224 q 282 1156 294 1171 q 244 1140 269 1140 q 209 1156 222 1140 q 196 1197 196 1171 m 454 1197 q 467 1238 454 1224 q 503 1253 481 1253 q 540 1238 528 1253 q 553 1197 553 1224 q 540 1156 553 1171 q 503 1140 528 1140 q 467 1156 481 1140 q 454 1197 454 1171 z "},"Ź":{"ha":799,"x_min":51,"x_max":744,"o":"m 744 0 l 51 0 l 51 60 l 628 919 l 79 919 l 79 992 l 729 992 l 729 932 l 153 74 l 744 74 l 744 0 m 592 1306 q 553 1256 576 1283 q 501 1200 529 1229 q 445 1144 474 1171 q 390 1094 417 1117 l 335 1094 l 335 1107 q 392 1172 361 1135 q 451 1249 422 1210 q 497 1317 481 1288 l 592 1317 l 592 1306 z "},"ź":{"ha":643,"x_min":56,"x_max":586,"o":"m 586 0 l 56 0 l 56 53 l 489 675 l 86 675 l 86 739 l 583 739 l 583 683 l 151 65 l 586 65 l 586 0 m 511 1053 q 472 1003 496 1031 q 421 947 449 976 q 365 891 393 918 q 310 842 336 864 l 254 842 l 254 854 q 311 919 281 882 q 371 996 342 957 q 417 1064 400 1035 l 511 1064 l 511 1053 z "},"Ż":{"ha":799,"x_min":51,"x_max":744,"o":"m 744 0 l 51 0 l 51 60 l 628 919 l 79 919 l 79 992 l 729 992 l 729 932 l 153 74 l 744 74 l 744 0 m 403 1265 q 443 1249 429 1265 q 457 1206 457 1233 q 443 1160 457 1176 q 403 1144 429 1144 q 363 1160 376 1144 q 349 1206 349 1176 q 363 1249 349 1233 q 403 1265 376 1265 z "},"ż":{"ha":643,"x_min":56,"x_max":586,"o":"m 586 0 l 56 0 l 56 53 l 489 675 l 86 675 l 86 739 l 583 739 l 583 683 l 151 65 l 586 65 l 586 0 m 322 1013 q 363 997 349 1013 q 376 953 376 981 q 363 908 376 924 q 322 892 349 892 q 282 908 296 892 q 268 953 268 924 q 282 997 268 981 q 322 1013 296 1013 z "},"Ž":{"ha":799,"x_min":51,"x_max":744,"o":"m 744 0 l 51 0 l 51 60 l 628 919 l 79 919 l 79 992 l 729 992 l 729 932 l 153 74 l 744 74 l 744 0 m 363 1094 q 315 1163 344 1125 q 255 1238 286 1200 q 197 1301 224 1275 l 197 1315 l 254 1315 q 330 1243 292 1283 q 400 1164 368 1203 q 473 1243 433 1203 q 550 1315 513 1283 l 607 1315 l 607 1301 q 549 1238 582 1275 q 487 1163 517 1200 q 440 1094 457 1125 l 363 1094 z "},"ž":{"ha":643,"x_min":56,"x_max":586,"o":"m 586 0 l 56 0 l 56 53 l 489 675 l 86 675 l 86 739 l 583 739 l 583 683 l 151 65 l 586 65 l 586 0 m 282 842 q 235 910 264 872 q 174 985 206 947 q 117 1049 143 1022 l 117 1063 l 174 1063 q 249 990 211 1031 q 319 911 288 950 q 392 990 353 950 q 469 1063 432 1031 l 526 1063 l 526 1049 q 469 985 501 1022 q 406 910 436 947 q 360 842 376 872 l 282 842 z "},"ſ":{"ha":431,"x_min":122,"x_max":467,"o":"m 349 994 q 239 949 276 994 q 201 806 201 903 l 201 0 l 122 0 l 122 807 q 149 949 122 893 q 227 1034 176 1006 q 349 1063 278 1063 q 413 1058 385 1063 q 467 1043 442 1053 l 449 978 q 402 990 426 985 q 349 994 378 994 z "},"ƒ":{"ha":547,"x_min":-11,"x_max":622,"o":"m 172 -337 q 38 -290 86 -337 q -11 -161 -11 -242 q -8 -125 -11 -142 q -1 -94 -6 -108 l 68 -111 q 65 -130 67 -118 q 63 -157 63 -142 q 89 -241 63 -211 q 164 -271 115 -271 q 243 -236 214 -271 q 272 -124 272 -201 l 272 675 l 136 675 l 136 718 l 272 742 l 272 815 q 297 953 272 899 q 370 1035 321 1008 q 493 1063 419 1063 q 565 1056 533 1063 q 622 1042 596 1050 l 604 976 q 551 990 581 985 q 494 996 522 996 q 385 953 419 996 q 351 815 351 911 l 351 739 l 528 739 l 528 675 l 351 675 l 351 -122 q 331 -238 351 -190 q 272 -312 311 -286 q 172 -337 232 -337 z "},"Ǻ":{"ha":844,"x_min":-6,"x_max":849,"o":"m 372 824 q 303 871 329 836 q 276 960 276 906 q 318 1065 276 1025 q 425 1104 360 1104 q 532 1065 490 1104 q 574 960 574 1026 q 548 873 574 907 q 479 824 522 839 l 849 0 l 764 0 l 631 296 l 213 296 l 79 0 l -6 0 l 372 824 m 243 368 l 604 368 l 468 679 q 453 711 461 693 q 439 749 446 729 q 425 789 432 769 q 414 760 419 775 q 403 730 408 744 q 392 702 397 715 q 382 678 386 689 l 243 368 m 424 863 q 493 888 467 863 q 519 960 519 913 q 494 1029 519 1004 q 424 1054 468 1054 q 355 1029 382 1054 q 328 960 328 1004 q 354 888 328 914 q 424 863 381 863 m 382 1157 q 433 1213 407 1182 q 482 1276 458 1243 q 522 1336 506 1308 l 617 1336 l 617 1325 q 583 1283 603 1306 q 538 1235 563 1260 q 488 1189 514 1211 q 438 1147 463 1167 l 382 1147 l 382 1157 z "},"ǻ":{"ha":744,"x_min":65,"x_max":631,"o":"m 383 751 q 569 691 508 751 q 631 497 631 631 l 631 0 l 571 0 l 557 125 l 553 125 q 492 52 526 83 q 410 3 458 21 q 294 -14 363 -14 q 172 10 224 -14 q 93 81 121 35 q 65 193 65 126 q 156 362 65 304 q 418 426 246 419 l 553 433 l 553 485 q 509 640 553 594 q 381 685 465 685 q 271 670 324 685 q 165 629 218 656 l 140 693 q 255 735 193 718 q 383 751 317 751 m 428 368 q 218 319 288 361 q 149 193 149 276 q 191 89 149 125 q 308 53 233 53 q 488 119 425 53 q 553 301 551 185 l 553 374 l 428 368 m 383 1056 q 317 1030 343 1056 q 290 964 290 1004 q 315 898 290 924 q 383 872 340 872 q 449 898 424 872 q 475 964 475 924 q 448 1030 475 1004 q 383 1056 421 1056 m 383 1106 q 458 1088 425 1106 q 510 1038 490 1069 q 529 964 529 1007 q 487 860 529 899 q 383 821 444 821 q 279 859 321 821 q 238 964 238 897 q 279 1067 238 1028 q 383 1106 321 1106 m 569 1317 q 516 1264 550 1293 q 444 1206 482 1235 q 374 1154 406 1178 l 315 1154 l 315 1164 q 365 1214 339 1186 q 416 1271 392 1242 q 457 1325 440 1300 l 569 1325 l 569 1317 z "},"Ǽ":{"ha":1142,"x_min":-1,"x_max":1092,"o":"m 1092 0 l 565 0 l 565 342 l 239 342 l 85 0 l -1 0 l 447 992 l 1092 992 l 1092 919 l 646 919 l 646 557 l 1064 557 l 1064 485 l 646 485 l 646 72 l 1092 72 l 1092 0 m 271 414 l 565 414 l 565 919 l 496 919 l 271 414 m 797 1306 q 758 1256 782 1283 q 707 1200 735 1229 q 651 1144 679 1171 q 596 1094 622 1117 l 540 1094 l 540 1107 q 597 1172 567 1135 q 657 1249 628 1210 q 703 1317 686 1288 l 797 1317 l 797 1306 z "},"ǽ":{"ha":1190,"x_min":65,"x_max":1115,"o":"m 839 753 q 990 709 928 753 q 1083 590 1051 665 q 1113 415 1115 514 l 1113 360 l 617 360 q 682 133 618 210 q 860 56 746 56 q 974 67 925 56 q 1082 106 1024 79 l 1082 33 q 975 -2 1028 10 q 858 -14 922 -14 q 732 9 788 -14 q 638 74 676 32 q 575 172 599 115 q 514 75 550 117 q 424 10 478 33 q 296 -14 371 -14 q 174 10 225 -14 q 94 81 122 35 q 65 193 65 126 q 105 317 65 268 q 221 394 144 367 q 407 426 297 422 l 536 433 l 536 486 q 492 640 536 594 q 368 685 449 685 q 261 670 314 685 q 156 629 208 656 l 131 693 q 247 735 183 719 q 372 751 310 751 q 519 712 464 751 q 593 586 574 672 q 688 707 626 661 q 839 753 750 753 m 418 368 q 216 319 283 361 q 149 193 149 276 q 190 89 149 125 q 306 53 232 53 q 429 83 378 53 q 508 168 481 113 q 535 301 535 224 l 535 374 l 418 368 m 838 686 q 688 619 747 686 q 619 425 629 553 l 1029 425 q 1009 562 1031 503 q 945 653 988 621 q 838 686 903 686 m 790 1053 q 751 1003 775 1031 q 700 947 728 976 q 644 891 672 918 q 589 842 615 864 l 533 842 l 533 854 q 590 919 560 882 q 650 996 621 957 q 696 1064 679 1035 l 790 1064 l 790 1053 z "},"Ǿ":{"ha":1067,"x_min":86,"x_max":979,"o":"m 979 497 q 951 290 979 383 q 867 128 924 197 q 728 23 811 60 q 533 -14 644 -14 q 382 8 450 -14 q 263 69 314 29 l 183 -39 l 126 -1 l 210 114 q 117 281 149 183 q 86 499 86 379 q 137 765 86 650 q 288 943 188 879 q 538 1007 389 1007 q 682 987 617 1007 q 799 931 747 967 l 872 1032 l 928 993 l 850 886 q 946 722 913 821 q 979 497 979 624 m 894 497 q 803 819 894 707 l 306 132 q 406 78 349 97 q 533 58 463 58 q 738 113 658 58 q 856 266 818 167 q 894 497 894 365 m 171 499 q 192 321 171 401 q 258 182 214 240 l 754 868 q 659 917 714 900 q 538 935 604 935 q 332 881 414 935 q 210 728 250 826 q 171 499 171 629 m 724 1306 q 685 1256 708 1283 q 633 1200 661 1229 q 577 1144 606 1171 q 522 1094 549 1117 l 467 1094 l 467 1107 q 524 1172 493 1135 q 583 1249 554 1210 q 629 1317 613 1288 l 724 1317 l 724 1306 z "},"ǿ":{"ha":819,"x_min":79,"x_max":740,"o":"m 740 371 q 702 169 740 256 q 590 34 664 82 q 408 -14 517 -14 q 297 4 346 -14 q 208 54 247 22 l 135 -42 l 82 -3 l 161 99 q 100 219 121 150 q 79 371 79 288 q 169 651 79 550 q 414 753 258 753 q 522 736 474 753 q 608 690 571 719 l 676 779 l 731 742 l 657 646 q 719 526 697 596 q 740 371 740 456 m 161 371 q 172 256 161 308 q 207 164 183 204 l 565 632 q 499 671 538 657 q 413 685 461 685 q 224 601 288 685 q 161 371 161 518 m 658 371 q 647 487 658 433 q 610 581 635 540 l 251 111 q 320 69 281 85 q 410 54 360 54 q 551 94 496 54 q 632 205 606 133 q 658 371 658 276 m 600 1053 q 561 1003 585 1031 q 510 947 538 976 q 453 891 482 918 q 399 842 425 864 l 343 842 l 343 854 q 400 919 369 882 q 460 996 431 957 q 506 1064 489 1035 l 600 1064 l 600 1053 z "},"Ș":{"ha":758,"x_min":75,"x_max":689,"o":"m 689 258 q 644 109 689 169 q 522 17 600 49 q 346 -14 444 -14 q 237 -8 286 -14 q 147 8 188 -1 q 75 31 107 18 l 75 110 q 198 74 128 89 q 350 58 268 58 q 484 80 426 58 q 574 145 542 101 q 607 253 607 189 q 580 350 607 313 q 497 416 553 388 q 353 474 440 444 q 241 519 290 496 q 157 575 192 543 q 104 651 122 607 q 86 754 86 694 q 128 892 86 836 q 241 976 169 947 q 403 1006 313 1006 q 541 992 476 1006 q 664 953 606 979 l 638 883 q 519 921 579 908 q 400 933 460 933 q 280 913 332 933 q 198 853 228 893 q 168 756 168 814 q 196 654 168 693 q 277 589 224 615 q 406 536 331 563 q 558 473 494 507 q 655 388 621 439 q 689 258 689 338 m 439 -94 q 417 -162 432 -125 q 384 -237 403 -200 q 343 -307 365 -275 l 297 -307 l 297 -294 q 322 -234 308 -272 q 345 -155 335 -196 q 358 -85 356 -114 l 439 -85 l 439 -94 z "},"ș":{"ha":651,"x_min":64,"x_max":588,"o":"m 588 196 q 554 83 588 129 q 457 11 521 36 q 301 -14 393 -14 q 165 0 224 -14 q 64 33 106 14 l 64 110 q 176 69 114 86 q 303 53 238 53 q 461 90 413 53 q 510 190 510 128 q 487 259 510 232 q 419 308 464 286 q 307 351 374 329 q 186 399 239 375 q 104 461 133 424 q 75 564 75 499 q 147 703 75 654 q 340 753 219 753 q 465 740 407 753 q 571 707 524 728 l 542 642 q 445 674 499 661 q 336 686 392 686 q 200 656 249 686 q 151 567 151 625 q 175 498 151 524 q 244 453 199 472 q 351 413 289 435 q 472 364 418 389 q 556 300 525 339 q 588 196 588 261 m 397 -94 q 376 -162 390 -125 q 342 -237 361 -200 q 301 -307 324 -275 l 256 -307 l 256 -294 q 280 -234 267 -272 q 303 -155 293 -196 q 317 -85 314 -114 l 397 -85 l 397 -94 z "},"ˆ":{"ha":521,"x_min":56,"x_max":465,"o":"m 300 1063 q 346 995 317 1033 q 408 919 375 957 q 465 854 440 882 l 465 842 l 408 842 q 332 913 371 872 q 260 992 293 953 q 188 913 226 953 q 113 842 150 874 l 56 842 l 56 854 q 114 919 82 882 q 175 995 146 957 q 222 1063 204 1033 l 300 1063 z "},"ˇ":{"ha":521,"x_min":56,"x_max":465,"o":"m 221 842 q 174 910 203 872 q 113 985 144 947 q 56 1049 82 1022 l 56 1063 l 113 1063 q 188 990 150 1031 q 258 911 226 950 q 331 990 292 950 q 408 1063 371 1031 l 465 1063 l 465 1049 q 408 985 440 1022 q 345 910 375 947 q 299 842 315 872 l 221 842 z "},"ˉ":{"ha":494,"x_min":56,"x_max":439,"o":"m 439 914 l 439 847 l 56 847 l 56 914 l 439 914 z "},"˘":{"ha":497,"x_min":56,"x_max":442,"o":"m 442 1013 q 413 922 438 960 q 347 863 389 883 q 247 842 306 842 q 110 887 158 842 q 56 1013 63 932 l 111 1013 q 131 953 115 976 q 177 919 147 929 q 249 908 207 908 q 318 919 289 908 q 365 953 347 931 q 386 1013 382 976 l 442 1013 z "},"˙":{"ha":219,"x_min":56,"x_max":164,"o":"m 110 1013 q 150 997 136 1013 q 164 953 164 981 q 150 908 164 924 q 110 892 136 892 q 69 908 83 892 q 56 953 56 924 q 69 997 56 981 q 110 1013 83 1013 z "},"˚":{"ha":404,"x_min":56,"x_max":349,"o":"m 201 846 q 98 884 140 846 q 56 989 56 922 q 97 1092 56 1053 q 201 1131 139 1131 q 306 1091 263 1131 q 349 989 349 1051 q 306 885 349 924 q 201 846 264 846 m 201 897 q 268 923 243 897 q 293 989 293 949 q 267 1055 293 1029 q 201 1081 240 1081 q 136 1055 163 1081 q 110 989 110 1029 q 135 923 110 949 q 201 897 160 897 z "},"˛":{"ha":318,"x_min":56,"x_max":263,"o":"m 124 -171 q 142 -226 124 -207 q 196 -244 161 -244 q 234 -242 217 -244 q 263 -236 251 -239 l 263 -292 q 228 -299 247 -296 q 185 -303 210 -303 q 90 -272 124 -303 q 56 -181 56 -240 q 73 -109 56 -144 q 121 -42 90 -74 q 189 18 151 -10 l 235 0 q 156 -82 188 -40 q 124 -171 124 -124 z "},"˜":{"ha":592,"x_min":56,"x_max":536,"o":"m 56 850 q 70 918 60 889 q 99 967 81 947 q 140 997 117 986 q 194 1007 164 1007 q 253 993 226 1007 q 305 961 281 979 q 353 929 329 943 q 401 915 376 915 q 454 935 432 915 q 485 1008 476 956 l 536 1008 q 493 892 529 933 q 397 850 457 850 q 339 864 365 850 q 288 896 313 878 q 240 928 264 914 q 190 942 217 942 q 138 922 160 942 q 108 850 117 901 l 56 850 z "},"˝":{"ha":568,"x_min":56,"x_max":513,"o":"m 513 1053 q 480 1003 500 1031 q 435 947 460 976 q 386 890 411 917 q 339 842 361 864 l 289 842 l 289 854 q 337 919 311 882 q 387 994 363 956 q 425 1064 411 1033 l 513 1064 l 513 1053 m 279 1053 q 247 1003 267 1031 q 202 947 226 976 q 153 890 178 917 q 106 842 128 864 l 56 842 l 56 854 q 103 919 78 882 q 153 994 129 956 q 192 1064 176 1033 l 279 1064 l 279 1053 z "},"΄":{"ha":274,"x_min":56,"x_max":218,"o":"m 56 842 l 56 854 l 124 1078 l 218 1078 l 218 1067 l 111 842 l 56 842 z "},"΅":{"ha":843,"x_min":222,"x_max":619,"o":"m 356 842 l 356 854 l 411 1078 l 506 1078 l 506 1067 l 411 842 l 356 842 m 271 888 q 235 903 249 888 q 222 944 222 918 q 235 985 222 971 q 271 1000 249 1000 q 308 985 296 1000 q 321 944 321 971 q 308 903 321 918 q 271 888 296 888 m 569 888 q 534 903 547 888 q 521 944 521 918 q 534 985 521 971 q 569 1000 547 1000 q 607 985 594 1000 q 619 944 619 971 q 607 903 619 918 q 569 888 594 888 z "},"Ά":{"ha":900,"x_min":14,"x_max":899,"o":"m 815 0 l 683 342 l 272 342 l 139 0 l 56 0 l 446 996 l 519 996 l 900 0 l 815 0 m 526 772 q 513 810 521 786 q 496 860 504 833 q 481 907 488 886 q 466 858 474 883 q 450 811 458 833 q 436 771 442 789 l 299 415 l 658 415 l 526 772 m 14 756 l 14 768 l 82 992 l 176 992 l 176 981 l 69 756 l 14 756 z "},"·":{"ha":339,"x_min":110,"x_max":232,"o":"m 110 685 q 126 735 110 718 q 169 753 142 753 q 216 735 200 753 q 232 685 232 718 q 216 633 232 650 q 169 615 200 615 q 126 633 142 615 q 110 685 110 650 z "},"Έ":{"ha":944,"x_min":14,"x_max":860,"o":"m 860 0 l 315 0 l 315 992 l 860 992 l 860 919 l 396 919 l 396 557 l 833 557 l 833 485 l 396 485 l 396 72 l 860 72 l 860 0 m 14 756 l 14 768 l 82 992 l 176 992 l 176 981 l 69 756 l 14 756 z "},"Ή":{"ha":1182,"x_min":14,"x_max":1042,"o":"m 1042 0 l 961 0 l 961 483 l 396 483 l 396 0 l 315 0 l 315 992 l 396 992 l 396 556 l 961 556 l 961 992 l 1042 992 l 1042 0 m 14 756 l 14 768 l 82 992 l 176 992 l 176 981 l 69 756 l 14 756 z "},"Ί":{"ha":636,"x_min":14,"x_max":567,"o":"m 567 0 l 275 0 l 275 50 l 381 65 l 381 925 l 275 942 l 275 992 l 567 992 l 567 942 l 461 925 l 461 65 l 567 50 l 567 0 m 14 756 l 14 768 l 82 992 l 176 992 l 176 981 l 69 756 l 14 756 z "},"Ό":{"ha":1174,"x_min":14,"x_max":1086,"o":"m 1086 497 q 1058 290 1086 383 q 974 128 1031 197 q 835 23 918 60 q 640 -14 751 -14 q 444 24 528 -14 q 304 129 360 61 q 221 291 249 197 q 193 499 193 385 q 244 765 193 650 q 395 943 294 879 q 644 1007 496 1007 q 886 945 788 1007 q 1035 769 985 883 q 1086 497 1086 656 m 278 499 q 317 267 278 367 q 437 113 356 168 q 640 58 518 58 q 845 113 765 58 q 963 266 925 167 q 1001 497 1001 365 q 912 819 1001 704 q 644 935 822 935 q 439 881 521 935 q 317 728 357 826 q 278 499 278 629 m 14 756 l 14 768 l 82 992 l 176 992 l 176 981 l 69 756 l 14 756 z "},"Ύ":{"ha":990,"x_min":14,"x_max":990,"o":"m 618 461 l 901 992 l 990 992 l 660 383 l 660 0 l 579 0 l 579 378 l 246 992 l 335 992 l 618 461 m 14 756 l 14 768 l 82 992 l 176 992 l 176 981 l 69 756 l 14 756 z "},"Ώ":{"ha":1086,"x_min":14,"x_max":1054,"o":"m 153 0 l 153 72 l 399 72 q 279 180 333 117 q 192 331 225 243 q 160 535 160 418 q 213 779 160 672 q 367 947 267 886 q 604 1007 467 1007 q 842 949 743 1007 q 994 784 942 890 q 1047 535 1047 678 q 1016 331 1047 418 q 931 180 985 243 q 810 72 878 117 l 1054 72 l 1054 0 l 701 0 l 701 67 q 851 191 793 125 q 935 340 908 257 q 963 532 963 424 q 921 745 963 654 q 799 885 879 836 q 604 935 719 935 q 410 884 490 935 q 287 742 329 833 q 244 532 244 651 q 274 338 244 421 q 360 190 303 256 q 506 67 418 125 l 506 0 l 153 0 m 14 756 l 14 768 l 82 992 l 176 992 l 176 981 l 69 756 l 14 756 z "},"ΐ":{"ha":421,"x_min":4,"x_max":401,"o":"m 290 -14 q 195 8 235 -14 q 134 74 156 31 q 113 181 113 118 l 113 739 l 192 739 l 192 182 q 220 85 192 115 q 299 54 249 54 q 344 58 322 54 q 386 69 365 61 l 386 1 q 346 -9 369 -4 q 290 -14 322 -14 m 139 842 l 139 854 l 194 1078 l 289 1078 l 289 1067 l 194 842 l 139 842 m 54 888 q 19 903 32 888 q 6 944 6 918 q 19 985 6 971 q 54 1000 32 1000 q 92 985 79 1000 q 104 944 104 971 q 92 903 104 918 q 54 888 79 888 m 353 888 q 317 903 331 888 q 304 944 304 918 q 317 985 304 971 q 353 1000 331 1000 q 390 985 378 1000 q 403 944 403 971 q 390 903 403 918 q 353 888 378 888 z "},"Α":{"ha":844,"x_min":0,"x_max":844,"o":"m 760 0 l 628 342 l 217 342 l 83 0 l 0 0 l 390 996 l 464 996 l 844 0 l 760 0 m 471 772 q 457 810 465 786 q 440 860 449 833 q 425 907 432 886 q 410 858 418 883 q 394 811 403 833 q 381 771 386 789 l 243 415 l 603 415 l 471 772 z "},"Β":{"ha":878,"x_min":139,"x_max":801,"o":"m 414 992 q 685 935 597 992 q 772 750 772 878 q 750 646 772 693 q 685 567 728 599 q 579 525 642 536 l 579 521 q 701 480 651 510 q 776 401 751 450 q 801 282 801 353 q 758 124 801 186 q 635 31 714 61 q 453 0 557 0 l 139 0 l 139 992 l 414 992 m 432 554 q 629 601 569 554 q 689 742 689 649 q 624 879 689 838 q 414 921 558 921 l 219 921 l 219 554 l 432 554 m 219 485 l 219 71 l 446 71 q 649 126 583 71 q 715 286 715 181 q 685 399 715 356 q 592 464 654 443 q 433 485 529 485 l 219 485 z "},"Γ":{"ha":675,"x_min":139,"x_max":657,"o":"m 139 0 l 139 992 l 657 992 l 657 919 l 219 919 l 219 0 l 139 0 z "},"Δ":{"ha":863,"x_min":14,"x_max":847,"o":"m 14 0 l 14 47 l 399 996 l 472 996 l 847 47 l 847 0 l 14 0 m 107 74 l 754 74 l 483 772 q 469 810 478 786 q 451 860 460 833 q 435 907 442 886 q 419 858 428 883 q 403 811 411 833 q 388 771 394 789 l 107 74 z "},"Ε":{"ha":768,"x_min":139,"x_max":683,"o":"m 683 0 l 139 0 l 139 992 l 683 992 l 683 919 l 219 919 l 219 557 l 657 557 l 657 485 l 219 485 l 219 72 l 683 72 l 683 0 z "},"Ζ":{"ha":799,"x_min":51,"x_max":744,"o":"m 744 0 l 51 0 l 51 60 l 628 919 l 79 919 l 79 992 l 729 992 l 729 932 l 153 74 l 744 74 l 744 0 z "},"Η":{"ha":1006,"x_min":139,"x_max":865,"o":"m 865 0 l 785 0 l 785 483 l 219 483 l 219 0 l 139 0 l 139 992 l 219 992 l 219 556 l 785 556 l 785 992 l 865 992 l 865 0 z "},"Θ":{"ha":1067,"x_min":86,"x_max":979,"o":"m 311 467 l 311 539 l 756 539 l 756 467 l 311 467 m 979 497 q 951 290 979 383 q 867 128 924 197 q 728 23 811 60 q 533 -14 644 -14 q 337 24 421 -14 q 197 129 253 61 q 114 291 142 197 q 86 499 86 385 q 137 765 86 650 q 288 943 188 879 q 538 1007 389 1007 q 779 945 681 1007 q 928 769 878 883 q 979 497 979 656 m 171 499 q 210 267 171 367 q 330 113 249 168 q 533 58 411 58 q 738 113 658 58 q 856 266 818 167 q 894 497 894 365 q 805 819 894 704 q 538 935 715 935 q 332 881 414 935 q 210 728 250 826 q 171 499 171 629 z "},"Ι":{"ha":432,"x_min":71,"x_max":363,"o":"m 363 0 l 71 0 l 71 50 l 176 65 l 176 925 l 71 942 l 71 992 l 363 992 l 363 942 l 257 925 l 257 65 l 363 50 l 363 0 z "},"Κ":{"ha":818,"x_min":139,"x_max":818,"o":"m 818 0 l 721 0 l 343 514 l 219 396 l 219 0 l 139 0 l 139 992 l 219 992 l 219 476 q 279 542 249 510 q 340 607 310 575 l 707 992 l 806 992 l 403 569 l 818 0 z "},"Λ":{"ha":810,"x_min":0,"x_max":810,"o":"m 0 0 l 372 996 l 446 996 l 810 0 l 725 0 l 451 772 q 439 810 447 786 q 423 860 431 833 q 407 907 415 886 q 392 858 400 883 q 378 810 385 832 q 364 769 371 788 l 83 0 l 0 0 z "},"Μ":{"ha":1211,"x_min":139,"x_max":1072,"o":"m 569 0 l 214 907 l 210 907 q 213 851 211 882 q 215 785 214 819 q 215 715 215 751 l 215 0 l 139 0 l 139 992 l 261 992 l 603 124 l 607 124 l 953 992 l 1072 992 l 1072 0 l 992 0 l 992 724 q 992 786 992 754 q 995 849 993 818 q 997 906 997 879 l 993 906 l 635 0 l 569 0 z "},"Ν":{"ha":1013,"x_min":139,"x_max":874,"o":"m 874 0 l 788 0 l 213 867 l 208 867 q 212 792 211 831 q 214 712 213 753 q 215 626 215 671 l 215 0 l 139 0 l 139 992 l 225 992 l 799 128 l 803 128 q 800 197 801 157 q 798 281 799 238 q 797 363 797 325 l 797 992 l 874 992 l 874 0 z "},"Ξ":{"ha":846,"x_min":85,"x_max":761,"o":"m 85 0 l 85 75 l 761 75 l 761 0 l 85 0 m 168 483 l 168 558 l 678 558 l 678 483 l 168 483 m 113 917 l 113 992 l 733 992 l 733 917 l 113 917 z "},"Ο":{"ha":1067,"x_min":86,"x_max":979,"o":"m 979 497 q 951 290 979 383 q 867 128 924 197 q 728 23 811 60 q 533 -14 644 -14 q 337 24 421 -14 q 197 129 253 61 q 114 291 142 197 q 86 499 86 385 q 137 765 86 650 q 288 943 188 879 q 538 1007 389 1007 q 779 945 681 1007 q 928 769 878 883 q 979 497 979 656 m 171 499 q 210 267 171 367 q 330 113 249 168 q 533 58 411 58 q 738 113 658 58 q 856 266 818 167 q 894 497 894 365 q 805 819 894 704 q 538 935 715 935 q 332 881 414 935 q 210 728 250 826 q 171 499 171 629 z "},"Π":{"ha":992,"x_min":139,"x_max":851,"o":"m 139 0 l 139 992 l 851 992 l 851 0 l 772 0 l 772 919 l 219 919 l 219 0 l 139 0 z "},"Ρ":{"ha":818,"x_min":139,"x_max":743,"o":"m 386 992 q 655 922 567 992 q 743 711 743 853 q 720 583 743 640 q 651 487 697 526 q 533 426 604 447 q 365 406 461 406 l 219 406 l 219 0 l 139 0 l 139 992 l 386 992 m 378 921 l 219 921 l 219 476 l 357 476 q 521 498 453 476 q 624 570 589 519 q 660 707 660 621 q 592 869 660 818 q 378 921 524 921 z "},"Σ":{"ha":799,"x_min":51,"x_max":744,"o":"m 51 0 l 51 67 l 411 515 l 65 926 l 65 992 l 717 992 l 717 918 l 314 918 q 241 919 279 918 q 169 921 203 919 l 496 533 l 496 511 l 147 74 q 238 74 193 74 q 328 75 282 75 l 744 75 l 744 0 l 51 0 z "},"Τ":{"ha":738,"x_min":8,"x_max":728,"o":"m 408 0 l 328 0 l 328 919 l 8 919 l 8 992 l 728 992 l 728 919 l 408 919 l 408 0 z "},"Υ":{"ha":744,"x_min":0,"x_max":744,"o":"m 372 461 l 656 992 l 744 992 l 414 383 l 414 0 l 333 0 l 333 378 l 0 992 l 89 992 l 372 461 z "},"Φ":{"ha":1110,"x_min":72,"x_max":1038,"o":"m 515 0 l 515 125 q 312 157 396 126 q 175 241 228 188 q 97 365 122 294 q 72 515 72 435 q 97 667 72 597 q 174 787 121 736 q 310 867 226 838 q 515 899 394 896 l 515 992 l 594 992 l 594 899 q 797 870 713 897 q 933 794 881 843 q 1012 675 986 744 q 1038 519 1038 606 q 1013 366 1038 438 q 934 242 988 294 q 797 158 881 189 q 594 125 713 126 l 594 0 l 515 0 m 515 193 l 515 828 q 306 788 386 826 q 190 681 226 750 q 154 517 154 613 q 192 345 154 417 q 310 235 231 274 q 515 193 390 197 m 594 193 q 800 237 721 197 q 917 349 879 276 q 956 521 956 421 q 920 685 956 618 q 806 790 885 753 q 594 828 726 826 l 594 193 z "},"Χ":{"ha":761,"x_min":1,"x_max":760,"o":"m 760 0 l 668 0 l 381 458 l 89 0 l 1 0 l 333 515 l 29 992 l 119 992 l 383 572 l 649 992 l 736 992 l 429 517 l 760 0 z "},"Ψ":{"ha":1101,"x_min":129,"x_max":974,"o":"m 511 0 l 511 264 q 350 292 421 268 q 230 365 279 317 q 155 488 181 413 q 129 667 129 563 l 129 992 l 211 992 l 211 665 q 245 475 211 547 q 347 369 279 403 q 511 335 414 336 l 511 992 l 590 992 l 590 335 q 755 369 688 336 q 857 475 822 403 q 892 667 892 547 l 892 992 l 974 992 l 974 667 q 928 440 974 528 q 797 311 882 353 q 590 264 711 269 l 590 0 l 511 0 z "},"Ω":{"ha":965,"x_min":32,"x_max":933,"o":"m 32 0 l 32 72 l 278 72 q 158 180 213 117 q 72 331 104 243 q 39 535 39 418 q 92 779 39 672 q 246 947 146 886 q 483 1007 346 1007 q 722 949 622 1007 q 874 784 821 890 q 926 535 926 678 q 895 331 926 418 q 810 180 864 243 q 689 72 757 117 l 933 72 l 933 0 l 581 0 l 581 67 q 730 191 672 125 q 815 340 788 257 q 842 532 842 424 q 800 745 842 654 q 678 885 758 836 q 483 935 599 935 q 289 884 369 935 q 166 742 208 833 q 124 532 124 651 q 153 338 124 421 q 240 190 182 256 q 385 67 297 125 l 385 0 l 32 0 z "},"Ϊ":{"ha":432,"x_min":39,"x_max":396,"o":"m 363 0 l 71 0 l 71 50 l 176 65 l 176 925 l 71 942 l 71 992 l 363 992 l 363 942 l 257 925 l 257 65 l 363 50 l 363 0 m 40 1197 q 53 1238 40 1224 q 89 1253 67 1253 q 126 1238 114 1253 q 139 1197 139 1224 q 126 1156 139 1171 q 89 1140 114 1140 q 53 1156 67 1140 q 40 1197 40 1171 m 299 1197 q 312 1238 299 1224 q 347 1253 325 1253 q 385 1238 372 1253 q 397 1197 397 1224 q 385 1156 397 1171 q 347 1140 372 1140 q 312 1156 325 1140 q 299 1197 299 1171 z "},"Ϋ":{"ha":744,"x_min":0,"x_max":744,"o":"m 372 461 l 656 992 l 744 992 l 414 383 l 414 0 l 333 0 l 333 378 l 0 992 l 89 992 l 372 461 m 196 1197 q 209 1238 196 1224 q 244 1253 222 1253 q 282 1238 269 1253 q 294 1197 294 1224 q 282 1156 294 1171 q 244 1140 269 1140 q 209 1156 222 1140 q 196 1197 196 1171 m 454 1197 q 467 1238 454 1224 q 503 1253 481 1253 q 540 1238 528 1253 q 553 1197 553 1224 q 540 1156 553 1171 q 503 1140 528 1140 q 467 1156 481 1140 q 454 1197 454 1171 z "},"ά":{"ha":849,"x_min":78,"x_max":814,"o":"m 382 -14 q 218 30 286 -14 q 114 158 150 74 q 78 367 78 243 q 160 653 78 554 q 382 753 242 753 q 490 735 443 753 q 569 688 536 718 q 624 617 603 657 l 628 617 l 640 739 l 704 739 l 704 165 q 721 78 704 101 q 768 54 738 54 q 793 56 781 54 q 814 61 806 58 l 814 0 q 797 -6 808 -3 q 774 -12 786 -10 q 749 -14 761 -14 q 665 19 693 -14 q 629 128 636 51 l 622 128 q 570 56 603 88 q 491 5 538 24 q 382 -14 444 -14 m 394 54 q 527 90 476 54 q 601 194 578 125 q 625 361 625 263 l 625 381 q 569 608 625 531 q 392 685 514 685 q 219 602 279 685 q 160 367 160 519 q 219 134 160 214 q 394 54 278 54 m 372 842 l 372 854 l 440 1078 l 535 1078 l 535 1067 l 428 842 l 372 842 z "},"έ":{"ha":647,"x_min":65,"x_max":604,"o":"m 364 -14 q 138 46 210 -14 q 65 197 65 106 q 85 286 65 250 q 143 346 106 322 q 232 381 181 369 l 232 386 q 126 451 160 406 q 92 557 92 496 q 127 667 92 624 q 226 731 163 710 q 369 753 289 753 q 506 739 447 753 q 604 703 564 725 l 581 635 q 485 672 539 658 q 371 685 432 685 q 219 649 268 685 q 171 553 171 614 q 224 451 171 486 q 367 417 276 417 l 474 417 l 474 351 l 367 351 q 251 336 300 351 q 174 288 201 321 q 147 201 147 254 q 202 95 147 135 q 364 56 257 56 q 490 67 435 56 q 594 106 546 79 l 594 35 q 494 -2 554 10 q 364 -14 435 -14 m 356 842 l 356 854 l 424 1078 l 518 1078 l 518 1067 l 411 842 l 356 842 z "},"ή":{"ha":814,"x_min":122,"x_max":699,"o":"m 621 -328 l 621 478 q 575 634 621 583 q 438 685 529 685 q 306 653 358 685 q 227 560 253 622 q 201 403 201 497 l 201 0 l 122 0 l 122 739 l 186 739 l 197 611 l 203 611 q 256 685 224 653 q 336 735 289 717 q 446 753 383 753 q 585 724 529 753 q 670 636 642 696 q 699 483 699 576 l 699 -328 l 621 -328 m 308 842 l 308 854 l 376 1078 l 471 1078 l 471 1067 l 364 842 l 308 842 z "},"ί":{"ha":421,"x_min":113,"x_max":386,"o":"m 290 -14 q 195 8 235 -14 q 134 74 156 31 q 113 181 113 118 l 113 739 l 192 739 l 192 182 q 220 85 192 115 q 299 54 249 54 q 344 58 322 54 q 386 69 365 61 l 386 1 q 346 -9 369 -4 q 290 -14 322 -14 m 139 842 l 139 854 l 207 1078 l 301 1078 l 301 1067 l 194 842 l 139 842 z "},"ΰ":{"ha":797,"x_min":113,"x_max":697,"o":"m 381 -14 q 248 8 300 -14 q 166 72 196 29 q 124 175 136 114 q 113 315 113 236 l 113 739 l 192 739 l 192 321 q 209 169 192 228 q 269 82 226 110 q 388 54 311 54 q 510 92 458 54 q 589 210 561 131 q 617 408 617 289 q 606 578 617 499 q 574 739 596 658 l 654 739 q 678 633 669 686 q 692 525 688 581 q 697 406 697 469 q 614 90 697 194 q 381 -14 531 -14 m 354 842 l 354 854 l 410 1078 l 504 1078 l 504 1067 l 410 842 l 354 842 m 269 888 q 234 903 247 888 q 221 944 221 918 q 234 985 221 971 q 269 1000 247 1000 q 307 985 294 1000 q 319 944 319 971 q 307 903 319 918 q 269 888 294 888 m 568 888 q 533 903 546 888 q 519 944 519 918 q 533 985 519 971 q 568 1000 546 1000 q 606 985 593 1000 q 618 944 618 971 q 606 903 618 918 q 568 888 593 888 z "},"α":{"ha":849,"x_min":78,"x_max":814,"o":"m 382 -14 q 218 30 286 -14 q 114 158 150 74 q 78 367 78 243 q 160 653 78 554 q 382 753 242 753 q 490 735 443 753 q 569 688 536 718 q 624 617 603 657 l 628 617 l 640 739 l 704 739 l 704 165 q 721 78 704 101 q 768 54 738 54 q 793 56 781 54 q 814 61 806 58 l 814 0 q 797 -6 808 -3 q 774 -12 786 -10 q 749 -14 761 -14 q 665 19 693 -14 q 629 128 636 51 l 622 128 q 570 56 603 88 q 491 5 538 24 q 382 -14 444 -14 m 394 54 q 527 90 476 54 q 601 194 578 125 q 625 361 625 263 l 625 381 q 569 608 625 531 q 392 685 514 685 q 219 602 279 685 q 160 367 160 519 q 219 134 160 214 q 394 54 278 54 z "},"β":{"ha":831,"x_min":122,"x_max":753,"o":"m 122 -328 l 122 743 q 158 921 122 850 q 262 1027 194 992 q 419 1063 329 1063 q 569 1034 507 1063 q 665 948 632 1006 q 699 803 699 890 q 676 692 699 742 q 613 608 653 642 q 515 563 572 575 l 515 558 q 637 518 583 550 q 722 429 690 486 q 753 286 753 372 q 713 128 753 194 q 602 26 674 61 q 433 -10 531 -10 q 346 -3 385 -10 q 273 19 307 4 q 201 54 239 33 l 201 -328 l 122 -328 m 428 58 q 608 120 543 58 q 674 290 674 182 q 645 416 674 364 q 563 497 617 468 q 431 525 508 525 l 332 525 l 332 589 l 424 589 q 531 617 488 589 q 595 692 574 644 q 617 800 617 740 q 562 947 617 900 q 418 994 507 994 q 304 968 353 994 q 228 885 256 942 q 201 738 201 829 l 201 128 q 308 76 257 94 q 428 58 358 58 z "},"γ":{"ha":668,"x_min":0,"x_max":626,"o":"m 263 -286 l 263 -3 l 0 739 l 83 739 l 261 218 q 278 170 268 197 q 297 117 288 143 q 310 72 306 90 l 314 72 q 442 256 390 157 q 521 476 494 356 q 547 739 547 596 l 626 739 q 596 459 626 588 q 502 218 565 331 q 342 -1 439 106 l 342 -286 l 263 -286 z "},"δ":{"ha":797,"x_min":65,"x_max":718,"o":"m 394 -14 q 223 26 297 -14 q 107 140 149 67 q 65 310 65 213 q 96 463 65 396 q 188 579 126 531 q 344 660 250 628 q 261 716 297 689 q 205 779 225 743 q 185 867 185 815 q 213 965 185 921 q 296 1036 240 1010 q 435 1063 351 1063 q 538 1051 492 1063 q 622 1021 585 1039 q 681 983 658 1003 l 646 919 q 552 974 604 951 q 435 996 500 996 q 335 979 374 996 q 280 934 297 963 q 263 869 263 906 q 279 807 263 835 q 335 752 296 779 q 440 688 374 725 q 600 578 539 633 q 690 460 661 524 q 718 317 718 397 q 676 140 718 214 q 562 26 635 67 q 394 -14 489 -14 m 396 54 q 528 88 474 54 q 612 181 583 121 q 640 315 640 240 q 612 448 640 392 q 533 548 583 504 q 414 626 482 592 q 302 579 351 607 q 218 514 253 551 q 165 428 183 476 q 147 315 147 379 q 178 178 147 238 q 265 87 208 119 q 396 54 321 54 z "},"ε":{"ha":647,"x_min":65,"x_max":604,"o":"m 364 -14 q 138 46 210 -14 q 65 197 65 106 q 85 286 65 250 q 143 346 106 322 q 232 381 181 369 l 232 386 q 126 451 160 406 q 92 557 92 496 q 127 667 92 624 q 226 731 163 710 q 369 753 289 753 q 506 739 447 753 q 604 703 564 725 l 581 635 q 485 672 539 658 q 371 685 432 685 q 219 649 268 685 q 171 553 171 614 q 224 451 171 486 q 367 417 276 417 l 474 417 l 474 351 l 367 351 q 251 336 300 351 q 174 288 201 321 q 147 201 147 254 q 202 95 147 135 q 364 56 257 56 q 490 67 435 56 q 594 106 546 79 l 594 35 q 494 -2 554 10 q 364 -14 435 -14 z "},"ζ":{"ha":597,"x_min":79,"x_max":596,"o":"m 460 -281 q 498 -195 483 -237 q 513 -121 513 -153 q 502 -70 511 -93 q 463 -28 493 -47 q 369 1 433 -10 q 199 58 263 22 q 107 145 135 93 q 79 268 79 197 q 107 414 79 343 q 189 566 135 485 q 319 749 243 647 l 506 996 q 460 994 489 996 q 395 992 431 993 q 324 992 360 992 l 115 992 l 115 1056 l 596 1056 l 596 1004 l 372 704 q 248 528 294 601 q 181 396 201 454 q 161 276 161 338 q 182 181 161 221 q 254 115 203 142 q 397 69 306 89 q 513 31 471 56 q 573 -26 556 7 q 590 -103 590 -58 q 584 -165 590 -136 q 566 -223 578 -194 q 538 -281 554 -251 l 460 -281 z "},"η":{"ha":814,"x_min":122,"x_max":699,"o":"m 621 -328 l 621 478 q 575 634 621 583 q 438 685 529 685 q 306 653 358 685 q 227 560 253 622 q 201 403 201 497 l 201 0 l 122 0 l 122 739 l 186 739 l 197 611 l 203 611 q 256 685 224 653 q 336 735 289 717 q 446 753 383 753 q 585 724 529 753 q 670 636 642 696 q 699 483 699 576 l 699 -328 l 621 -328 z "},"θ":{"ha":806,"x_min":79,"x_max":726,"o":"m 401 -14 q 223 47 294 -14 q 115 230 151 108 q 79 535 79 351 q 115 830 79 713 q 222 1005 150 947 q 403 1063 293 1063 q 583 1004 511 1063 q 690 828 654 946 q 726 536 726 711 q 691 230 726 351 q 584 47 656 108 q 401 -14 513 -14 m 401 54 q 536 102 483 54 q 617 251 589 150 q 646 511 644 351 l 160 511 q 189 251 163 353 q 268 102 215 150 q 401 54 321 54 m 160 576 l 644 576 q 615 812 642 719 q 535 949 588 904 q 403 994 482 994 q 271 951 324 994 q 191 815 218 907 q 160 576 164 722 z "},"ι":{"ha":421,"x_min":113,"x_max":386,"o":"m 290 -14 q 195 8 235 -14 q 134 74 156 31 q 113 181 113 118 l 113 739 l 192 739 l 192 182 q 220 85 192 115 q 299 54 249 54 q 344 58 322 54 q 386 69 365 61 l 386 1 q 346 -9 369 -4 q 290 -14 322 -14 z "},"κ":{"ha":686,"x_min":122,"x_max":683,"o":"m 658 739 l 375 417 l 683 0 l 589 0 l 319 365 l 204 250 l 204 0 l 122 0 l 122 739 l 204 739 l 204 543 q 203 426 204 482 q 200 322 201 369 l 200 322 q 234 365 218 346 q 268 403 250 383 l 561 739 l 658 739 z "},"λ":{"ha":688,"x_min":7,"x_max":688,"o":"m 628 -12 q 583 -3 603 -12 q 550 25 564 6 q 525 75 536 44 l 382 488 q 367 532 375 508 q 351 579 360 556 q 337 624 343 603 q 325 664 331 646 l 321 664 q 297 581 311 626 q 268 496 282 536 l 90 0 l 7 0 l 286 746 l 243 869 q 185 965 221 935 q 88 996 150 996 q 44 992 64 996 q 11 983 25 988 l 11 1050 q 35 1057 22 1054 q 64 1061 49 1060 q 96 1063 79 1063 q 198 1043 156 1063 q 270 982 240 1024 q 322 876 300 940 l 594 113 q 612 78 604 90 q 630 60 619 65 q 651 56 640 56 q 672 58 663 56 q 688 61 681 60 l 688 0 q 672 -6 681 -3 q 652 -11 663 -10 q 628 -12 642 -12 z "},"μ":{"ha":853,"x_min":122,"x_max":818,"o":"m 122 -328 l 122 739 l 201 739 l 201 261 q 251 106 201 158 q 403 54 301 54 q 576 128 524 54 q 629 336 629 201 l 629 739 l 708 739 l 708 165 q 725 78 708 101 q 772 54 742 54 q 797 56 785 54 q 818 61 810 58 l 818 0 q 801 -6 813 -3 q 778 -12 790 -10 q 753 -14 765 -14 q 671 16 700 -14 q 633 115 642 46 l 626 115 q 576 49 606 78 q 504 3 547 19 q 399 -14 461 -14 q 276 10 325 -14 q 201 74 228 35 l 197 74 q 199 42 199 60 q 201 3 200 25 q 201 -42 201 -18 l 201 -328 l 122 -328 z "},"ν":{"ha":668,"x_min":0,"x_max":626,"o":"m 261 0 l 0 739 l 83 739 l 261 218 q 278 170 268 197 q 297 117 288 143 q 310 72 306 92 l 314 72 q 445 256 393 157 q 522 476 497 356 q 547 739 547 596 l 626 739 q 597 458 626 586 q 506 217 568 329 q 343 0 443 104 l 261 0 z "},"ξ":{"ha":646,"x_min":79,"x_max":603,"o":"m 467 -281 q 505 -197 490 -237 q 519 -118 519 -156 q 509 -71 518 -93 q 470 -29 500 -49 q 375 1 440 -10 q 212 53 278 19 q 113 144 146 88 q 79 283 79 200 q 109 416 79 361 q 189 504 139 471 q 297 551 239 538 l 297 557 q 208 593 247 568 q 146 661 168 618 q 124 765 124 704 q 153 883 124 836 q 233 957 183 929 q 343 997 283 985 q 296 994 319 996 q 245 992 272 993 q 185 992 218 992 l 115 992 l 115 1056 l 603 1056 l 603 996 l 554 996 q 424 986 488 996 q 310 952 360 976 q 231 883 260 928 q 201 769 201 839 q 227 673 201 714 q 306 610 253 632 q 443 589 360 589 l 583 589 l 583 525 l 442 525 q 289 497 351 525 q 194 417 226 468 q 161 292 161 365 q 188 179 161 222 q 269 111 214 136 q 411 68 325 86 q 528 27 489 53 q 583 -31 568 1 q 597 -103 597 -64 q 591 -164 597 -135 q 573 -221 585 -193 q 544 -281 561 -249 l 467 -281 z "},"ο":{"ha":819,"x_min":79,"x_max":740,"o":"m 740 371 q 719 213 740 283 q 655 92 697 143 q 551 14 613 42 q 408 -14 489 -14 q 271 13 332 -14 q 167 91 210 40 q 102 213 125 142 q 79 371 79 283 q 119 576 79 490 q 235 707 160 661 q 414 753 310 753 q 593 705 521 753 q 703 572 665 657 q 740 371 740 486 m 161 371 q 188 205 161 276 q 270 94 215 133 q 410 54 325 54 q 551 94 496 54 q 632 205 606 133 q 658 371 658 276 q 633 533 658 463 q 554 644 608 604 q 413 685 500 685 q 224 601 288 685 q 161 371 161 518 z "},"π":{"ha":860,"x_min":18,"x_max":825,"o":"m 733 -14 q 632 26 667 -14 q 597 146 597 67 l 597 675 l 247 675 l 247 0 l 168 0 l 168 675 l 18 675 l 18 739 l 825 739 l 825 675 l 675 675 l 675 156 q 694 78 675 103 q 751 54 714 54 q 786 58 772 54 q 810 65 800 61 l 810 0 q 780 -9 800 -4 q 733 -14 760 -14 z "},"ρ":{"ha":804,"x_min":101,"x_max":726,"o":"m 101 -328 l 101 382 q 138 585 101 503 q 241 710 174 668 q 404 753 308 753 q 576 709 504 753 q 688 578 649 665 q 726 361 726 492 q 686 160 726 244 q 573 31 646 76 q 403 -14 500 -14 q 278 6 335 -14 q 182 57 222 25 l 176 57 q 180 -19 179 22 q 181 -111 181 -60 l 181 -328 l 101 -328 m 404 54 q 531 88 476 54 q 615 190 585 122 q 644 361 644 258 q 581 607 644 529 q 404 685 517 685 q 235 604 289 685 q 182 375 182 524 l 182 131 q 282 74 225 94 q 404 54 339 54 z "},"σ":{"ha":832,"x_min":79,"x_max":783,"o":"m 400 -14 q 227 32 299 -14 q 117 161 156 78 q 79 356 79 244 q 126 571 79 486 q 259 697 172 656 q 468 739 346 739 l 783 739 l 783 675 l 592 675 q 669 592 640 639 q 713 487 699 544 q 726 360 726 429 q 706 212 726 281 q 643 93 685 143 q 540 15 601 43 q 400 -14 479 -14 m 403 54 q 540 94 486 54 q 619 202 593 133 q 646 358 646 271 q 633 483 646 425 q 590 588 619 540 q 511 675 560 636 l 461 675 q 297 640 364 675 q 194 535 229 606 q 160 356 160 465 q 186 202 160 271 q 266 94 213 133 q 403 54 319 54 z "},"τ":{"ha":631,"x_min":18,"x_max":582,"o":"m 424 -14 q 312 9 357 -14 q 243 82 267 32 q 219 211 219 132 l 219 675 l 18 675 l 18 739 l 582 739 l 582 675 l 300 675 l 300 221 q 313 126 300 164 q 356 71 326 89 q 435 53 386 53 q 494 58 464 53 q 546 68 524 63 l 546 6 q 493 -8 526 -1 q 424 -14 460 -14 z "},"υ":{"ha":797,"x_min":113,"x_max":697,"o":"m 381 -14 q 248 8 300 -14 q 166 72 196 29 q 124 175 136 114 q 113 315 113 236 l 113 739 l 192 739 l 192 321 q 209 169 192 228 q 269 82 226 110 q 388 54 311 54 q 510 92 458 54 q 589 210 561 131 q 617 408 617 289 q 606 578 617 499 q 574 739 596 658 l 654 739 q 678 633 669 686 q 692 525 688 581 q 697 406 697 469 q 614 90 697 194 q 381 -14 531 -14 z "},"φ":{"ha":947,"x_min":79,"x_max":868,"o":"m 435 -328 l 435 -11 q 245 44 325 -4 q 122 175 165 92 q 79 371 79 258 q 121 566 79 483 q 242 696 163 649 q 435 750 322 743 l 435 1056 l 513 1056 l 513 750 q 703 696 624 743 q 826 566 783 649 q 868 371 868 483 q 826 178 868 261 q 704 47 783 96 q 513 -11 625 -3 l 513 -328 l 435 -328 m 435 56 l 435 683 q 283 639 343 678 q 192 532 222 600 q 163 371 163 464 q 192 206 163 275 q 283 99 222 138 q 435 56 344 61 m 513 56 q 664 103 603 63 q 756 211 725 143 q 786 371 786 279 q 718 593 786 513 q 513 683 650 674 l 513 56 z "},"χ":{"ha":789,"x_min":39,"x_max":769,"o":"m 703 -332 q 630 -317 658 -332 q 579 -270 601 -303 q 533 -185 557 -237 l 179 583 q 137 656 157 632 q 88 681 117 681 q 62 678 74 681 q 39 671 50 675 l 39 736 q 65 744 51 740 q 104 747 79 747 q 159 737 136 747 q 201 701 182 726 q 240 632 221 676 l 596 -136 q 634 -212 618 -183 q 669 -253 650 -240 q 715 -265 688 -265 q 745 -263 732 -265 q 769 -258 758 -261 l 769 -322 q 752 -327 763 -325 q 730 -331 742 -329 q 703 -332 718 -332 m 40 -328 l 372 239 l 406 163 l 126 -328 l 40 -328 m 424 176 l 390 253 l 643 739 l 728 739 l 424 176 z "},"ψ":{"ha":996,"x_min":113,"x_max":896,"o":"m 456 -333 l 456 -10 q 264 33 340 -6 q 150 149 188 71 q 113 353 113 228 l 113 739 l 190 739 l 190 353 q 219 185 190 249 q 308 93 249 122 q 456 58 367 64 l 456 1056 l 533 1056 l 533 60 q 694 106 632 65 q 788 222 757 147 q 818 406 818 297 q 806 576 818 499 q 772 739 794 653 l 851 739 q 885 578 874 657 q 896 407 896 500 q 856 184 896 275 q 735 45 815 93 q 533 -10 654 -3 l 533 -333 l 456 -333 z "},"ω":{"ha":1068,"x_min":93,"x_max":976,"o":"m 332 -14 q 199 28 251 -14 q 120 147 146 69 q 93 335 94 225 q 130 581 93 481 q 215 739 167 682 l 299 739 q 231 635 260 694 q 188 501 203 576 q 174 335 172 425 q 214 122 175 190 q 336 54 253 54 q 418 78 382 54 q 475 149 454 101 q 496 267 496 196 l 496 488 l 572 488 l 572 267 q 594 146 572 193 q 651 76 615 99 q 729 54 686 54 q 824 85 788 54 q 877 178 860 115 q 896 335 894 240 q 882 498 896 424 q 840 633 868 572 q 771 739 813 693 l 853 739 q 916 642 888 700 q 960 507 944 583 q 975 335 976 431 q 948 147 975 225 q 868 28 921 69 q 735 -14 815 -14 q 608 26 661 -14 q 538 147 554 65 l 531 147 q 492 57 521 93 q 422 3 464 21 q 332 -14 381 -14 z "},"ϊ":{"ha":421,"x_min":-18,"x_max":386,"o":"m 290 -14 q 195 8 235 -14 q 134 74 156 31 q 113 181 113 118 l 113 739 l 192 739 l 192 182 q 220 85 192 115 q 299 54 249 54 q 344 58 322 54 q 386 69 365 61 l 386 1 q 346 -9 369 -4 q 290 -14 322 -14 m -17 944 q -3 985 -17 971 q 32 1000 10 1000 q 69 985 57 1000 q 82 944 82 971 q 69 903 82 918 q 32 888 57 888 q -3 903 10 888 q -17 944 -17 918 m 242 944 q 255 985 242 971 q 290 1000 268 1000 q 328 985 315 1000 q 340 944 340 971 q 328 903 340 918 q 290 888 315 888 q 255 903 268 888 q 242 944 242 918 z "},"ϋ":{"ha":797,"x_min":113,"x_max":697,"o":"m 381 -14 q 248 8 300 -14 q 166 72 196 29 q 124 175 136 114 q 113 315 113 236 l 113 739 l 192 739 l 192 321 q 209 169 192 228 q 269 82 226 110 q 388 54 311 54 q 510 92 458 54 q 589 210 561 131 q 617 408 617 289 q 606 578 617 499 q 574 739 596 658 l 654 739 q 678 633 669 686 q 692 525 688 581 q 697 406 697 469 q 614 90 697 194 q 381 -14 531 -14 m 199 944 q 212 985 199 971 q 247 1000 225 1000 q 285 985 272 1000 q 297 944 297 971 q 285 903 297 918 q 247 888 272 888 q 212 903 225 888 q 199 944 199 918 m 457 944 q 470 985 457 971 q 506 1000 483 1000 q 543 985 531 1000 q 556 944 556 971 q 543 903 556 918 q 506 888 531 888 q 470 903 483 888 q 457 944 457 918 z "},"ό":{"ha":819,"x_min":79,"x_max":740,"o":"m 740 371 q 719 213 740 283 q 655 92 697 143 q 551 14 613 42 q 408 -14 489 -14 q 271 13 332 -14 q 167 91 210 40 q 102 213 125 142 q 79 371 79 283 q 119 576 79 490 q 235 707 160 661 q 414 753 310 753 q 593 705 521 753 q 703 572 665 657 q 740 371 740 486 m 161 371 q 188 205 161 276 q 270 94 215 133 q 410 54 325 54 q 551 94 496 54 q 632 205 606 133 q 658 371 658 276 q 633 533 658 463 q 554 644 608 604 q 413 685 500 685 q 224 601 288 685 q 161 371 161 518 m 390 842 l 390 854 l 458 1078 l 553 1078 l 553 1067 l 446 842 l 390 842 z "},"ύ":{"ha":797,"x_min":113,"x_max":697,"o":"m 381 -14 q 248 8 300 -14 q 166 72 196 29 q 124 175 136 114 q 113 315 113 236 l 113 739 l 192 739 l 192 321 q 209 169 192 228 q 269 82 226 110 q 388 54 311 54 q 510 92 458 54 q 589 210 561 131 q 617 408 617 289 q 606 578 617 499 q 574 739 596 658 l 654 739 q 678 633 669 686 q 692 525 688 581 q 697 406 697 469 q 614 90 697 194 q 381 -14 531 -14 m 354 842 l 354 854 l 422 1078 l 517 1078 l 517 1067 l 410 842 l 354 842 z "},"ώ":{"ha":1068,"x_min":93,"x_max":976,"o":"m 332 -14 q 199 28 251 -14 q 120 147 146 69 q 93 335 94 225 q 130 581 93 481 q 215 739 167 682 l 299 739 q 231 635 260 694 q 188 501 203 576 q 174 335 172 425 q 214 122 175 190 q 336 54 253 54 q 418 78 382 54 q 475 149 454 101 q 496 267 496 196 l 496 488 l 572 488 l 572 267 q 594 146 572 193 q 651 76 615 99 q 729 54 686 54 q 824 85 788 54 q 877 178 860 115 q 896 335 894 240 q 882 498 896 424 q 840 633 868 572 q 771 739 813 693 l 853 739 q 916 642 888 700 q 960 507 944 583 q 975 335 976 431 q 948 147 975 225 q 868 28 921 69 q 735 -14 815 -14 q 608 26 661 -14 q 538 147 554 65 l 531 147 q 492 57 521 93 q 422 3 464 21 q 332 -14 381 -14 m 514 842 l 514 854 l 582 1078 l 676 1078 l 676 1067 l 569 842 l 514 842 z "},"Ё":{"ha":765,"x_min":139,"x_max":681,"o":"m 139 0 l 139 992 l 681 992 l 681 919 l 219 919 l 219 557 l 654 557 l 654 485 l 219 485 l 219 72 l 681 72 l 681 0 l 139 0 m 315 1121 q 278 1137 290 1121 q 265 1182 265 1153 q 278 1228 265 1213 q 315 1243 292 1243 q 353 1228 340 1243 q 365 1182 365 1213 q 353 1137 365 1153 q 315 1121 340 1121 m 531 1121 q 494 1136 507 1121 q 481 1182 481 1151 q 494 1228 481 1214 q 531 1243 507 1243 q 568 1228 556 1243 q 581 1182 581 1213 q 567 1136 581 1151 q 531 1121 554 1121 z "},"Ђ":{"ha":960,"x_min":8,"x_max":888,"o":"m 600 -15 q 537 -10 568 -15 q 483 3 506 -6 l 483 74 q 540 61 514 65 q 594 57 567 57 q 749 117 694 57 q 804 288 804 176 l 804 289 q 742 464 804 406 q 556 522 679 522 q 431 510 494 522 q 301 469 368 497 l 328 513 l 328 1 l 249 1 l 247 919 l 8 919 l 8 992 l 689 992 l 689 919 l 328 919 l 328 529 l 304 542 q 431 580 368 567 q 563 593 494 593 q 803 516 719 593 q 888 292 888 439 l 888 289 q 852 128 888 196 q 752 22 817 60 q 600 -15 688 -15 z "},"Ѓ":{"ha":706,"x_min":139,"x_max":676,"o":"m 139 0 l 139 992 l 676 992 l 676 919 l 219 919 l 219 0 l 139 0 m 354 1094 l 354 1107 l 517 1317 l 611 1317 l 611 1306 l 408 1094 l 354 1094 z "},"Є":{"ha":881,"x_min":86,"x_max":822,"o":"m 551 -14 q 294 48 399 -14 q 138 224 190 110 q 86 496 86 338 q 143 767 86 653 q 307 944 200 882 q 561 1006 414 1006 q 697 992 632 1006 q 822 951 761 979 l 790 882 q 678 921 735 908 q 565 933 622 933 q 357 884 444 933 q 222 741 269 835 q 171 517 174 647 l 136 546 l 692 546 l 692 474 l 135 474 l 171 504 q 215 263 169 363 q 347 111 260 164 q 560 58 435 58 q 685 70 621 58 q 808 106 749 82 l 808 31 q 688 -2 756 10 q 551 -14 619 -14 z "},"Ѕ":{"ha":758,"x_min":75,"x_max":689,"o":"m 346 -14 q 237 -8 286 -14 q 148 8 188 -1 q 75 31 108 18 l 75 110 q 198 74 128 89 q 350 58 268 58 q 484 80 426 58 q 574 145 542 101 q 607 253 607 189 q 580 350 607 313 q 497 416 553 388 q 353 474 440 444 q 241 519 290 496 q 157 575 192 543 q 104 651 122 607 q 86 754 86 694 q 128 892 86 836 q 241 976 169 947 q 403 1006 313 1006 q 541 992 476 1006 q 664 953 606 979 l 638 883 q 519 921 579 908 q 400 933 460 933 q 280 913 332 933 q 198 853 228 893 q 168 756 168 814 q 196 654 168 693 q 277 589 224 615 q 406 536 331 563 q 558 473 494 507 q 655 388 621 439 q 689 258 689 338 q 644 109 689 169 q 522 17 600 49 q 346 -14 444 -14 z "},"І":{"ha":358,"x_min":139,"x_max":219,"o":"m 139 0 l 139 992 l 219 992 l 219 0 l 139 0 z "},"Ї":{"ha":365,"x_min":46,"x_max":319,"o":"m 143 0 l 143 992 l 224 992 l 224 0 l 143 0 m 96 1121 q 58 1137 71 1121 q 46 1183 46 1153 q 59 1229 46 1214 q 96 1244 72 1244 q 133 1229 121 1244 q 146 1183 146 1214 q 133 1137 146 1153 q 96 1121 121 1121 m 269 1121 q 233 1137 246 1121 q 221 1183 221 1153 q 233 1229 221 1214 q 271 1244 246 1244 q 307 1229 294 1244 q 319 1183 319 1214 q 306 1137 319 1153 q 269 1121 293 1121 z "},"Ј":{"ha":350,"x_min":-122,"x_max":218,"o":"m -15 -253 q -77 -247 -51 -253 q -122 -235 -103 -242 l -122 -162 q -74 -174 -101 -169 q -17 -179 -47 -179 q 68 -159 33 -179 q 120 -97 103 -139 q 138 7 138 -56 l 138 992 l 218 992 l 218 10 q 192 -131 218 -72 q 115 -222 167 -190 q -15 -253 63 -253 z "},"Љ":{"ha":1403,"x_min":3,"x_max":1328,"o":"m 81 -14 q 42 -11 61 -14 q 3 -1 22 -8 l 3 72 q 37 65 21 68 q 71 63 53 63 q 144 83 117 63 q 188 151 172 103 q 211 283 204 199 q 223 426 218 357 q 233 573 228 494 q 243 752 238 651 q 254 992 249 853 l 803 992 l 803 588 l 965 588 q 1239 516 1150 588 q 1328 297 1328 444 q 1238 76 1328 151 q 972 0 1149 0 l 722 0 l 724 919 l 328 919 q 317 723 322 811 q 308 559 313 635 q 299 414 304 483 q 286 271 293 344 q 253 104 276 167 q 189 14 231 42 q 81 -14 147 -14 m 803 71 l 968 71 q 1178 126 1111 71 q 1244 297 1244 181 q 1178 464 1244 411 q 965 517 1111 517 l 803 517 l 803 71 z "},"Њ":{"ha":1422,"x_min":139,"x_max":1347,"o":"m 139 0 l 139 992 l 219 992 l 219 576 l 742 576 l 742 992 l 821 992 l 821 576 l 985 576 q 1258 506 1169 576 q 1347 292 1347 435 q 1258 74 1347 149 q 992 0 1168 0 l 742 0 l 742 504 l 219 504 l 219 0 l 139 0 m 821 71 l 988 71 q 1197 125 1131 71 q 1264 292 1264 179 q 1197 453 1264 401 q 985 506 1131 506 l 821 506 l 821 71 z "},"Ћ":{"ha":964,"x_min":8,"x_max":881,"o":"m 249 1 l 249 919 l 8 919 l 8 992 l 699 992 l 699 919 l 328 919 l 328 513 l 304 542 q 439 581 374 568 q 571 593 504 593 q 805 520 729 593 q 881 294 881 447 l 881 1 l 800 1 l 800 290 q 742 467 800 411 q 556 522 683 522 q 434 510 494 522 q 301 468 374 497 l 328 514 l 328 1 l 249 1 z "},"Ќ":{"ha":819,"x_min":139,"x_max":803,"o":"m 708 0 l 378 503 l 378 536 l 692 992 l 779 992 l 446 507 l 446 543 l 803 0 l 708 0 m 139 0 l 139 992 l 219 992 l 219 0 l 139 0 m 197 483 l 197 556 l 422 556 l 422 483 l 197 483 m 375 1094 l 375 1107 l 538 1317 l 632 1317 l 632 1306 l 429 1094 l 375 1094 z "},"Ў":{"ha":818,"x_min":7,"x_max":814,"o":"m 192 -14 q 142 -10 165 -14 q 100 0 119 -7 l 100 74 q 142 66 122 69 q 185 63 161 63 q 267 82 233 63 q 332 150 301 101 q 399 285 363 199 l 399 217 l 7 992 l 97 992 l 388 410 q 401 382 394 396 q 414 355 407 368 q 426 326 421 342 l 429 326 q 440 353 435 339 q 451 380 446 367 q 461 406 457 393 l 728 992 l 814 992 l 467 238 q 389 94 428 150 q 303 13 350 39 q 192 -14 257 -14 m 429 1082 q 293 1124 343 1082 q 233 1244 243 1165 l 308 1244 q 345 1165 314 1192 q 429 1139 376 1139 q 513 1165 482 1139 q 550 1244 544 1192 l 625 1244 q 566 1124 617 1165 q 429 1082 515 1082 z "},"Џ":{"ha":993,"x_min":139,"x_max":853,"o":"m 457 -214 l 457 0 l 139 0 l 139 992 l 219 992 l 219 72 l 774 72 l 774 992 l 853 992 l 853 0 l 535 0 l 535 -214 l 457 -214 z "},"А":{"ha":844,"x_min":0,"x_max":844,"o":"m 760 0 l 628 342 l 217 342 l 83 0 l 0 0 l 390 996 l 464 996 l 844 0 l 760 0 m 471 772 q 457 810 465 786 q 440 860 449 833 q 425 907 432 886 q 410 858 418 883 q 394 811 403 833 q 381 771 386 789 l 243 415 l 603 415 l 471 772 z "},"Б":{"ha":829,"x_min":139,"x_max":756,"o":"m 140 0 l 139 992 l 697 992 l 697 919 l 219 919 l 219 576 l 394 576 q 667 507 578 576 q 756 293 756 438 q 665 74 756 149 q 397 0 575 0 l 140 0 m 221 71 l 393 71 q 605 125 538 71 q 672 292 672 179 q 606 455 672 404 q 390 506 539 506 l 221 506 l 221 71 z "},"В":{"ha":878,"x_min":139,"x_max":801,"o":"m 139 0 l 139 992 l 414 992 q 685 935 597 992 q 772 750 772 878 q 750 646 772 693 q 685 567 728 599 q 579 525 642 536 l 579 521 q 701 480 651 510 q 776 401 751 450 q 801 282 801 353 q 758 124 801 186 q 635 31 714 61 q 453 0 557 0 l 139 0 m 219 71 l 447 71 q 650 126 583 71 q 717 286 717 181 q 686 399 717 356 q 593 464 656 443 q 435 485 531 485 l 219 485 l 219 71 m 219 554 l 432 554 q 629 601 569 554 q 689 742 689 649 q 624 879 689 838 q 414 921 558 921 l 219 921 l 219 554 z "},"Г":{"ha":706,"x_min":139,"x_max":676,"o":"m 139 0 l 139 992 l 676 992 l 676 919 l 219 919 l 219 0 l 139 0 z "}}}
